G04 #@! TF.FileFunction,Legend,Bot*
%FSLAX46Y46*%
G04 Gerber Fmt 4.6, Leading zero omitted, Abs format (unit mm)*
G04 Created by KiCad (PCBNEW 4.0.5) date 07/12/17 21:06:26*
%MOMM*%
%LPD*%
G01*
G04 APERTURE LIST*
%ADD10C,0.100000*%
%ADD11C,0.150000*%
G04 APERTURE END LIST*
D10*
D11*
X135871715Y-107459429D02*
X135871715Y-106859429D01*
X135643143Y-106859429D01*
X135586001Y-106888000D01*
X135557429Y-106916571D01*
X135528858Y-106973714D01*
X135528858Y-107059429D01*
X135557429Y-107116571D01*
X135586001Y-107145143D01*
X135643143Y-107173714D01*
X135871715Y-107173714D01*
X134928858Y-107402286D02*
X134957429Y-107430857D01*
X135043143Y-107459429D01*
X135100286Y-107459429D01*
X135186001Y-107430857D01*
X135243143Y-107373714D01*
X135271715Y-107316571D01*
X135300286Y-107202286D01*
X135300286Y-107116571D01*
X135271715Y-107002286D01*
X135243143Y-106945143D01*
X135186001Y-106888000D01*
X135100286Y-106859429D01*
X135043143Y-106859429D01*
X134957429Y-106888000D01*
X134928858Y-106916571D01*
X134471715Y-107145143D02*
X134386001Y-107173714D01*
X134357429Y-107202286D01*
X134328858Y-107259429D01*
X134328858Y-107345143D01*
X134357429Y-107402286D01*
X134386001Y-107430857D01*
X134443143Y-107459429D01*
X134671715Y-107459429D01*
X134671715Y-106859429D01*
X134471715Y-106859429D01*
X134414572Y-106888000D01*
X134386001Y-106916571D01*
X134357429Y-106973714D01*
X134357429Y-107030857D01*
X134386001Y-107088000D01*
X134414572Y-107116571D01*
X134471715Y-107145143D01*
X134671715Y-107145143D01*
X133614572Y-107459429D02*
X133614572Y-106859429D01*
X133614572Y-107088000D02*
X133557429Y-107059429D01*
X133443143Y-107059429D01*
X133386000Y-107088000D01*
X133357429Y-107116571D01*
X133328858Y-107173714D01*
X133328858Y-107345143D01*
X133357429Y-107402286D01*
X133386000Y-107430857D01*
X133443143Y-107459429D01*
X133557429Y-107459429D01*
X133614572Y-107430857D01*
X133128858Y-107059429D02*
X132986001Y-107459429D01*
X132843143Y-107059429D02*
X132986001Y-107459429D01*
X133043143Y-107602286D01*
X133071715Y-107630857D01*
X133128858Y-107659429D01*
X132186000Y-107430857D02*
X132100286Y-107459429D01*
X131957429Y-107459429D01*
X131900286Y-107430857D01*
X131871715Y-107402286D01*
X131843143Y-107345143D01*
X131843143Y-107288000D01*
X131871715Y-107230857D01*
X131900286Y-107202286D01*
X131957429Y-107173714D01*
X132071715Y-107145143D01*
X132128857Y-107116571D01*
X132157429Y-107088000D01*
X132186000Y-107030857D01*
X132186000Y-106973714D01*
X132157429Y-106916571D01*
X132128857Y-106888000D01*
X132071715Y-106859429D01*
X131928857Y-106859429D01*
X131843143Y-106888000D01*
X131671714Y-107059429D02*
X131443143Y-107059429D01*
X131586000Y-106859429D02*
X131586000Y-107373714D01*
X131557428Y-107430857D01*
X131500286Y-107459429D01*
X131443143Y-107459429D01*
X131014571Y-107430857D02*
X131071714Y-107459429D01*
X131186000Y-107459429D01*
X131243143Y-107430857D01*
X131271714Y-107373714D01*
X131271714Y-107145143D01*
X131243143Y-107088000D01*
X131186000Y-107059429D01*
X131071714Y-107059429D01*
X131014571Y-107088000D01*
X130986000Y-107145143D01*
X130986000Y-107202286D01*
X131271714Y-107259429D01*
X130786000Y-107059429D02*
X130643143Y-107459429D01*
X130500285Y-107059429D01*
X130043142Y-107430857D02*
X130100285Y-107459429D01*
X130214571Y-107459429D01*
X130271714Y-107430857D01*
X130300285Y-107373714D01*
X130300285Y-107145143D01*
X130271714Y-107088000D01*
X130214571Y-107059429D01*
X130100285Y-107059429D01*
X130043142Y-107088000D01*
X130014571Y-107145143D01*
X130014571Y-107202286D01*
X130300285Y-107259429D01*
X129328856Y-107430857D02*
X129243142Y-107459429D01*
X129100285Y-107459429D01*
X129043142Y-107430857D01*
X129014571Y-107402286D01*
X128985999Y-107345143D01*
X128985999Y-107288000D01*
X129014571Y-107230857D01*
X129043142Y-107202286D01*
X129100285Y-107173714D01*
X129214571Y-107145143D01*
X129271713Y-107116571D01*
X129300285Y-107088000D01*
X129328856Y-107030857D01*
X129328856Y-106973714D01*
X129300285Y-106916571D01*
X129271713Y-106888000D01*
X129214571Y-106859429D01*
X129071713Y-106859429D01*
X128985999Y-106888000D01*
X128728856Y-107459429D02*
X128728856Y-107059429D01*
X128728856Y-107116571D02*
X128700284Y-107088000D01*
X128643142Y-107059429D01*
X128557427Y-107059429D01*
X128500284Y-107088000D01*
X128471713Y-107145143D01*
X128471713Y-107459429D01*
X128471713Y-107145143D02*
X128443142Y-107088000D01*
X128385999Y-107059429D01*
X128300284Y-107059429D01*
X128243142Y-107088000D01*
X128214570Y-107145143D01*
X128214570Y-107459429D01*
X127928856Y-107459429D02*
X127928856Y-107059429D01*
X127928856Y-106859429D02*
X127957427Y-106888000D01*
X127928856Y-106916571D01*
X127900284Y-106888000D01*
X127928856Y-106859429D01*
X127928856Y-106916571D01*
X127728856Y-107059429D02*
X127500285Y-107059429D01*
X127643142Y-106859429D02*
X127643142Y-107373714D01*
X127614570Y-107430857D01*
X127557428Y-107459429D01*
X127500285Y-107459429D01*
X127300285Y-107459429D02*
X127300285Y-106859429D01*
X127043142Y-107459429D02*
X127043142Y-107145143D01*
X127071713Y-107088000D01*
X127128856Y-107059429D01*
X127214571Y-107059429D01*
X127271713Y-107088000D01*
X127300285Y-107116571D01*
X126300285Y-107230857D02*
X125843142Y-107230857D01*
X124785999Y-106888000D02*
X124843142Y-106859429D01*
X124928856Y-106859429D01*
X125014571Y-106888000D01*
X125071713Y-106945143D01*
X125100285Y-107002286D01*
X125128856Y-107116571D01*
X125128856Y-107202286D01*
X125100285Y-107316571D01*
X125071713Y-107373714D01*
X125014571Y-107430857D01*
X124928856Y-107459429D01*
X124871713Y-107459429D01*
X124785999Y-107430857D01*
X124757428Y-107402286D01*
X124757428Y-107202286D01*
X124871713Y-107202286D01*
X124385999Y-106859429D02*
X124328856Y-106859429D01*
X124271713Y-106888000D01*
X124243142Y-106916571D01*
X124214571Y-106973714D01*
X124185999Y-107088000D01*
X124185999Y-107230857D01*
X124214571Y-107345143D01*
X124243142Y-107402286D01*
X124271713Y-107430857D01*
X124328856Y-107459429D01*
X124385999Y-107459429D01*
X124443142Y-107430857D01*
X124471713Y-107402286D01*
X124500285Y-107345143D01*
X124528856Y-107230857D01*
X124528856Y-107088000D01*
X124500285Y-106973714D01*
X124471713Y-106916571D01*
X124443142Y-106888000D01*
X124385999Y-106859429D01*
X124014570Y-106859429D02*
X123671713Y-106859429D01*
X123843142Y-107459429D02*
X123843142Y-106859429D01*
X123471713Y-107459429D02*
X123471713Y-106859429D01*
X123328856Y-106859429D01*
X123243141Y-106888000D01*
X123185999Y-106945143D01*
X123157427Y-107002286D01*
X123128856Y-107116571D01*
X123128856Y-107202286D01*
X123157427Y-107316571D01*
X123185999Y-107373714D01*
X123243141Y-107430857D01*
X123328856Y-107459429D01*
X123471713Y-107459429D01*
X122700284Y-106859429D02*
X122700284Y-107288000D01*
X122728856Y-107373714D01*
X122785999Y-107430857D01*
X122871713Y-107459429D01*
X122928856Y-107459429D01*
X135757429Y-105789429D02*
X135757429Y-106189429D01*
X135900286Y-105560857D02*
X136043143Y-105989429D01*
X135671715Y-105989429D01*
X135357429Y-105846571D02*
X135414571Y-105818000D01*
X135443143Y-105789429D01*
X135471714Y-105732286D01*
X135471714Y-105703714D01*
X135443143Y-105646571D01*
X135414571Y-105618000D01*
X135357429Y-105589429D01*
X135243143Y-105589429D01*
X135186000Y-105618000D01*
X135157429Y-105646571D01*
X135128857Y-105703714D01*
X135128857Y-105732286D01*
X135157429Y-105789429D01*
X135186000Y-105818000D01*
X135243143Y-105846571D01*
X135357429Y-105846571D01*
X135414571Y-105875143D01*
X135443143Y-105903714D01*
X135471714Y-105960857D01*
X135471714Y-106075143D01*
X135443143Y-106132286D01*
X135414571Y-106160857D01*
X135357429Y-106189429D01*
X135243143Y-106189429D01*
X135186000Y-106160857D01*
X135157429Y-106132286D01*
X135128857Y-106075143D01*
X135128857Y-105960857D01*
X135157429Y-105903714D01*
X135186000Y-105875143D01*
X135243143Y-105846571D01*
X134871714Y-106189429D02*
X134871714Y-105589429D01*
X134528857Y-106189429D02*
X134786000Y-105846571D01*
X134528857Y-105589429D02*
X134871714Y-105932286D01*
X133843142Y-106160857D02*
X133757428Y-106189429D01*
X133614571Y-106189429D01*
X133557428Y-106160857D01*
X133528857Y-106132286D01*
X133500285Y-106075143D01*
X133500285Y-106018000D01*
X133528857Y-105960857D01*
X133557428Y-105932286D01*
X133614571Y-105903714D01*
X133728857Y-105875143D01*
X133785999Y-105846571D01*
X133814571Y-105818000D01*
X133843142Y-105760857D01*
X133843142Y-105703714D01*
X133814571Y-105646571D01*
X133785999Y-105618000D01*
X133728857Y-105589429D01*
X133585999Y-105589429D01*
X133500285Y-105618000D01*
X133243142Y-105789429D02*
X133243142Y-106389429D01*
X133243142Y-105818000D02*
X133185999Y-105789429D01*
X133071713Y-105789429D01*
X133014570Y-105818000D01*
X132985999Y-105846571D01*
X132957428Y-105903714D01*
X132957428Y-106075143D01*
X132985999Y-106132286D01*
X133014570Y-106160857D01*
X133071713Y-106189429D01*
X133185999Y-106189429D01*
X133243142Y-106160857D01*
X132471713Y-106160857D02*
X132528856Y-106189429D01*
X132643142Y-106189429D01*
X132700285Y-106160857D01*
X132728856Y-106103714D01*
X132728856Y-105875143D01*
X132700285Y-105818000D01*
X132643142Y-105789429D01*
X132528856Y-105789429D01*
X132471713Y-105818000D01*
X132443142Y-105875143D01*
X132443142Y-105932286D01*
X132728856Y-105989429D01*
X131928856Y-106160857D02*
X131985999Y-106189429D01*
X132100285Y-106189429D01*
X132157427Y-106160857D01*
X132185999Y-106132286D01*
X132214570Y-106075143D01*
X132214570Y-105903714D01*
X132185999Y-105846571D01*
X132157427Y-105818000D01*
X132100285Y-105789429D01*
X131985999Y-105789429D01*
X131928856Y-105818000D01*
X131757427Y-105789429D02*
X131528856Y-105789429D01*
X131671713Y-105589429D02*
X131671713Y-106103714D01*
X131643141Y-106160857D01*
X131585999Y-106189429D01*
X131528856Y-106189429D01*
X131328856Y-106189429D02*
X131328856Y-105789429D01*
X131328856Y-105903714D02*
X131300284Y-105846571D01*
X131271713Y-105818000D01*
X131214570Y-105789429D01*
X131157427Y-105789429D01*
X130700284Y-105789429D02*
X130700284Y-106189429D01*
X130957427Y-105789429D02*
X130957427Y-106103714D01*
X130928855Y-106160857D01*
X130871713Y-106189429D01*
X130785998Y-106189429D01*
X130728855Y-106160857D01*
X130700284Y-106132286D01*
X130414570Y-106189429D02*
X130414570Y-105789429D01*
X130414570Y-105846571D02*
X130385998Y-105818000D01*
X130328856Y-105789429D01*
X130243141Y-105789429D01*
X130185998Y-105818000D01*
X130157427Y-105875143D01*
X130157427Y-106189429D01*
X130157427Y-105875143D02*
X130128856Y-105818000D01*
X130071713Y-105789429D01*
X129985998Y-105789429D01*
X129928856Y-105818000D01*
X129900284Y-105875143D01*
X129900284Y-106189429D01*
X128814570Y-106132286D02*
X128843141Y-106160857D01*
X128928855Y-106189429D01*
X128985998Y-106189429D01*
X129071713Y-106160857D01*
X129128855Y-106103714D01*
X129157427Y-106046571D01*
X129185998Y-105932286D01*
X129185998Y-105846571D01*
X129157427Y-105732286D01*
X129128855Y-105675143D01*
X129071713Y-105618000D01*
X128985998Y-105589429D01*
X128928855Y-105589429D01*
X128843141Y-105618000D01*
X128814570Y-105646571D01*
X128471713Y-106189429D02*
X128528855Y-106160857D01*
X128557427Y-106132286D01*
X128585998Y-106075143D01*
X128585998Y-105903714D01*
X128557427Y-105846571D01*
X128528855Y-105818000D01*
X128471713Y-105789429D01*
X128385998Y-105789429D01*
X128328855Y-105818000D01*
X128300284Y-105846571D01*
X128271713Y-105903714D01*
X128271713Y-106075143D01*
X128300284Y-106132286D01*
X128328855Y-106160857D01*
X128385998Y-106189429D01*
X128471713Y-106189429D01*
X128014570Y-106189429D02*
X128014570Y-105789429D01*
X128014570Y-105846571D02*
X127985998Y-105818000D01*
X127928856Y-105789429D01*
X127843141Y-105789429D01*
X127785998Y-105818000D01*
X127757427Y-105875143D01*
X127757427Y-106189429D01*
X127757427Y-105875143D02*
X127728856Y-105818000D01*
X127671713Y-105789429D01*
X127585998Y-105789429D01*
X127528856Y-105818000D01*
X127500284Y-105875143D01*
X127500284Y-106189429D01*
X127214570Y-105789429D02*
X127214570Y-106389429D01*
X127214570Y-105818000D02*
X127157427Y-105789429D01*
X127043141Y-105789429D01*
X126985998Y-105818000D01*
X126957427Y-105846571D01*
X126928856Y-105903714D01*
X126928856Y-106075143D01*
X126957427Y-106132286D01*
X126985998Y-106160857D01*
X127043141Y-106189429D01*
X127157427Y-106189429D01*
X127214570Y-106160857D01*
X126585999Y-106189429D02*
X126643141Y-106160857D01*
X126671713Y-106132286D01*
X126700284Y-106075143D01*
X126700284Y-105903714D01*
X126671713Y-105846571D01*
X126643141Y-105818000D01*
X126585999Y-105789429D01*
X126500284Y-105789429D01*
X126443141Y-105818000D01*
X126414570Y-105846571D01*
X126385999Y-105903714D01*
X126385999Y-106075143D01*
X126414570Y-106132286D01*
X126443141Y-106160857D01*
X126500284Y-106189429D01*
X126585999Y-106189429D01*
X126157427Y-106160857D02*
X126100284Y-106189429D01*
X125985999Y-106189429D01*
X125928856Y-106160857D01*
X125900284Y-106103714D01*
X125900284Y-106075143D01*
X125928856Y-106018000D01*
X125985999Y-105989429D01*
X126071713Y-105989429D01*
X126128856Y-105960857D01*
X126157427Y-105903714D01*
X126157427Y-105875143D01*
X126128856Y-105818000D01*
X126071713Y-105789429D01*
X125985999Y-105789429D01*
X125928856Y-105818000D01*
X125643142Y-106189429D02*
X125643142Y-105789429D01*
X125643142Y-105589429D02*
X125671713Y-105618000D01*
X125643142Y-105646571D01*
X125614570Y-105618000D01*
X125643142Y-105589429D01*
X125643142Y-105646571D01*
X125443142Y-105789429D02*
X125214571Y-105789429D01*
X125357428Y-105589429D02*
X125357428Y-106103714D01*
X125328856Y-106160857D01*
X125271714Y-106189429D01*
X125214571Y-106189429D01*
X124785999Y-106160857D02*
X124843142Y-106189429D01*
X124957428Y-106189429D01*
X125014571Y-106160857D01*
X125043142Y-106103714D01*
X125043142Y-105875143D01*
X125014571Y-105818000D01*
X124957428Y-105789429D01*
X124843142Y-105789429D01*
X124785999Y-105818000D01*
X124757428Y-105875143D01*
X124757428Y-105932286D01*
X125043142Y-105989429D01*
X124043142Y-106189429D02*
X124043142Y-105589429D01*
X123843142Y-106018000D01*
X123643142Y-105589429D01*
X123643142Y-106189429D01*
X123271714Y-106189429D02*
X123328856Y-106160857D01*
X123357428Y-106132286D01*
X123385999Y-106075143D01*
X123385999Y-105903714D01*
X123357428Y-105846571D01*
X123328856Y-105818000D01*
X123271714Y-105789429D01*
X123185999Y-105789429D01*
X123128856Y-105818000D01*
X123100285Y-105846571D01*
X123071714Y-105903714D01*
X123071714Y-106075143D01*
X123100285Y-106132286D01*
X123128856Y-106160857D01*
X123185999Y-106189429D01*
X123271714Y-106189429D01*
X122557428Y-106189429D02*
X122557428Y-105589429D01*
X122557428Y-106160857D02*
X122614571Y-106189429D01*
X122728857Y-106189429D01*
X122785999Y-106160857D01*
X122814571Y-106132286D01*
X122843142Y-106075143D01*
X122843142Y-105903714D01*
X122814571Y-105846571D01*
X122785999Y-105818000D01*
X122728857Y-105789429D01*
X122614571Y-105789429D01*
X122557428Y-105818000D01*
M02*
