G04 #@! TF.FileFunction,Legend,Top*
%FSLAX46Y46*%
G04 Gerber Fmt 4.6, Leading zero omitted, Abs format (unit mm)*
G04 Created by KiCad (PCBNEW 4.0.5) date 07/12/17 21:06:27*
%MOMM*%
%LPD*%
G01*
G04 APERTURE LIST*
%ADD10C,0.100000*%
%ADD11C,0.125000*%
%ADD12C,0.250000*%
%ADD13C,0.200000*%
%ADD14C,0.120000*%
%ADD15C,0.010000*%
G04 APERTURE END LIST*
D10*
D11*
X106054143Y-114399004D02*
X106420810Y-114399004D01*
X105844619Y-114529957D02*
X106237476Y-114660909D01*
X106237476Y-114320433D01*
X106106524Y-114032337D02*
X106080333Y-114084718D01*
X106054143Y-114110909D01*
X106001762Y-114137099D01*
X105975571Y-114137099D01*
X105923190Y-114110909D01*
X105897000Y-114084718D01*
X105870810Y-114032337D01*
X105870810Y-113927575D01*
X105897000Y-113875194D01*
X105923190Y-113849004D01*
X105975571Y-113822813D01*
X106001762Y-113822813D01*
X106054143Y-113849004D01*
X106080333Y-113875194D01*
X106106524Y-113927575D01*
X106106524Y-114032337D01*
X106132714Y-114084718D01*
X106158905Y-114110909D01*
X106211286Y-114137099D01*
X106316048Y-114137099D01*
X106368429Y-114110909D01*
X106394619Y-114084718D01*
X106420810Y-114032337D01*
X106420810Y-113927575D01*
X106394619Y-113875194D01*
X106368429Y-113849004D01*
X106316048Y-113822813D01*
X106211286Y-113822813D01*
X106158905Y-113849004D01*
X106132714Y-113875194D01*
X106106524Y-113927575D01*
X106420810Y-113587099D02*
X105870810Y-113587099D01*
X106420810Y-113272813D02*
X106106524Y-113508527D01*
X105870810Y-113272813D02*
X106185095Y-113587099D01*
X106394619Y-112644241D02*
X106420810Y-112565670D01*
X106420810Y-112434717D01*
X106394619Y-112382336D01*
X106368429Y-112356146D01*
X106316048Y-112329955D01*
X106263667Y-112329955D01*
X106211286Y-112356146D01*
X106185095Y-112382336D01*
X106158905Y-112434717D01*
X106132714Y-112539479D01*
X106106524Y-112591860D01*
X106080333Y-112618051D01*
X106027952Y-112644241D01*
X105975571Y-112644241D01*
X105923190Y-112618051D01*
X105897000Y-112591860D01*
X105870810Y-112539479D01*
X105870810Y-112408527D01*
X105897000Y-112329955D01*
X106054143Y-112094241D02*
X106604143Y-112094241D01*
X106080333Y-112094241D02*
X106054143Y-112041860D01*
X106054143Y-111937098D01*
X106080333Y-111884717D01*
X106106524Y-111858526D01*
X106158905Y-111832336D01*
X106316048Y-111832336D01*
X106368429Y-111858526D01*
X106394619Y-111884717D01*
X106420810Y-111937098D01*
X106420810Y-112041860D01*
X106394619Y-112094241D01*
X106394619Y-111387098D02*
X106420810Y-111439479D01*
X106420810Y-111544241D01*
X106394619Y-111596622D01*
X106342238Y-111622812D01*
X106132714Y-111622812D01*
X106080333Y-111596622D01*
X106054143Y-111544241D01*
X106054143Y-111439479D01*
X106080333Y-111387098D01*
X106132714Y-111360907D01*
X106185095Y-111360907D01*
X106237476Y-111622812D01*
X106394619Y-110889478D02*
X106420810Y-110941859D01*
X106420810Y-111046621D01*
X106394619Y-111099002D01*
X106368429Y-111125193D01*
X106316048Y-111151383D01*
X106158905Y-111151383D01*
X106106524Y-111125193D01*
X106080333Y-111099002D01*
X106054143Y-111046621D01*
X106054143Y-110941859D01*
X106080333Y-110889478D01*
X106054143Y-110732335D02*
X106054143Y-110522811D01*
X105870810Y-110653764D02*
X106342238Y-110653764D01*
X106394619Y-110627573D01*
X106420810Y-110575192D01*
X106420810Y-110522811D01*
X106420810Y-110339478D02*
X106054143Y-110339478D01*
X106158905Y-110339478D02*
X106106524Y-110313287D01*
X106080333Y-110287097D01*
X106054143Y-110234716D01*
X106054143Y-110182335D01*
X106054143Y-109763287D02*
X106420810Y-109763287D01*
X106054143Y-109999002D02*
X106342238Y-109999002D01*
X106394619Y-109972811D01*
X106420810Y-109920430D01*
X106420810Y-109841859D01*
X106394619Y-109789478D01*
X106368429Y-109763287D01*
X106420810Y-109501383D02*
X106054143Y-109501383D01*
X106106524Y-109501383D02*
X106080333Y-109475192D01*
X106054143Y-109422811D01*
X106054143Y-109344240D01*
X106080333Y-109291859D01*
X106132714Y-109265668D01*
X106420810Y-109265668D01*
X106132714Y-109265668D02*
X106080333Y-109239478D01*
X106054143Y-109187097D01*
X106054143Y-109108525D01*
X106080333Y-109056145D01*
X106132714Y-109029954D01*
X106420810Y-109029954D01*
X106368429Y-108034716D02*
X106394619Y-108060906D01*
X106420810Y-108139478D01*
X106420810Y-108191859D01*
X106394619Y-108270430D01*
X106342238Y-108322811D01*
X106289857Y-108349002D01*
X106185095Y-108375192D01*
X106106524Y-108375192D01*
X106001762Y-108349002D01*
X105949381Y-108322811D01*
X105897000Y-108270430D01*
X105870810Y-108191859D01*
X105870810Y-108139478D01*
X105897000Y-108060906D01*
X105923190Y-108034716D01*
X106420810Y-107720430D02*
X106394619Y-107772811D01*
X106368429Y-107799002D01*
X106316048Y-107825192D01*
X106158905Y-107825192D01*
X106106524Y-107799002D01*
X106080333Y-107772811D01*
X106054143Y-107720430D01*
X106054143Y-107641859D01*
X106080333Y-107589478D01*
X106106524Y-107563287D01*
X106158905Y-107537097D01*
X106316048Y-107537097D01*
X106368429Y-107563287D01*
X106394619Y-107589478D01*
X106420810Y-107641859D01*
X106420810Y-107720430D01*
X106420810Y-107301383D02*
X106054143Y-107301383D01*
X106106524Y-107301383D02*
X106080333Y-107275192D01*
X106054143Y-107222811D01*
X106054143Y-107144240D01*
X106080333Y-107091859D01*
X106132714Y-107065668D01*
X106420810Y-107065668D01*
X106132714Y-107065668D02*
X106080333Y-107039478D01*
X106054143Y-106987097D01*
X106054143Y-106908525D01*
X106080333Y-106856145D01*
X106132714Y-106829954D01*
X106420810Y-106829954D01*
X106054143Y-106568050D02*
X106604143Y-106568050D01*
X106080333Y-106568050D02*
X106054143Y-106515669D01*
X106054143Y-106410907D01*
X106080333Y-106358526D01*
X106106524Y-106332335D01*
X106158905Y-106306145D01*
X106316048Y-106306145D01*
X106368429Y-106332335D01*
X106394619Y-106358526D01*
X106420810Y-106410907D01*
X106420810Y-106515669D01*
X106394619Y-106568050D01*
X106420810Y-105991859D02*
X106394619Y-106044240D01*
X106368429Y-106070431D01*
X106316048Y-106096621D01*
X106158905Y-106096621D01*
X106106524Y-106070431D01*
X106080333Y-106044240D01*
X106054143Y-105991859D01*
X106054143Y-105913288D01*
X106080333Y-105860907D01*
X106106524Y-105834716D01*
X106158905Y-105808526D01*
X106316048Y-105808526D01*
X106368429Y-105834716D01*
X106394619Y-105860907D01*
X106420810Y-105913288D01*
X106420810Y-105991859D01*
X106394619Y-105599002D02*
X106420810Y-105546621D01*
X106420810Y-105441859D01*
X106394619Y-105389478D01*
X106342238Y-105363288D01*
X106316048Y-105363288D01*
X106263667Y-105389478D01*
X106237476Y-105441859D01*
X106237476Y-105520431D01*
X106211286Y-105572812D01*
X106158905Y-105599002D01*
X106132714Y-105599002D01*
X106080333Y-105572812D01*
X106054143Y-105520431D01*
X106054143Y-105441859D01*
X106080333Y-105389478D01*
X106420810Y-105127574D02*
X106054143Y-105127574D01*
X105870810Y-105127574D02*
X105897000Y-105153764D01*
X105923190Y-105127574D01*
X105897000Y-105101383D01*
X105870810Y-105127574D01*
X105923190Y-105127574D01*
X106054143Y-104944240D02*
X106054143Y-104734716D01*
X105870810Y-104865669D02*
X106342238Y-104865669D01*
X106394619Y-104839478D01*
X106420810Y-104787097D01*
X106420810Y-104734716D01*
X106394619Y-104341859D02*
X106420810Y-104394240D01*
X106420810Y-104499002D01*
X106394619Y-104551383D01*
X106342238Y-104577573D01*
X106132714Y-104577573D01*
X106080333Y-104551383D01*
X106054143Y-104499002D01*
X106054143Y-104394240D01*
X106080333Y-104341859D01*
X106132714Y-104315668D01*
X106185095Y-104315668D01*
X106237476Y-104577573D01*
X106420810Y-103660906D02*
X105870810Y-103660906D01*
X106263667Y-103477572D01*
X105870810Y-103294239D01*
X106420810Y-103294239D01*
X106420810Y-102953763D02*
X106394619Y-103006144D01*
X106368429Y-103032335D01*
X106316048Y-103058525D01*
X106158905Y-103058525D01*
X106106524Y-103032335D01*
X106080333Y-103006144D01*
X106054143Y-102953763D01*
X106054143Y-102875192D01*
X106080333Y-102822811D01*
X106106524Y-102796620D01*
X106158905Y-102770430D01*
X106316048Y-102770430D01*
X106368429Y-102796620D01*
X106394619Y-102822811D01*
X106420810Y-102875192D01*
X106420810Y-102953763D01*
X106420810Y-102299001D02*
X105870810Y-102299001D01*
X106394619Y-102299001D02*
X106420810Y-102351382D01*
X106420810Y-102456144D01*
X106394619Y-102508525D01*
X106368429Y-102534716D01*
X106316048Y-102560906D01*
X106158905Y-102560906D01*
X106106524Y-102534716D01*
X106080333Y-102508525D01*
X106054143Y-102456144D01*
X106054143Y-102351382D01*
X106080333Y-102299001D01*
X106420810Y-101618049D02*
X105870810Y-101618049D01*
X106080333Y-101618049D02*
X106054143Y-101565668D01*
X106054143Y-101460906D01*
X106080333Y-101408525D01*
X106106524Y-101382334D01*
X106158905Y-101356144D01*
X106316048Y-101356144D01*
X106368429Y-101382334D01*
X106394619Y-101408525D01*
X106420810Y-101460906D01*
X106420810Y-101565668D01*
X106394619Y-101618049D01*
X106054143Y-101172811D02*
X106420810Y-101041858D01*
X106054143Y-100910906D02*
X106420810Y-101041858D01*
X106551762Y-101094239D01*
X106577952Y-101120430D01*
X106604143Y-101172811D01*
X106394619Y-100308524D02*
X106420810Y-100229953D01*
X106420810Y-100099000D01*
X106394619Y-100046619D01*
X106368429Y-100020429D01*
X106316048Y-99994238D01*
X106263667Y-99994238D01*
X106211286Y-100020429D01*
X106185095Y-100046619D01*
X106158905Y-100099000D01*
X106132714Y-100203762D01*
X106106524Y-100256143D01*
X106080333Y-100282334D01*
X106027952Y-100308524D01*
X105975571Y-100308524D01*
X105923190Y-100282334D01*
X105897000Y-100256143D01*
X105870810Y-100203762D01*
X105870810Y-100072810D01*
X105897000Y-99994238D01*
X106054143Y-99837095D02*
X106054143Y-99627571D01*
X105870810Y-99758524D02*
X106342238Y-99758524D01*
X106394619Y-99732333D01*
X106420810Y-99679952D01*
X106420810Y-99627571D01*
X106394619Y-99234714D02*
X106420810Y-99287095D01*
X106420810Y-99391857D01*
X106394619Y-99444238D01*
X106342238Y-99470428D01*
X106132714Y-99470428D01*
X106080333Y-99444238D01*
X106054143Y-99391857D01*
X106054143Y-99287095D01*
X106080333Y-99234714D01*
X106132714Y-99208523D01*
X106185095Y-99208523D01*
X106237476Y-99470428D01*
X106054143Y-99025190D02*
X106420810Y-98894237D01*
X106054143Y-98763285D01*
X106394619Y-98344237D02*
X106420810Y-98396618D01*
X106420810Y-98501380D01*
X106394619Y-98553761D01*
X106342238Y-98579951D01*
X106132714Y-98579951D01*
X106080333Y-98553761D01*
X106054143Y-98501380D01*
X106054143Y-98396618D01*
X106080333Y-98344237D01*
X106132714Y-98318046D01*
X106185095Y-98318046D01*
X106237476Y-98579951D01*
X106394619Y-97689474D02*
X106420810Y-97610903D01*
X106420810Y-97479950D01*
X106394619Y-97427569D01*
X106368429Y-97401379D01*
X106316048Y-97375188D01*
X106263667Y-97375188D01*
X106211286Y-97401379D01*
X106185095Y-97427569D01*
X106158905Y-97479950D01*
X106132714Y-97584712D01*
X106106524Y-97637093D01*
X106080333Y-97663284D01*
X106027952Y-97689474D01*
X105975571Y-97689474D01*
X105923190Y-97663284D01*
X105897000Y-97637093D01*
X105870810Y-97584712D01*
X105870810Y-97453760D01*
X105897000Y-97375188D01*
X106420810Y-97139474D02*
X106054143Y-97139474D01*
X106106524Y-97139474D02*
X106080333Y-97113283D01*
X106054143Y-97060902D01*
X106054143Y-96982331D01*
X106080333Y-96929950D01*
X106132714Y-96903759D01*
X106420810Y-96903759D01*
X106132714Y-96903759D02*
X106080333Y-96877569D01*
X106054143Y-96825188D01*
X106054143Y-96746616D01*
X106080333Y-96694236D01*
X106132714Y-96668045D01*
X106420810Y-96668045D01*
X106420810Y-96406141D02*
X106054143Y-96406141D01*
X105870810Y-96406141D02*
X105897000Y-96432331D01*
X105923190Y-96406141D01*
X105897000Y-96379950D01*
X105870810Y-96406141D01*
X105923190Y-96406141D01*
X106054143Y-96222807D02*
X106054143Y-96013283D01*
X105870810Y-96144236D02*
X106342238Y-96144236D01*
X106394619Y-96118045D01*
X106420810Y-96065664D01*
X106420810Y-96013283D01*
X106420810Y-95829950D02*
X105870810Y-95829950D01*
X106420810Y-95594235D02*
X106132714Y-95594235D01*
X106080333Y-95620426D01*
X106054143Y-95672807D01*
X106054143Y-95751378D01*
X106080333Y-95803759D01*
X106106524Y-95829950D01*
X106211286Y-94913283D02*
X106211286Y-94494235D01*
X105897000Y-93525187D02*
X105870810Y-93577568D01*
X105870810Y-93656140D01*
X105897000Y-93734711D01*
X105949381Y-93787092D01*
X106001762Y-93813283D01*
X106106524Y-93839473D01*
X106185095Y-93839473D01*
X106289857Y-93813283D01*
X106342238Y-93787092D01*
X106394619Y-93734711D01*
X106420810Y-93656140D01*
X106420810Y-93603759D01*
X106394619Y-93525187D01*
X106368429Y-93498997D01*
X106185095Y-93498997D01*
X106185095Y-93603759D01*
X105870810Y-93158521D02*
X105870810Y-93106140D01*
X105897000Y-93053759D01*
X105923190Y-93027568D01*
X105975571Y-93001378D01*
X106080333Y-92975187D01*
X106211286Y-92975187D01*
X106316048Y-93001378D01*
X106368429Y-93027568D01*
X106394619Y-93053759D01*
X106420810Y-93106140D01*
X106420810Y-93158521D01*
X106394619Y-93210902D01*
X106368429Y-93237092D01*
X106316048Y-93263283D01*
X106211286Y-93289473D01*
X106080333Y-93289473D01*
X105975571Y-93263283D01*
X105923190Y-93237092D01*
X105897000Y-93210902D01*
X105870810Y-93158521D01*
X105870810Y-92818044D02*
X105870810Y-92503758D01*
X106420810Y-92660901D02*
X105870810Y-92660901D01*
X106420810Y-92320425D02*
X105870810Y-92320425D01*
X105870810Y-92189472D01*
X105897000Y-92110901D01*
X105949381Y-92058520D01*
X106001762Y-92032329D01*
X106106524Y-92006139D01*
X106185095Y-92006139D01*
X106289857Y-92032329D01*
X106342238Y-92058520D01*
X106394619Y-92110901D01*
X106420810Y-92189472D01*
X106420810Y-92320425D01*
X105870810Y-91613282D02*
X106263667Y-91613282D01*
X106342238Y-91639472D01*
X106394619Y-91691853D01*
X106420810Y-91770425D01*
X106420810Y-91822806D01*
D12*
X134580666Y-92416381D02*
X134771143Y-92416381D01*
X134866381Y-92464000D01*
X134961619Y-92559238D01*
X135009238Y-92749714D01*
X135009238Y-93083048D01*
X134961619Y-93273524D01*
X134866381Y-93368762D01*
X134771143Y-93416381D01*
X134580666Y-93416381D01*
X134485428Y-93368762D01*
X134390190Y-93273524D01*
X134342571Y-93083048D01*
X134342571Y-92749714D01*
X134390190Y-92559238D01*
X134485428Y-92464000D01*
X134580666Y-92416381D01*
X135437809Y-92749714D02*
X135437809Y-93749714D01*
X135437809Y-92797333D02*
X135533047Y-92749714D01*
X135723524Y-92749714D01*
X135818762Y-92797333D01*
X135866381Y-92844952D01*
X135914000Y-92940190D01*
X135914000Y-93225905D01*
X135866381Y-93321143D01*
X135818762Y-93368762D01*
X135723524Y-93416381D01*
X135533047Y-93416381D01*
X135437809Y-93368762D01*
X136199714Y-92749714D02*
X136580666Y-92749714D01*
X136342571Y-92416381D02*
X136342571Y-93273524D01*
X136390190Y-93368762D01*
X136485428Y-93416381D01*
X136580666Y-93416381D01*
X136914000Y-93416381D02*
X136914000Y-92749714D01*
X136914000Y-92416381D02*
X136866381Y-92464000D01*
X136914000Y-92511619D01*
X136961619Y-92464000D01*
X136914000Y-92416381D01*
X136914000Y-92511619D01*
X137533047Y-93416381D02*
X137437809Y-93368762D01*
X137390190Y-93321143D01*
X137342571Y-93225905D01*
X137342571Y-92940190D01*
X137390190Y-92844952D01*
X137437809Y-92797333D01*
X137533047Y-92749714D01*
X137675905Y-92749714D01*
X137771143Y-92797333D01*
X137818762Y-92844952D01*
X137866381Y-92940190D01*
X137866381Y-93225905D01*
X137818762Y-93321143D01*
X137771143Y-93368762D01*
X137675905Y-93416381D01*
X137533047Y-93416381D01*
X138294952Y-92749714D02*
X138294952Y-93416381D01*
X138294952Y-92844952D02*
X138342571Y-92797333D01*
X138437809Y-92749714D01*
X138580667Y-92749714D01*
X138675905Y-92797333D01*
X138723524Y-92892571D01*
X138723524Y-93416381D01*
X139866381Y-92416381D02*
X140485429Y-92416381D01*
X140152095Y-92797333D01*
X140294953Y-92797333D01*
X140390191Y-92844952D01*
X140437810Y-92892571D01*
X140485429Y-92987810D01*
X140485429Y-93225905D01*
X140437810Y-93321143D01*
X140390191Y-93368762D01*
X140294953Y-93416381D01*
X140009238Y-93416381D01*
X139914000Y-93368762D01*
X139866381Y-93321143D01*
X129500666Y-105116381D02*
X129691143Y-105116381D01*
X129786381Y-105164000D01*
X129881619Y-105259238D01*
X129929238Y-105449714D01*
X129929238Y-105783048D01*
X129881619Y-105973524D01*
X129786381Y-106068762D01*
X129691143Y-106116381D01*
X129500666Y-106116381D01*
X129405428Y-106068762D01*
X129310190Y-105973524D01*
X129262571Y-105783048D01*
X129262571Y-105449714D01*
X129310190Y-105259238D01*
X129405428Y-105164000D01*
X129500666Y-105116381D01*
X130357809Y-105449714D02*
X130357809Y-106449714D01*
X130357809Y-105497333D02*
X130453047Y-105449714D01*
X130643524Y-105449714D01*
X130738762Y-105497333D01*
X130786381Y-105544952D01*
X130834000Y-105640190D01*
X130834000Y-105925905D01*
X130786381Y-106021143D01*
X130738762Y-106068762D01*
X130643524Y-106116381D01*
X130453047Y-106116381D01*
X130357809Y-106068762D01*
X131119714Y-105449714D02*
X131500666Y-105449714D01*
X131262571Y-105116381D02*
X131262571Y-105973524D01*
X131310190Y-106068762D01*
X131405428Y-106116381D01*
X131500666Y-106116381D01*
X131834000Y-106116381D02*
X131834000Y-105449714D01*
X131834000Y-105116381D02*
X131786381Y-105164000D01*
X131834000Y-105211619D01*
X131881619Y-105164000D01*
X131834000Y-105116381D01*
X131834000Y-105211619D01*
X132453047Y-106116381D02*
X132357809Y-106068762D01*
X132310190Y-106021143D01*
X132262571Y-105925905D01*
X132262571Y-105640190D01*
X132310190Y-105544952D01*
X132357809Y-105497333D01*
X132453047Y-105449714D01*
X132595905Y-105449714D01*
X132691143Y-105497333D01*
X132738762Y-105544952D01*
X132786381Y-105640190D01*
X132786381Y-105925905D01*
X132738762Y-106021143D01*
X132691143Y-106068762D01*
X132595905Y-106116381D01*
X132453047Y-106116381D01*
X133214952Y-105449714D02*
X133214952Y-106116381D01*
X133214952Y-105544952D02*
X133262571Y-105497333D01*
X133357809Y-105449714D01*
X133500667Y-105449714D01*
X133595905Y-105497333D01*
X133643524Y-105592571D01*
X133643524Y-106116381D01*
X134834000Y-105211619D02*
X134881619Y-105164000D01*
X134976857Y-105116381D01*
X135214953Y-105116381D01*
X135310191Y-105164000D01*
X135357810Y-105211619D01*
X135405429Y-105306857D01*
X135405429Y-105402095D01*
X135357810Y-105544952D01*
X134786381Y-106116381D01*
X135405429Y-106116381D01*
X119848666Y-92416381D02*
X120039143Y-92416381D01*
X120134381Y-92464000D01*
X120229619Y-92559238D01*
X120277238Y-92749714D01*
X120277238Y-93083048D01*
X120229619Y-93273524D01*
X120134381Y-93368762D01*
X120039143Y-93416381D01*
X119848666Y-93416381D01*
X119753428Y-93368762D01*
X119658190Y-93273524D01*
X119610571Y-93083048D01*
X119610571Y-92749714D01*
X119658190Y-92559238D01*
X119753428Y-92464000D01*
X119848666Y-92416381D01*
X120705809Y-92749714D02*
X120705809Y-93749714D01*
X120705809Y-92797333D02*
X120801047Y-92749714D01*
X120991524Y-92749714D01*
X121086762Y-92797333D01*
X121134381Y-92844952D01*
X121182000Y-92940190D01*
X121182000Y-93225905D01*
X121134381Y-93321143D01*
X121086762Y-93368762D01*
X120991524Y-93416381D01*
X120801047Y-93416381D01*
X120705809Y-93368762D01*
X121467714Y-92749714D02*
X121848666Y-92749714D01*
X121610571Y-92416381D02*
X121610571Y-93273524D01*
X121658190Y-93368762D01*
X121753428Y-93416381D01*
X121848666Y-93416381D01*
X122182000Y-93416381D02*
X122182000Y-92749714D01*
X122182000Y-92416381D02*
X122134381Y-92464000D01*
X122182000Y-92511619D01*
X122229619Y-92464000D01*
X122182000Y-92416381D01*
X122182000Y-92511619D01*
X122801047Y-93416381D02*
X122705809Y-93368762D01*
X122658190Y-93321143D01*
X122610571Y-93225905D01*
X122610571Y-92940190D01*
X122658190Y-92844952D01*
X122705809Y-92797333D01*
X122801047Y-92749714D01*
X122943905Y-92749714D01*
X123039143Y-92797333D01*
X123086762Y-92844952D01*
X123134381Y-92940190D01*
X123134381Y-93225905D01*
X123086762Y-93321143D01*
X123039143Y-93368762D01*
X122943905Y-93416381D01*
X122801047Y-93416381D01*
X123562952Y-92749714D02*
X123562952Y-93416381D01*
X123562952Y-92844952D02*
X123610571Y-92797333D01*
X123705809Y-92749714D01*
X123848667Y-92749714D01*
X123943905Y-92797333D01*
X123991524Y-92892571D01*
X123991524Y-93416381D01*
X125753429Y-93416381D02*
X125182000Y-93416381D01*
X125467714Y-93416381D02*
X125467714Y-92416381D01*
X125372476Y-92559238D01*
X125277238Y-92654476D01*
X125182000Y-92702095D01*
X107878857Y-112847429D02*
X108640762Y-112847429D01*
X108259810Y-113228381D02*
X108259810Y-112466476D01*
X109593143Y-112228381D02*
X109116952Y-112228381D01*
X109069333Y-112704571D01*
X109116952Y-112656952D01*
X109212190Y-112609333D01*
X109450286Y-112609333D01*
X109545524Y-112656952D01*
X109593143Y-112704571D01*
X109640762Y-112799810D01*
X109640762Y-113037905D01*
X109593143Y-113133143D01*
X109545524Y-113180762D01*
X109450286Y-113228381D01*
X109212190Y-113228381D01*
X109116952Y-113180762D01*
X109069333Y-113133143D01*
X109926476Y-112228381D02*
X110259809Y-113228381D01*
X110593143Y-112228381D01*
X111688381Y-113228381D02*
X111688381Y-112228381D01*
X112164571Y-112561714D02*
X112164571Y-113228381D01*
X112164571Y-112656952D02*
X112212190Y-112609333D01*
X112307428Y-112561714D01*
X112450286Y-112561714D01*
X112545524Y-112609333D01*
X112593143Y-112704571D01*
X112593143Y-113228381D01*
X108394762Y-102068381D02*
X108728095Y-103068381D01*
X109061429Y-102068381D01*
X109394762Y-103068381D02*
X109394762Y-102401714D01*
X109394762Y-102068381D02*
X109347143Y-102116000D01*
X109394762Y-102163619D01*
X109442381Y-102116000D01*
X109394762Y-102068381D01*
X109394762Y-102163619D01*
X110299524Y-103068381D02*
X110299524Y-102068381D01*
X110299524Y-103020762D02*
X110204286Y-103068381D01*
X110013809Y-103068381D01*
X109918571Y-103020762D01*
X109870952Y-102973143D01*
X109823333Y-102877905D01*
X109823333Y-102592190D01*
X109870952Y-102496952D01*
X109918571Y-102449333D01*
X110013809Y-102401714D01*
X110204286Y-102401714D01*
X110299524Y-102449333D01*
X110537619Y-103163619D02*
X111299524Y-103163619D01*
X111537619Y-103068381D02*
X111537619Y-102068381D01*
X112013809Y-102401714D02*
X112013809Y-103068381D01*
X112013809Y-102496952D02*
X112061428Y-102449333D01*
X112156666Y-102401714D01*
X112299524Y-102401714D01*
X112394762Y-102449333D01*
X112442381Y-102544571D01*
X112442381Y-103068381D01*
X107823333Y-93432381D02*
X108156666Y-94432381D01*
X108490000Y-93432381D01*
X108823333Y-94432381D02*
X108823333Y-93765714D01*
X108823333Y-93432381D02*
X108775714Y-93480000D01*
X108823333Y-93527619D01*
X108870952Y-93480000D01*
X108823333Y-93432381D01*
X108823333Y-93527619D01*
X109728095Y-94432381D02*
X109728095Y-93432381D01*
X109728095Y-94384762D02*
X109632857Y-94432381D01*
X109442380Y-94432381D01*
X109347142Y-94384762D01*
X109299523Y-94337143D01*
X109251904Y-94241905D01*
X109251904Y-93956190D01*
X109299523Y-93860952D01*
X109347142Y-93813333D01*
X109442380Y-93765714D01*
X109632857Y-93765714D01*
X109728095Y-93813333D01*
X109966190Y-94527619D02*
X110728095Y-94527619D01*
X111156666Y-93432381D02*
X111347143Y-93432381D01*
X111442381Y-93480000D01*
X111537619Y-93575238D01*
X111585238Y-93765714D01*
X111585238Y-94099048D01*
X111537619Y-94289524D01*
X111442381Y-94384762D01*
X111347143Y-94432381D01*
X111156666Y-94432381D01*
X111061428Y-94384762D01*
X110966190Y-94289524D01*
X110918571Y-94099048D01*
X110918571Y-93765714D01*
X110966190Y-93575238D01*
X111061428Y-93480000D01*
X111156666Y-93432381D01*
X112442381Y-93765714D02*
X112442381Y-94432381D01*
X112013809Y-93765714D02*
X112013809Y-94289524D01*
X112061428Y-94384762D01*
X112156666Y-94432381D01*
X112299524Y-94432381D01*
X112394762Y-94384762D01*
X112442381Y-94337143D01*
X112775714Y-93765714D02*
X113156666Y-93765714D01*
X112918571Y-93432381D02*
X112918571Y-94289524D01*
X112966190Y-94384762D01*
X113061428Y-94432381D01*
X113156666Y-94432381D01*
D13*
X131826000Y-104140000D02*
X142494000Y-104140000D01*
X131826000Y-104140000D02*
X131826000Y-91186000D01*
X121158000Y-104140000D02*
X131826000Y-104140000D01*
X121158000Y-114808000D02*
X121158000Y-104140000D01*
X114046000Y-91694000D02*
X114046000Y-114808000D01*
D14*
X126250000Y-94700000D02*
X126250000Y-102300000D01*
X126290000Y-94700000D02*
X126290000Y-102300000D01*
X126330000Y-94700000D02*
X126330000Y-102300000D01*
X126370000Y-94701000D02*
X126370000Y-102299000D01*
X126410000Y-94703000D02*
X126410000Y-102297000D01*
X126450000Y-94705000D02*
X126450000Y-102295000D01*
X126490000Y-94707000D02*
X126490000Y-102293000D01*
X126530000Y-94710000D02*
X126530000Y-97520000D01*
X126530000Y-99480000D02*
X126530000Y-102290000D01*
X126570000Y-94713000D02*
X126570000Y-97520000D01*
X126570000Y-99480000D02*
X126570000Y-102287000D01*
X126610000Y-94716000D02*
X126610000Y-97520000D01*
X126610000Y-99480000D02*
X126610000Y-102284000D01*
X126650000Y-94720000D02*
X126650000Y-97520000D01*
X126650000Y-99480000D02*
X126650000Y-102280000D01*
X126690000Y-94725000D02*
X126690000Y-97520000D01*
X126690000Y-99480000D02*
X126690000Y-102275000D01*
X126730000Y-94730000D02*
X126730000Y-97520000D01*
X126730000Y-99480000D02*
X126730000Y-102270000D01*
X126770000Y-94735000D02*
X126770000Y-97520000D01*
X126770000Y-99480000D02*
X126770000Y-102265000D01*
X126810000Y-94741000D02*
X126810000Y-97520000D01*
X126810000Y-99480000D02*
X126810000Y-102259000D01*
X126850000Y-94747000D02*
X126850000Y-97520000D01*
X126850000Y-99480000D02*
X126850000Y-102253000D01*
X126890000Y-94753000D02*
X126890000Y-97520000D01*
X126890000Y-99480000D02*
X126890000Y-102247000D01*
X126930000Y-94760000D02*
X126930000Y-97520000D01*
X126930000Y-99480000D02*
X126930000Y-102240000D01*
X126971000Y-94768000D02*
X126971000Y-97520000D01*
X126971000Y-99480000D02*
X126971000Y-102232000D01*
X127011000Y-94775000D02*
X127011000Y-97520000D01*
X127011000Y-99480000D02*
X127011000Y-102225000D01*
X127051000Y-94784000D02*
X127051000Y-97520000D01*
X127051000Y-99480000D02*
X127051000Y-102216000D01*
X127091000Y-94793000D02*
X127091000Y-97520000D01*
X127091000Y-99480000D02*
X127091000Y-102207000D01*
X127131000Y-94802000D02*
X127131000Y-97520000D01*
X127131000Y-99480000D02*
X127131000Y-102198000D01*
X127171000Y-94811000D02*
X127171000Y-97520000D01*
X127171000Y-99480000D02*
X127171000Y-102189000D01*
X127211000Y-94821000D02*
X127211000Y-97520000D01*
X127211000Y-99480000D02*
X127211000Y-102179000D01*
X127251000Y-94832000D02*
X127251000Y-97520000D01*
X127251000Y-99480000D02*
X127251000Y-102168000D01*
X127291000Y-94843000D02*
X127291000Y-97520000D01*
X127291000Y-99480000D02*
X127291000Y-102157000D01*
X127331000Y-94855000D02*
X127331000Y-97520000D01*
X127331000Y-99480000D02*
X127331000Y-102145000D01*
X127371000Y-94866000D02*
X127371000Y-97520000D01*
X127371000Y-99480000D02*
X127371000Y-102134000D01*
X127411000Y-94879000D02*
X127411000Y-97520000D01*
X127411000Y-99480000D02*
X127411000Y-102121000D01*
X127451000Y-94892000D02*
X127451000Y-97520000D01*
X127451000Y-99480000D02*
X127451000Y-102108000D01*
X127491000Y-94905000D02*
X127491000Y-97520000D01*
X127491000Y-99480000D02*
X127491000Y-102095000D01*
X127531000Y-94919000D02*
X127531000Y-97520000D01*
X127531000Y-99480000D02*
X127531000Y-102081000D01*
X127571000Y-94934000D02*
X127571000Y-97520000D01*
X127571000Y-99480000D02*
X127571000Y-102066000D01*
X127611000Y-94948000D02*
X127611000Y-97520000D01*
X127611000Y-99480000D02*
X127611000Y-102052000D01*
X127651000Y-94964000D02*
X127651000Y-97520000D01*
X127651000Y-99480000D02*
X127651000Y-102036000D01*
X127691000Y-94980000D02*
X127691000Y-97520000D01*
X127691000Y-99480000D02*
X127691000Y-102020000D01*
X127731000Y-94996000D02*
X127731000Y-97520000D01*
X127731000Y-99480000D02*
X127731000Y-102004000D01*
X127771000Y-95013000D02*
X127771000Y-97520000D01*
X127771000Y-99480000D02*
X127771000Y-101987000D01*
X127811000Y-95031000D02*
X127811000Y-97520000D01*
X127811000Y-99480000D02*
X127811000Y-101969000D01*
X127851000Y-95049000D02*
X127851000Y-97520000D01*
X127851000Y-99480000D02*
X127851000Y-101951000D01*
X127891000Y-95067000D02*
X127891000Y-97520000D01*
X127891000Y-99480000D02*
X127891000Y-101933000D01*
X127931000Y-95087000D02*
X127931000Y-97520000D01*
X127931000Y-99480000D02*
X127931000Y-101913000D01*
X127971000Y-95106000D02*
X127971000Y-97520000D01*
X127971000Y-99480000D02*
X127971000Y-101894000D01*
X128011000Y-95127000D02*
X128011000Y-97520000D01*
X128011000Y-99480000D02*
X128011000Y-101873000D01*
X128051000Y-95148000D02*
X128051000Y-97520000D01*
X128051000Y-99480000D02*
X128051000Y-101852000D01*
X128091000Y-95169000D02*
X128091000Y-97520000D01*
X128091000Y-99480000D02*
X128091000Y-101831000D01*
X128131000Y-95191000D02*
X128131000Y-97520000D01*
X128131000Y-99480000D02*
X128131000Y-101809000D01*
X128171000Y-95214000D02*
X128171000Y-97520000D01*
X128171000Y-99480000D02*
X128171000Y-101786000D01*
X128211000Y-95237000D02*
X128211000Y-97520000D01*
X128211000Y-99480000D02*
X128211000Y-101763000D01*
X128251000Y-95261000D02*
X128251000Y-97520000D01*
X128251000Y-99480000D02*
X128251000Y-101739000D01*
X128291000Y-95286000D02*
X128291000Y-97520000D01*
X128291000Y-99480000D02*
X128291000Y-101714000D01*
X128331000Y-95312000D02*
X128331000Y-97520000D01*
X128331000Y-99480000D02*
X128331000Y-101688000D01*
X128371000Y-95338000D02*
X128371000Y-97520000D01*
X128371000Y-99480000D02*
X128371000Y-101662000D01*
X128411000Y-95365000D02*
X128411000Y-97520000D01*
X128411000Y-99480000D02*
X128411000Y-101635000D01*
X128451000Y-95392000D02*
X128451000Y-97520000D01*
X128451000Y-99480000D02*
X128451000Y-101608000D01*
X128491000Y-95421000D02*
X128491000Y-101579000D01*
X128531000Y-95450000D02*
X128531000Y-101550000D01*
X128571000Y-95480000D02*
X128571000Y-101520000D01*
X128611000Y-95510000D02*
X128611000Y-101490000D01*
X128651000Y-95542000D02*
X128651000Y-101458000D01*
X128691000Y-95574000D02*
X128691000Y-101426000D01*
X128731000Y-95608000D02*
X128731000Y-101392000D01*
X128771000Y-95642000D02*
X128771000Y-101358000D01*
X128811000Y-95677000D02*
X128811000Y-101323000D01*
X128851000Y-95714000D02*
X128851000Y-101286000D01*
X128891000Y-95751000D02*
X128891000Y-101249000D01*
X128931000Y-95789000D02*
X128931000Y-101211000D01*
X128971000Y-95829000D02*
X128971000Y-101171000D01*
X129011000Y-95870000D02*
X129011000Y-101130000D01*
X129051000Y-95912000D02*
X129051000Y-101088000D01*
X129091000Y-95955000D02*
X129091000Y-101045000D01*
X129131000Y-96000000D02*
X129131000Y-101000000D01*
X129171000Y-96046000D02*
X129171000Y-100954000D01*
X129211000Y-96093000D02*
X129211000Y-100907000D01*
X129251000Y-96143000D02*
X129251000Y-100857000D01*
X129291000Y-96193000D02*
X129291000Y-100807000D01*
X129331000Y-96246000D02*
X129331000Y-100754000D01*
X129371000Y-96301000D02*
X129371000Y-100699000D01*
X129411000Y-96358000D02*
X129411000Y-100642000D01*
X129451000Y-96417000D02*
X129451000Y-100583000D01*
X129491000Y-96478000D02*
X129491000Y-100522000D01*
X129531000Y-96543000D02*
X129531000Y-100457000D01*
X129571000Y-96610000D02*
X129571000Y-100390000D01*
X129611000Y-96680000D02*
X129611000Y-100320000D01*
X129651000Y-96755000D02*
X129651000Y-100245000D01*
X129691000Y-96833000D02*
X129691000Y-100167000D01*
X129731000Y-96916000D02*
X129731000Y-100084000D01*
X129771000Y-97005000D02*
X129771000Y-99995000D01*
X129811000Y-97100000D02*
X129811000Y-99900000D01*
X129851000Y-97203000D02*
X129851000Y-99797000D01*
X129891000Y-97316000D02*
X129891000Y-99684000D01*
X129931000Y-97443000D02*
X129931000Y-99557000D01*
X129971000Y-97587000D02*
X129971000Y-99413000D01*
X130011000Y-97760000D02*
X130011000Y-99240000D01*
X130051000Y-97987000D02*
X130051000Y-99013000D01*
X122800000Y-98500000D02*
X124000000Y-98500000D01*
X123400000Y-97850000D02*
X123400000Y-99150000D01*
X130090000Y-98500000D02*
G75*
G03X130090000Y-98500000I-3840000J0D01*
G01*
X137250000Y-94700000D02*
X137250000Y-102300000D01*
X137290000Y-94700000D02*
X137290000Y-102300000D01*
X137330000Y-94700000D02*
X137330000Y-102300000D01*
X137370000Y-94701000D02*
X137370000Y-102299000D01*
X137410000Y-94703000D02*
X137410000Y-102297000D01*
X137450000Y-94705000D02*
X137450000Y-102295000D01*
X137490000Y-94707000D02*
X137490000Y-102293000D01*
X137530000Y-94710000D02*
X137530000Y-97520000D01*
X137530000Y-99480000D02*
X137530000Y-102290000D01*
X137570000Y-94713000D02*
X137570000Y-97520000D01*
X137570000Y-99480000D02*
X137570000Y-102287000D01*
X137610000Y-94716000D02*
X137610000Y-97520000D01*
X137610000Y-99480000D02*
X137610000Y-102284000D01*
X137650000Y-94720000D02*
X137650000Y-97520000D01*
X137650000Y-99480000D02*
X137650000Y-102280000D01*
X137690000Y-94725000D02*
X137690000Y-97520000D01*
X137690000Y-99480000D02*
X137690000Y-102275000D01*
X137730000Y-94730000D02*
X137730000Y-97520000D01*
X137730000Y-99480000D02*
X137730000Y-102270000D01*
X137770000Y-94735000D02*
X137770000Y-97520000D01*
X137770000Y-99480000D02*
X137770000Y-102265000D01*
X137810000Y-94741000D02*
X137810000Y-97520000D01*
X137810000Y-99480000D02*
X137810000Y-102259000D01*
X137850000Y-94747000D02*
X137850000Y-97520000D01*
X137850000Y-99480000D02*
X137850000Y-102253000D01*
X137890000Y-94753000D02*
X137890000Y-97520000D01*
X137890000Y-99480000D02*
X137890000Y-102247000D01*
X137930000Y-94760000D02*
X137930000Y-97520000D01*
X137930000Y-99480000D02*
X137930000Y-102240000D01*
X137971000Y-94768000D02*
X137971000Y-97520000D01*
X137971000Y-99480000D02*
X137971000Y-102232000D01*
X138011000Y-94775000D02*
X138011000Y-97520000D01*
X138011000Y-99480000D02*
X138011000Y-102225000D01*
X138051000Y-94784000D02*
X138051000Y-97520000D01*
X138051000Y-99480000D02*
X138051000Y-102216000D01*
X138091000Y-94793000D02*
X138091000Y-97520000D01*
X138091000Y-99480000D02*
X138091000Y-102207000D01*
X138131000Y-94802000D02*
X138131000Y-97520000D01*
X138131000Y-99480000D02*
X138131000Y-102198000D01*
X138171000Y-94811000D02*
X138171000Y-97520000D01*
X138171000Y-99480000D02*
X138171000Y-102189000D01*
X138211000Y-94821000D02*
X138211000Y-97520000D01*
X138211000Y-99480000D02*
X138211000Y-102179000D01*
X138251000Y-94832000D02*
X138251000Y-97520000D01*
X138251000Y-99480000D02*
X138251000Y-102168000D01*
X138291000Y-94843000D02*
X138291000Y-97520000D01*
X138291000Y-99480000D02*
X138291000Y-102157000D01*
X138331000Y-94855000D02*
X138331000Y-97520000D01*
X138331000Y-99480000D02*
X138331000Y-102145000D01*
X138371000Y-94866000D02*
X138371000Y-97520000D01*
X138371000Y-99480000D02*
X138371000Y-102134000D01*
X138411000Y-94879000D02*
X138411000Y-97520000D01*
X138411000Y-99480000D02*
X138411000Y-102121000D01*
X138451000Y-94892000D02*
X138451000Y-97520000D01*
X138451000Y-99480000D02*
X138451000Y-102108000D01*
X138491000Y-94905000D02*
X138491000Y-97520000D01*
X138491000Y-99480000D02*
X138491000Y-102095000D01*
X138531000Y-94919000D02*
X138531000Y-97520000D01*
X138531000Y-99480000D02*
X138531000Y-102081000D01*
X138571000Y-94934000D02*
X138571000Y-97520000D01*
X138571000Y-99480000D02*
X138571000Y-102066000D01*
X138611000Y-94948000D02*
X138611000Y-97520000D01*
X138611000Y-99480000D02*
X138611000Y-102052000D01*
X138651000Y-94964000D02*
X138651000Y-97520000D01*
X138651000Y-99480000D02*
X138651000Y-102036000D01*
X138691000Y-94980000D02*
X138691000Y-97520000D01*
X138691000Y-99480000D02*
X138691000Y-102020000D01*
X138731000Y-94996000D02*
X138731000Y-97520000D01*
X138731000Y-99480000D02*
X138731000Y-102004000D01*
X138771000Y-95013000D02*
X138771000Y-97520000D01*
X138771000Y-99480000D02*
X138771000Y-101987000D01*
X138811000Y-95031000D02*
X138811000Y-97520000D01*
X138811000Y-99480000D02*
X138811000Y-101969000D01*
X138851000Y-95049000D02*
X138851000Y-97520000D01*
X138851000Y-99480000D02*
X138851000Y-101951000D01*
X138891000Y-95067000D02*
X138891000Y-97520000D01*
X138891000Y-99480000D02*
X138891000Y-101933000D01*
X138931000Y-95087000D02*
X138931000Y-97520000D01*
X138931000Y-99480000D02*
X138931000Y-101913000D01*
X138971000Y-95106000D02*
X138971000Y-97520000D01*
X138971000Y-99480000D02*
X138971000Y-101894000D01*
X139011000Y-95127000D02*
X139011000Y-97520000D01*
X139011000Y-99480000D02*
X139011000Y-101873000D01*
X139051000Y-95148000D02*
X139051000Y-97520000D01*
X139051000Y-99480000D02*
X139051000Y-101852000D01*
X139091000Y-95169000D02*
X139091000Y-97520000D01*
X139091000Y-99480000D02*
X139091000Y-101831000D01*
X139131000Y-95191000D02*
X139131000Y-97520000D01*
X139131000Y-99480000D02*
X139131000Y-101809000D01*
X139171000Y-95214000D02*
X139171000Y-97520000D01*
X139171000Y-99480000D02*
X139171000Y-101786000D01*
X139211000Y-95237000D02*
X139211000Y-97520000D01*
X139211000Y-99480000D02*
X139211000Y-101763000D01*
X139251000Y-95261000D02*
X139251000Y-97520000D01*
X139251000Y-99480000D02*
X139251000Y-101739000D01*
X139291000Y-95286000D02*
X139291000Y-97520000D01*
X139291000Y-99480000D02*
X139291000Y-101714000D01*
X139331000Y-95312000D02*
X139331000Y-97520000D01*
X139331000Y-99480000D02*
X139331000Y-101688000D01*
X139371000Y-95338000D02*
X139371000Y-97520000D01*
X139371000Y-99480000D02*
X139371000Y-101662000D01*
X139411000Y-95365000D02*
X139411000Y-97520000D01*
X139411000Y-99480000D02*
X139411000Y-101635000D01*
X139451000Y-95392000D02*
X139451000Y-97520000D01*
X139451000Y-99480000D02*
X139451000Y-101608000D01*
X139491000Y-95421000D02*
X139491000Y-101579000D01*
X139531000Y-95450000D02*
X139531000Y-101550000D01*
X139571000Y-95480000D02*
X139571000Y-101520000D01*
X139611000Y-95510000D02*
X139611000Y-101490000D01*
X139651000Y-95542000D02*
X139651000Y-101458000D01*
X139691000Y-95574000D02*
X139691000Y-101426000D01*
X139731000Y-95608000D02*
X139731000Y-101392000D01*
X139771000Y-95642000D02*
X139771000Y-101358000D01*
X139811000Y-95677000D02*
X139811000Y-101323000D01*
X139851000Y-95714000D02*
X139851000Y-101286000D01*
X139891000Y-95751000D02*
X139891000Y-101249000D01*
X139931000Y-95789000D02*
X139931000Y-101211000D01*
X139971000Y-95829000D02*
X139971000Y-101171000D01*
X140011000Y-95870000D02*
X140011000Y-101130000D01*
X140051000Y-95912000D02*
X140051000Y-101088000D01*
X140091000Y-95955000D02*
X140091000Y-101045000D01*
X140131000Y-96000000D02*
X140131000Y-101000000D01*
X140171000Y-96046000D02*
X140171000Y-100954000D01*
X140211000Y-96093000D02*
X140211000Y-100907000D01*
X140251000Y-96143000D02*
X140251000Y-100857000D01*
X140291000Y-96193000D02*
X140291000Y-100807000D01*
X140331000Y-96246000D02*
X140331000Y-100754000D01*
X140371000Y-96301000D02*
X140371000Y-100699000D01*
X140411000Y-96358000D02*
X140411000Y-100642000D01*
X140451000Y-96417000D02*
X140451000Y-100583000D01*
X140491000Y-96478000D02*
X140491000Y-100522000D01*
X140531000Y-96543000D02*
X140531000Y-100457000D01*
X140571000Y-96610000D02*
X140571000Y-100390000D01*
X140611000Y-96680000D02*
X140611000Y-100320000D01*
X140651000Y-96755000D02*
X140651000Y-100245000D01*
X140691000Y-96833000D02*
X140691000Y-100167000D01*
X140731000Y-96916000D02*
X140731000Y-100084000D01*
X140771000Y-97005000D02*
X140771000Y-99995000D01*
X140811000Y-97100000D02*
X140811000Y-99900000D01*
X140851000Y-97203000D02*
X140851000Y-99797000D01*
X140891000Y-97316000D02*
X140891000Y-99684000D01*
X140931000Y-97443000D02*
X140931000Y-99557000D01*
X140971000Y-97587000D02*
X140971000Y-99413000D01*
X141011000Y-97760000D02*
X141011000Y-99240000D01*
X141051000Y-97987000D02*
X141051000Y-99013000D01*
X133800000Y-98500000D02*
X135000000Y-98500000D01*
X134400000Y-97850000D02*
X134400000Y-99150000D01*
X141090000Y-98500000D02*
G75*
G03X141090000Y-98500000I-3840000J0D01*
G01*
X109160000Y-111820000D02*
X111820000Y-111820000D01*
X109160000Y-111760000D02*
X109160000Y-111820000D01*
X111820000Y-111760000D02*
X111820000Y-111820000D01*
X109160000Y-111760000D02*
X111820000Y-111760000D01*
X109160000Y-110490000D02*
X109160000Y-109160000D01*
X109160000Y-109160000D02*
X110490000Y-109160000D01*
X109160000Y-106740000D02*
X111820000Y-106740000D01*
X109160000Y-106680000D02*
X109160000Y-106740000D01*
X111820000Y-106680000D02*
X111820000Y-106740000D01*
X109160000Y-106680000D02*
X111820000Y-106680000D01*
X109160000Y-105410000D02*
X109160000Y-104080000D01*
X109160000Y-104080000D02*
X110490000Y-104080000D01*
X109160000Y-97850000D02*
X111820000Y-97850000D01*
X109160000Y-97790000D02*
X109160000Y-97850000D01*
X111820000Y-97790000D02*
X111820000Y-97850000D01*
X109160000Y-97790000D02*
X111820000Y-97790000D01*
X109160000Y-96520000D02*
X109160000Y-95190000D01*
X109160000Y-95190000D02*
X110490000Y-95190000D01*
X119350000Y-98530000D02*
X119350000Y-94930000D01*
X119338478Y-98568478D02*
G75*
G02X114900000Y-96730000I-1838478J1838478D01*
G01*
X119338478Y-94891522D02*
G75*
G03X114900000Y-96730000I-1838478J-1838478D01*
G01*
X136150000Y-108970000D02*
X136150000Y-112570000D01*
X136161522Y-108931522D02*
G75*
G02X140600000Y-110770000I1838478J-1838478D01*
G01*
X136161522Y-112608478D02*
G75*
G03X140600000Y-110770000I1838478J1838478D01*
G01*
X116190000Y-110130000D02*
X118810000Y-110130000D01*
X118810000Y-110130000D02*
X118810000Y-103710000D01*
X118810000Y-103710000D02*
X116190000Y-103710000D01*
X116190000Y-103710000D02*
X116190000Y-110130000D01*
X117500000Y-111020000D02*
X117500000Y-110130000D01*
X117500000Y-102820000D02*
X117500000Y-103710000D01*
X132130000Y-110810000D02*
X132130000Y-108190000D01*
X132130000Y-108190000D02*
X125710000Y-108190000D01*
X125710000Y-108190000D02*
X125710000Y-110810000D01*
X125710000Y-110810000D02*
X132130000Y-110810000D01*
X133020000Y-109500000D02*
X132130000Y-109500000D01*
X124820000Y-109500000D02*
X125710000Y-109500000D01*
D15*
G36*
X128285875Y-112695591D02*
X128285433Y-112830231D01*
X128284173Y-112953796D01*
X128282191Y-113062578D01*
X128279586Y-113152870D01*
X128276454Y-113220966D01*
X128272893Y-113263158D01*
X128270682Y-113274268D01*
X128238058Y-113317841D01*
X128181881Y-113348409D01*
X128108814Y-113362719D01*
X128088225Y-113363375D01*
X128016000Y-113363375D01*
X128016000Y-113300433D01*
X128021373Y-113252387D01*
X128039935Y-113225405D01*
X128047750Y-113220500D01*
X128056406Y-113214809D01*
X128063327Y-113205801D01*
X128068708Y-113190181D01*
X128072741Y-113164652D01*
X128075621Y-113125917D01*
X128077541Y-113070680D01*
X128078695Y-112995645D01*
X128079276Y-112897515D01*
X128079479Y-112772994D01*
X128079500Y-112680191D01*
X128079500Y-112156875D01*
X128285875Y-112156875D01*
X128285875Y-112695591D01*
X128285875Y-112695591D01*
G37*
X128285875Y-112695591D02*
X128285433Y-112830231D01*
X128284173Y-112953796D01*
X128282191Y-113062578D01*
X128279586Y-113152870D01*
X128276454Y-113220966D01*
X128272893Y-113263158D01*
X128270682Y-113274268D01*
X128238058Y-113317841D01*
X128181881Y-113348409D01*
X128108814Y-113362719D01*
X128088225Y-113363375D01*
X128016000Y-113363375D01*
X128016000Y-113300433D01*
X128021373Y-113252387D01*
X128039935Y-113225405D01*
X128047750Y-113220500D01*
X128056406Y-113214809D01*
X128063327Y-113205801D01*
X128068708Y-113190181D01*
X128072741Y-113164652D01*
X128075621Y-113125917D01*
X128077541Y-113070680D01*
X128078695Y-112995645D01*
X128079276Y-112897515D01*
X128079479Y-112772994D01*
X128079500Y-112680191D01*
X128079500Y-112156875D01*
X128285875Y-112156875D01*
X128285875Y-112695591D01*
G36*
X127807700Y-112156055D02*
X127882788Y-112195141D01*
X127924849Y-112234584D01*
X127950096Y-112268841D01*
X127969119Y-112306831D01*
X127982748Y-112353477D01*
X127991810Y-112413697D01*
X127997133Y-112492413D01*
X127999546Y-112594544D01*
X127999947Y-112680750D01*
X127999018Y-112776097D01*
X127996444Y-112864497D01*
X127992549Y-112939328D01*
X127987653Y-112993967D01*
X127983551Y-113017600D01*
X127950524Y-113090123D01*
X127898372Y-113153328D01*
X127836167Y-113196456D01*
X127830719Y-113198846D01*
X127768928Y-113214332D01*
X127693369Y-113219086D01*
X127618934Y-113213155D01*
X127563562Y-113197999D01*
X127503448Y-113158699D01*
X127449461Y-113102108D01*
X127413828Y-113041053D01*
X127413759Y-113040872D01*
X127408060Y-113009605D01*
X127403312Y-112951176D01*
X127399727Y-112870165D01*
X127397516Y-112771153D01*
X127396900Y-112677991D01*
X127603250Y-112677991D01*
X127603577Y-112787153D01*
X127604788Y-112868992D01*
X127607226Y-112927933D01*
X127611233Y-112968398D01*
X127617153Y-112994811D01*
X127625329Y-113011596D01*
X127629522Y-113016843D01*
X127670360Y-113041690D01*
X127717891Y-113043168D01*
X127759342Y-113021850D01*
X127769037Y-113010592D01*
X127778085Y-112992297D01*
X127784712Y-112964029D01*
X127789255Y-112921298D01*
X127792049Y-112859612D01*
X127793432Y-112774480D01*
X127793750Y-112680750D01*
X127793298Y-112572257D01*
X127791721Y-112491013D01*
X127788680Y-112432527D01*
X127783839Y-112392306D01*
X127776863Y-112365860D01*
X127769037Y-112350907D01*
X127731838Y-112322291D01*
X127684346Y-112317375D01*
X127638227Y-112336926D01*
X127632281Y-112341897D01*
X127622214Y-112353609D01*
X127614765Y-112370904D01*
X127609547Y-112398264D01*
X127606174Y-112440167D01*
X127604259Y-112501092D01*
X127603415Y-112585518D01*
X127603250Y-112677991D01*
X127396900Y-112677991D01*
X127396875Y-112674275D01*
X127397057Y-112564550D01*
X127397916Y-112481561D01*
X127399921Y-112420295D01*
X127403540Y-112375737D01*
X127409243Y-112342876D01*
X127417497Y-112316697D01*
X127428771Y-112292187D01*
X127433430Y-112283240D01*
X127485072Y-112217070D01*
X127555237Y-112170582D01*
X127637008Y-112144461D01*
X127723468Y-112139390D01*
X127807700Y-112156055D01*
X127807700Y-112156055D01*
G37*
X127807700Y-112156055D02*
X127882788Y-112195141D01*
X127924849Y-112234584D01*
X127950096Y-112268841D01*
X127969119Y-112306831D01*
X127982748Y-112353477D01*
X127991810Y-112413697D01*
X127997133Y-112492413D01*
X127999546Y-112594544D01*
X127999947Y-112680750D01*
X127999018Y-112776097D01*
X127996444Y-112864497D01*
X127992549Y-112939328D01*
X127987653Y-112993967D01*
X127983551Y-113017600D01*
X127950524Y-113090123D01*
X127898372Y-113153328D01*
X127836167Y-113196456D01*
X127830719Y-113198846D01*
X127768928Y-113214332D01*
X127693369Y-113219086D01*
X127618934Y-113213155D01*
X127563562Y-113197999D01*
X127503448Y-113158699D01*
X127449461Y-113102108D01*
X127413828Y-113041053D01*
X127413759Y-113040872D01*
X127408060Y-113009605D01*
X127403312Y-112951176D01*
X127399727Y-112870165D01*
X127397516Y-112771153D01*
X127396900Y-112677991D01*
X127603250Y-112677991D01*
X127603577Y-112787153D01*
X127604788Y-112868992D01*
X127607226Y-112927933D01*
X127611233Y-112968398D01*
X127617153Y-112994811D01*
X127625329Y-113011596D01*
X127629522Y-113016843D01*
X127670360Y-113041690D01*
X127717891Y-113043168D01*
X127759342Y-113021850D01*
X127769037Y-113010592D01*
X127778085Y-112992297D01*
X127784712Y-112964029D01*
X127789255Y-112921298D01*
X127792049Y-112859612D01*
X127793432Y-112774480D01*
X127793750Y-112680750D01*
X127793298Y-112572257D01*
X127791721Y-112491013D01*
X127788680Y-112432527D01*
X127783839Y-112392306D01*
X127776863Y-112365860D01*
X127769037Y-112350907D01*
X127731838Y-112322291D01*
X127684346Y-112317375D01*
X127638227Y-112336926D01*
X127632281Y-112341897D01*
X127622214Y-112353609D01*
X127614765Y-112370904D01*
X127609547Y-112398264D01*
X127606174Y-112440167D01*
X127604259Y-112501092D01*
X127603415Y-112585518D01*
X127603250Y-112677991D01*
X127396900Y-112677991D01*
X127396875Y-112674275D01*
X127397057Y-112564550D01*
X127397916Y-112481561D01*
X127399921Y-112420295D01*
X127403540Y-112375737D01*
X127409243Y-112342876D01*
X127417497Y-112316697D01*
X127428771Y-112292187D01*
X127433430Y-112283240D01*
X127485072Y-112217070D01*
X127555237Y-112170582D01*
X127637008Y-112144461D01*
X127723468Y-112139390D01*
X127807700Y-112156055D01*
G36*
X128784793Y-112154763D02*
X128847222Y-112179503D01*
X128899517Y-112223576D01*
X128927831Y-112258175D01*
X128942001Y-112281114D01*
X128951854Y-112309644D01*
X128958405Y-112350205D01*
X128962669Y-112409239D01*
X128965661Y-112493186D01*
X128965825Y-112499288D01*
X128971089Y-112696625D01*
X128587500Y-112696625D01*
X128587500Y-112835967D01*
X128590782Y-112924791D01*
X128601794Y-112986281D01*
X128622279Y-113024283D01*
X128653985Y-113042644D01*
X128682750Y-113045875D01*
X128729405Y-113033792D01*
X128760103Y-112996649D01*
X128775631Y-112933096D01*
X128778000Y-112883592D01*
X128778000Y-112791875D01*
X128971758Y-112791875D01*
X128966160Y-112925660D01*
X128959151Y-113010335D01*
X128943762Y-113072372D01*
X128916028Y-113120573D01*
X128871983Y-113163744D01*
X128851917Y-113179341D01*
X128797617Y-113204358D01*
X128725293Y-113217245D01*
X128646413Y-113217630D01*
X128572446Y-113205143D01*
X128531937Y-113189695D01*
X128481085Y-113154459D01*
X128435997Y-113108639D01*
X128428750Y-113098774D01*
X128415676Y-113078550D01*
X128405771Y-113058432D01*
X128398518Y-113033777D01*
X128393404Y-112999944D01*
X128389914Y-112952293D01*
X128387533Y-112886182D01*
X128385746Y-112796969D01*
X128384287Y-112697840D01*
X128382834Y-112584796D01*
X128382298Y-112498705D01*
X128382747Y-112460960D01*
X128587500Y-112460960D01*
X128587500Y-112553750D01*
X128782409Y-112553750D01*
X128773718Y-112457906D01*
X128763328Y-112386950D01*
X128745803Y-112342755D01*
X128718243Y-112320618D01*
X128686024Y-112315625D01*
X128636800Y-112325676D01*
X128605369Y-112357640D01*
X128589893Y-112414228D01*
X128587500Y-112460960D01*
X128382747Y-112460960D01*
X128383059Y-112434771D01*
X128385494Y-112388201D01*
X128389981Y-112354202D01*
X128396899Y-112327979D01*
X128406625Y-112304739D01*
X128416874Y-112284712D01*
X128469537Y-112213427D01*
X128539596Y-112167313D01*
X128628754Y-112145531D01*
X128702086Y-112144238D01*
X128784793Y-112154763D01*
X128784793Y-112154763D01*
G37*
X128784793Y-112154763D02*
X128847222Y-112179503D01*
X128899517Y-112223576D01*
X128927831Y-112258175D01*
X128942001Y-112281114D01*
X128951854Y-112309644D01*
X128958405Y-112350205D01*
X128962669Y-112409239D01*
X128965661Y-112493186D01*
X128965825Y-112499288D01*
X128971089Y-112696625D01*
X128587500Y-112696625D01*
X128587500Y-112835967D01*
X128590782Y-112924791D01*
X128601794Y-112986281D01*
X128622279Y-113024283D01*
X128653985Y-113042644D01*
X128682750Y-113045875D01*
X128729405Y-113033792D01*
X128760103Y-112996649D01*
X128775631Y-112933096D01*
X128778000Y-112883592D01*
X128778000Y-112791875D01*
X128971758Y-112791875D01*
X128966160Y-112925660D01*
X128959151Y-113010335D01*
X128943762Y-113072372D01*
X128916028Y-113120573D01*
X128871983Y-113163744D01*
X128851917Y-113179341D01*
X128797617Y-113204358D01*
X128725293Y-113217245D01*
X128646413Y-113217630D01*
X128572446Y-113205143D01*
X128531937Y-113189695D01*
X128481085Y-113154459D01*
X128435997Y-113108639D01*
X128428750Y-113098774D01*
X128415676Y-113078550D01*
X128405771Y-113058432D01*
X128398518Y-113033777D01*
X128393404Y-112999944D01*
X128389914Y-112952293D01*
X128387533Y-112886182D01*
X128385746Y-112796969D01*
X128384287Y-112697840D01*
X128382834Y-112584796D01*
X128382298Y-112498705D01*
X128382747Y-112460960D01*
X128587500Y-112460960D01*
X128587500Y-112553750D01*
X128782409Y-112553750D01*
X128773718Y-112457906D01*
X128763328Y-112386950D01*
X128745803Y-112342755D01*
X128718243Y-112320618D01*
X128686024Y-112315625D01*
X128636800Y-112325676D01*
X128605369Y-112357640D01*
X128589893Y-112414228D01*
X128587500Y-112460960D01*
X128382747Y-112460960D01*
X128383059Y-112434771D01*
X128385494Y-112388201D01*
X128389981Y-112354202D01*
X128396899Y-112327979D01*
X128406625Y-112304739D01*
X128416874Y-112284712D01*
X128469537Y-112213427D01*
X128539596Y-112167313D01*
X128628754Y-112145531D01*
X128702086Y-112144238D01*
X128784793Y-112154763D01*
G36*
X129466598Y-112159750D02*
X129540470Y-112195550D01*
X129591937Y-112253142D01*
X129622482Y-112334030D01*
X129632582Y-112411382D01*
X129638832Y-112522000D01*
X129428875Y-112522000D01*
X129428875Y-112437862D01*
X129424070Y-112373871D01*
X129407526Y-112335585D01*
X129376051Y-112318128D01*
X129348785Y-112315625D01*
X129318233Y-112317780D01*
X129295040Y-112326781D01*
X129278205Y-112346432D01*
X129266725Y-112380536D01*
X129259598Y-112432897D01*
X129255822Y-112507318D01*
X129254396Y-112607603D01*
X129254250Y-112674498D01*
X129254894Y-112792972D01*
X129257462Y-112883423D01*
X129262905Y-112949563D01*
X129272176Y-112995104D01*
X129286227Y-113023758D01*
X129306010Y-113039237D01*
X129332476Y-113045253D01*
X129349500Y-113045875D01*
X129396155Y-113033792D01*
X129426853Y-112996649D01*
X129442381Y-112933096D01*
X129444750Y-112883592D01*
X129444750Y-112791875D01*
X129638508Y-112791875D01*
X129632910Y-112925660D01*
X129625901Y-113010335D01*
X129610512Y-113072372D01*
X129582778Y-113120573D01*
X129538733Y-113163744D01*
X129518667Y-113179341D01*
X129464367Y-113204358D01*
X129392043Y-113217245D01*
X129313163Y-113217630D01*
X129239196Y-113205143D01*
X129198687Y-113189695D01*
X129147835Y-113154459D01*
X129102747Y-113108639D01*
X129095500Y-113098774D01*
X129082426Y-113078550D01*
X129072521Y-113058432D01*
X129065268Y-113033777D01*
X129060154Y-112999944D01*
X129056664Y-112952293D01*
X129054283Y-112886182D01*
X129052496Y-112796969D01*
X129051037Y-112697840D01*
X129049584Y-112584796D01*
X129049048Y-112498705D01*
X129049809Y-112434771D01*
X129052244Y-112388201D01*
X129056731Y-112354202D01*
X129063649Y-112327979D01*
X129073375Y-112304739D01*
X129083624Y-112284712D01*
X129136287Y-112213427D01*
X129206346Y-112167313D01*
X129295504Y-112145531D01*
X129368836Y-112144238D01*
X129466598Y-112159750D01*
X129466598Y-112159750D01*
G37*
X129466598Y-112159750D02*
X129540470Y-112195550D01*
X129591937Y-112253142D01*
X129622482Y-112334030D01*
X129632582Y-112411382D01*
X129638832Y-112522000D01*
X129428875Y-112522000D01*
X129428875Y-112437862D01*
X129424070Y-112373871D01*
X129407526Y-112335585D01*
X129376051Y-112318128D01*
X129348785Y-112315625D01*
X129318233Y-112317780D01*
X129295040Y-112326781D01*
X129278205Y-112346432D01*
X129266725Y-112380536D01*
X129259598Y-112432897D01*
X129255822Y-112507318D01*
X129254396Y-112607603D01*
X129254250Y-112674498D01*
X129254894Y-112792972D01*
X129257462Y-112883423D01*
X129262905Y-112949563D01*
X129272176Y-112995104D01*
X129286227Y-113023758D01*
X129306010Y-113039237D01*
X129332476Y-113045253D01*
X129349500Y-113045875D01*
X129396155Y-113033792D01*
X129426853Y-112996649D01*
X129442381Y-112933096D01*
X129444750Y-112883592D01*
X129444750Y-112791875D01*
X129638508Y-112791875D01*
X129632910Y-112925660D01*
X129625901Y-113010335D01*
X129610512Y-113072372D01*
X129582778Y-113120573D01*
X129538733Y-113163744D01*
X129518667Y-113179341D01*
X129464367Y-113204358D01*
X129392043Y-113217245D01*
X129313163Y-113217630D01*
X129239196Y-113205143D01*
X129198687Y-113189695D01*
X129147835Y-113154459D01*
X129102747Y-113108639D01*
X129095500Y-113098774D01*
X129082426Y-113078550D01*
X129072521Y-113058432D01*
X129065268Y-113033777D01*
X129060154Y-112999944D01*
X129056664Y-112952293D01*
X129054283Y-112886182D01*
X129052496Y-112796969D01*
X129051037Y-112697840D01*
X129049584Y-112584796D01*
X129049048Y-112498705D01*
X129049809Y-112434771D01*
X129052244Y-112388201D01*
X129056731Y-112354202D01*
X129063649Y-112327979D01*
X129073375Y-112304739D01*
X129083624Y-112284712D01*
X129136287Y-112213427D01*
X129206346Y-112167313D01*
X129295504Y-112145531D01*
X129368836Y-112144238D01*
X129466598Y-112159750D01*
G36*
X132879723Y-112159750D02*
X132953595Y-112195550D01*
X133005062Y-112253142D01*
X133035607Y-112334030D01*
X133045707Y-112411382D01*
X133051957Y-112522000D01*
X132842000Y-112522000D01*
X132842000Y-112437862D01*
X132837195Y-112373871D01*
X132820651Y-112335585D01*
X132789176Y-112318128D01*
X132761910Y-112315625D01*
X132731358Y-112317780D01*
X132708165Y-112326781D01*
X132691330Y-112346432D01*
X132679850Y-112380536D01*
X132672723Y-112432897D01*
X132668947Y-112507318D01*
X132667521Y-112607603D01*
X132667375Y-112674498D01*
X132668019Y-112792972D01*
X132670587Y-112883423D01*
X132676030Y-112949563D01*
X132685301Y-112995104D01*
X132699352Y-113023758D01*
X132719135Y-113039237D01*
X132745601Y-113045253D01*
X132762625Y-113045875D01*
X132809280Y-113033792D01*
X132839978Y-112996649D01*
X132855506Y-112933096D01*
X132857875Y-112883592D01*
X132857875Y-112791875D01*
X133051633Y-112791875D01*
X133046035Y-112925660D01*
X133039026Y-113010335D01*
X133023637Y-113072372D01*
X132995903Y-113120573D01*
X132951858Y-113163744D01*
X132931792Y-113179341D01*
X132877492Y-113204358D01*
X132805168Y-113217245D01*
X132726288Y-113217630D01*
X132652321Y-113205143D01*
X132611812Y-113189695D01*
X132560960Y-113154459D01*
X132515872Y-113108639D01*
X132508625Y-113098774D01*
X132495551Y-113078550D01*
X132485646Y-113058432D01*
X132478393Y-113033777D01*
X132473279Y-112999944D01*
X132469789Y-112952293D01*
X132467408Y-112886182D01*
X132465621Y-112796969D01*
X132464162Y-112697840D01*
X132462709Y-112584796D01*
X132462173Y-112498705D01*
X132462934Y-112434771D01*
X132465369Y-112388201D01*
X132469856Y-112354202D01*
X132476774Y-112327979D01*
X132486500Y-112304739D01*
X132496749Y-112284712D01*
X132549412Y-112213427D01*
X132619471Y-112167313D01*
X132708629Y-112145531D01*
X132781961Y-112144238D01*
X132879723Y-112159750D01*
X132879723Y-112159750D01*
G37*
X132879723Y-112159750D02*
X132953595Y-112195550D01*
X133005062Y-112253142D01*
X133035607Y-112334030D01*
X133045707Y-112411382D01*
X133051957Y-112522000D01*
X132842000Y-112522000D01*
X132842000Y-112437862D01*
X132837195Y-112373871D01*
X132820651Y-112335585D01*
X132789176Y-112318128D01*
X132761910Y-112315625D01*
X132731358Y-112317780D01*
X132708165Y-112326781D01*
X132691330Y-112346432D01*
X132679850Y-112380536D01*
X132672723Y-112432897D01*
X132668947Y-112507318D01*
X132667521Y-112607603D01*
X132667375Y-112674498D01*
X132668019Y-112792972D01*
X132670587Y-112883423D01*
X132676030Y-112949563D01*
X132685301Y-112995104D01*
X132699352Y-113023758D01*
X132719135Y-113039237D01*
X132745601Y-113045253D01*
X132762625Y-113045875D01*
X132809280Y-113033792D01*
X132839978Y-112996649D01*
X132855506Y-112933096D01*
X132857875Y-112883592D01*
X132857875Y-112791875D01*
X133051633Y-112791875D01*
X133046035Y-112925660D01*
X133039026Y-113010335D01*
X133023637Y-113072372D01*
X132995903Y-113120573D01*
X132951858Y-113163744D01*
X132931792Y-113179341D01*
X132877492Y-113204358D01*
X132805168Y-113217245D01*
X132726288Y-113217630D01*
X132652321Y-113205143D01*
X132611812Y-113189695D01*
X132560960Y-113154459D01*
X132515872Y-113108639D01*
X132508625Y-113098774D01*
X132495551Y-113078550D01*
X132485646Y-113058432D01*
X132478393Y-113033777D01*
X132473279Y-112999944D01*
X132469789Y-112952293D01*
X132467408Y-112886182D01*
X132465621Y-112796969D01*
X132464162Y-112697840D01*
X132462709Y-112584796D01*
X132462173Y-112498705D01*
X132462934Y-112434771D01*
X132465369Y-112388201D01*
X132469856Y-112354202D01*
X132476774Y-112327979D01*
X132486500Y-112304739D01*
X132496749Y-112284712D01*
X132549412Y-112213427D01*
X132619471Y-112167313D01*
X132708629Y-112145531D01*
X132781961Y-112144238D01*
X132879723Y-112159750D01*
G36*
X133506825Y-112156055D02*
X133581913Y-112195141D01*
X133623974Y-112234584D01*
X133649221Y-112268841D01*
X133668244Y-112306831D01*
X133681873Y-112353477D01*
X133690935Y-112413697D01*
X133696258Y-112492413D01*
X133698671Y-112594544D01*
X133699072Y-112680750D01*
X133698143Y-112776097D01*
X133695569Y-112864497D01*
X133691674Y-112939328D01*
X133686778Y-112993967D01*
X133682676Y-113017600D01*
X133649649Y-113090123D01*
X133597497Y-113153328D01*
X133535292Y-113196456D01*
X133529844Y-113198846D01*
X133468053Y-113214332D01*
X133392494Y-113219086D01*
X133318059Y-113213155D01*
X133262687Y-113197999D01*
X133202573Y-113158699D01*
X133148586Y-113102108D01*
X133112953Y-113041053D01*
X133112884Y-113040872D01*
X133107185Y-113009605D01*
X133102437Y-112951176D01*
X133098852Y-112870165D01*
X133096641Y-112771153D01*
X133096025Y-112677991D01*
X133302375Y-112677991D01*
X133302702Y-112787153D01*
X133303913Y-112868992D01*
X133306351Y-112927933D01*
X133310358Y-112968398D01*
X133316278Y-112994811D01*
X133324454Y-113011596D01*
X133328647Y-113016843D01*
X133369485Y-113041690D01*
X133417016Y-113043168D01*
X133458467Y-113021850D01*
X133468162Y-113010592D01*
X133477210Y-112992297D01*
X133483837Y-112964029D01*
X133488380Y-112921298D01*
X133491174Y-112859612D01*
X133492557Y-112774480D01*
X133492875Y-112680750D01*
X133492423Y-112572257D01*
X133490846Y-112491013D01*
X133487805Y-112432527D01*
X133482964Y-112392306D01*
X133475988Y-112365860D01*
X133468162Y-112350907D01*
X133430963Y-112322291D01*
X133383471Y-112317375D01*
X133337352Y-112336926D01*
X133331406Y-112341897D01*
X133321339Y-112353609D01*
X133313890Y-112370904D01*
X133308672Y-112398264D01*
X133305299Y-112440167D01*
X133303384Y-112501092D01*
X133302540Y-112585518D01*
X133302375Y-112677991D01*
X133096025Y-112677991D01*
X133096000Y-112674275D01*
X133096182Y-112564550D01*
X133097041Y-112481561D01*
X133099046Y-112420295D01*
X133102665Y-112375737D01*
X133108368Y-112342876D01*
X133116622Y-112316697D01*
X133127896Y-112292187D01*
X133132555Y-112283240D01*
X133184197Y-112217070D01*
X133254362Y-112170582D01*
X133336133Y-112144461D01*
X133422593Y-112139390D01*
X133506825Y-112156055D01*
X133506825Y-112156055D01*
G37*
X133506825Y-112156055D02*
X133581913Y-112195141D01*
X133623974Y-112234584D01*
X133649221Y-112268841D01*
X133668244Y-112306831D01*
X133681873Y-112353477D01*
X133690935Y-112413697D01*
X133696258Y-112492413D01*
X133698671Y-112594544D01*
X133699072Y-112680750D01*
X133698143Y-112776097D01*
X133695569Y-112864497D01*
X133691674Y-112939328D01*
X133686778Y-112993967D01*
X133682676Y-113017600D01*
X133649649Y-113090123D01*
X133597497Y-113153328D01*
X133535292Y-113196456D01*
X133529844Y-113198846D01*
X133468053Y-113214332D01*
X133392494Y-113219086D01*
X133318059Y-113213155D01*
X133262687Y-113197999D01*
X133202573Y-113158699D01*
X133148586Y-113102108D01*
X133112953Y-113041053D01*
X133112884Y-113040872D01*
X133107185Y-113009605D01*
X133102437Y-112951176D01*
X133098852Y-112870165D01*
X133096641Y-112771153D01*
X133096025Y-112677991D01*
X133302375Y-112677991D01*
X133302702Y-112787153D01*
X133303913Y-112868992D01*
X133306351Y-112927933D01*
X133310358Y-112968398D01*
X133316278Y-112994811D01*
X133324454Y-113011596D01*
X133328647Y-113016843D01*
X133369485Y-113041690D01*
X133417016Y-113043168D01*
X133458467Y-113021850D01*
X133468162Y-113010592D01*
X133477210Y-112992297D01*
X133483837Y-112964029D01*
X133488380Y-112921298D01*
X133491174Y-112859612D01*
X133492557Y-112774480D01*
X133492875Y-112680750D01*
X133492423Y-112572257D01*
X133490846Y-112491013D01*
X133487805Y-112432527D01*
X133482964Y-112392306D01*
X133475988Y-112365860D01*
X133468162Y-112350907D01*
X133430963Y-112322291D01*
X133383471Y-112317375D01*
X133337352Y-112336926D01*
X133331406Y-112341897D01*
X133321339Y-112353609D01*
X133313890Y-112370904D01*
X133308672Y-112398264D01*
X133305299Y-112440167D01*
X133303384Y-112501092D01*
X133302540Y-112585518D01*
X133302375Y-112677991D01*
X133096025Y-112677991D01*
X133096000Y-112674275D01*
X133096182Y-112564550D01*
X133097041Y-112481561D01*
X133099046Y-112420295D01*
X133102665Y-112375737D01*
X133108368Y-112342876D01*
X133116622Y-112316697D01*
X133127896Y-112292187D01*
X133132555Y-112283240D01*
X133184197Y-112217070D01*
X133254362Y-112170582D01*
X133336133Y-112144461D01*
X133422593Y-112139390D01*
X133506825Y-112156055D01*
G36*
X123450890Y-112156864D02*
X123471088Y-112162706D01*
X123485778Y-112177651D01*
X123496658Y-112205603D01*
X123505428Y-112250466D01*
X123513787Y-112316144D01*
X123523433Y-112406540D01*
X123532249Y-112490250D01*
X123541496Y-112574764D01*
X123549811Y-112647292D01*
X123556536Y-112702358D01*
X123561012Y-112734485D01*
X123562317Y-112740449D01*
X123565941Y-112727026D01*
X123573653Y-112687236D01*
X123584557Y-112626070D01*
X123597759Y-112548518D01*
X123609295Y-112478511D01*
X123626747Y-112370295D01*
X123640166Y-112289376D01*
X123651214Y-112231818D01*
X123661552Y-112193683D01*
X123672844Y-112171035D01*
X123686750Y-112159935D01*
X123704933Y-112156446D01*
X123729055Y-112156632D01*
X123745065Y-112156875D01*
X123821740Y-112156875D01*
X123838742Y-112256093D01*
X123848821Y-112316048D01*
X123861770Y-112394657D01*
X123875503Y-112479212D01*
X123882371Y-112522000D01*
X123894275Y-112591681D01*
X123905600Y-112649497D01*
X123914868Y-112688352D01*
X123919603Y-112700809D01*
X123924559Y-112689883D01*
X123931811Y-112652104D01*
X123940648Y-112592228D01*
X123950363Y-112515010D01*
X123959240Y-112434903D01*
X123988273Y-112156875D01*
X124081261Y-112156875D01*
X124139708Y-112159660D01*
X124169049Y-112168329D01*
X124173584Y-112176718D01*
X124171124Y-112196773D01*
X124164464Y-112244296D01*
X124154178Y-112315363D01*
X124140841Y-112406053D01*
X124125029Y-112512445D01*
X124107316Y-112630616D01*
X124097362Y-112696625D01*
X124021805Y-113196687D01*
X123829335Y-113206027D01*
X123801138Y-113018795D01*
X123782003Y-112892063D01*
X123766942Y-112793643D01*
X123755352Y-112720443D01*
X123746634Y-112669370D01*
X123740184Y-112637331D01*
X123735403Y-112621234D01*
X123731689Y-112617988D01*
X123728440Y-112624499D01*
X123726141Y-112633125D01*
X123720423Y-112661688D01*
X123710738Y-112715440D01*
X123698155Y-112788223D01*
X123683744Y-112873876D01*
X123673055Y-112938718D01*
X123629599Y-113204625D01*
X123537102Y-113204625D01*
X123484450Y-113203338D01*
X123455332Y-113197542D01*
X123441572Y-113184327D01*
X123436655Y-113168906D01*
X123432332Y-113144628D01*
X123424183Y-113094446D01*
X123412920Y-113023048D01*
X123399254Y-112935116D01*
X123383894Y-112835338D01*
X123367552Y-112728396D01*
X123350939Y-112618978D01*
X123334766Y-112511767D01*
X123319743Y-112411449D01*
X123306581Y-112322709D01*
X123295992Y-112250232D01*
X123288685Y-112198703D01*
X123285372Y-112172808D01*
X123285250Y-112170990D01*
X123299720Y-112163763D01*
X123337544Y-112158673D01*
X123387176Y-112156875D01*
X123423486Y-112156221D01*
X123450890Y-112156864D01*
X123450890Y-112156864D01*
G37*
X123450890Y-112156864D02*
X123471088Y-112162706D01*
X123485778Y-112177651D01*
X123496658Y-112205603D01*
X123505428Y-112250466D01*
X123513787Y-112316144D01*
X123523433Y-112406540D01*
X123532249Y-112490250D01*
X123541496Y-112574764D01*
X123549811Y-112647292D01*
X123556536Y-112702358D01*
X123561012Y-112734485D01*
X123562317Y-112740449D01*
X123565941Y-112727026D01*
X123573653Y-112687236D01*
X123584557Y-112626070D01*
X123597759Y-112548518D01*
X123609295Y-112478511D01*
X123626747Y-112370295D01*
X123640166Y-112289376D01*
X123651214Y-112231818D01*
X123661552Y-112193683D01*
X123672844Y-112171035D01*
X123686750Y-112159935D01*
X123704933Y-112156446D01*
X123729055Y-112156632D01*
X123745065Y-112156875D01*
X123821740Y-112156875D01*
X123838742Y-112256093D01*
X123848821Y-112316048D01*
X123861770Y-112394657D01*
X123875503Y-112479212D01*
X123882371Y-112522000D01*
X123894275Y-112591681D01*
X123905600Y-112649497D01*
X123914868Y-112688352D01*
X123919603Y-112700809D01*
X123924559Y-112689883D01*
X123931811Y-112652104D01*
X123940648Y-112592228D01*
X123950363Y-112515010D01*
X123959240Y-112434903D01*
X123988273Y-112156875D01*
X124081261Y-112156875D01*
X124139708Y-112159660D01*
X124169049Y-112168329D01*
X124173584Y-112176718D01*
X124171124Y-112196773D01*
X124164464Y-112244296D01*
X124154178Y-112315363D01*
X124140841Y-112406053D01*
X124125029Y-112512445D01*
X124107316Y-112630616D01*
X124097362Y-112696625D01*
X124021805Y-113196687D01*
X123829335Y-113206027D01*
X123801138Y-113018795D01*
X123782003Y-112892063D01*
X123766942Y-112793643D01*
X123755352Y-112720443D01*
X123746634Y-112669370D01*
X123740184Y-112637331D01*
X123735403Y-112621234D01*
X123731689Y-112617988D01*
X123728440Y-112624499D01*
X123726141Y-112633125D01*
X123720423Y-112661688D01*
X123710738Y-112715440D01*
X123698155Y-112788223D01*
X123683744Y-112873876D01*
X123673055Y-112938718D01*
X123629599Y-113204625D01*
X123537102Y-113204625D01*
X123484450Y-113203338D01*
X123455332Y-113197542D01*
X123441572Y-113184327D01*
X123436655Y-113168906D01*
X123432332Y-113144628D01*
X123424183Y-113094446D01*
X123412920Y-113023048D01*
X123399254Y-112935116D01*
X123383894Y-112835338D01*
X123367552Y-112728396D01*
X123350939Y-112618978D01*
X123334766Y-112511767D01*
X123319743Y-112411449D01*
X123306581Y-112322709D01*
X123295992Y-112250232D01*
X123288685Y-112198703D01*
X123285372Y-112172808D01*
X123285250Y-112170990D01*
X123299720Y-112163763D01*
X123337544Y-112158673D01*
X123387176Y-112156875D01*
X123423486Y-112156221D01*
X123450890Y-112156864D01*
G36*
X124355765Y-112156864D02*
X124375963Y-112162706D01*
X124390653Y-112177651D01*
X124401533Y-112205603D01*
X124410303Y-112250466D01*
X124418662Y-112316144D01*
X124428308Y-112406540D01*
X124437124Y-112490250D01*
X124446371Y-112574764D01*
X124454686Y-112647292D01*
X124461411Y-112702358D01*
X124465887Y-112734485D01*
X124467192Y-112740449D01*
X124470816Y-112727026D01*
X124478528Y-112687236D01*
X124489432Y-112626070D01*
X124502634Y-112548518D01*
X124514170Y-112478511D01*
X124531622Y-112370295D01*
X124545041Y-112289376D01*
X124556089Y-112231818D01*
X124566427Y-112193683D01*
X124577719Y-112171035D01*
X124591625Y-112159935D01*
X124609808Y-112156446D01*
X124633930Y-112156632D01*
X124649940Y-112156875D01*
X124726615Y-112156875D01*
X124743617Y-112256093D01*
X124753696Y-112316048D01*
X124766645Y-112394657D01*
X124780378Y-112479212D01*
X124787246Y-112522000D01*
X124799150Y-112591681D01*
X124810475Y-112649497D01*
X124819743Y-112688352D01*
X124824478Y-112700809D01*
X124829434Y-112689883D01*
X124836686Y-112652104D01*
X124845523Y-112592228D01*
X124855238Y-112515010D01*
X124864115Y-112434903D01*
X124893148Y-112156875D01*
X124986136Y-112156875D01*
X125044583Y-112159660D01*
X125073924Y-112168329D01*
X125078459Y-112176718D01*
X125075999Y-112196773D01*
X125069339Y-112244296D01*
X125059053Y-112315363D01*
X125045716Y-112406053D01*
X125029904Y-112512445D01*
X125012191Y-112630616D01*
X125002237Y-112696625D01*
X124926680Y-113196687D01*
X124734210Y-113206027D01*
X124706013Y-113018795D01*
X124686878Y-112892063D01*
X124671817Y-112793643D01*
X124660227Y-112720443D01*
X124651509Y-112669370D01*
X124645059Y-112637331D01*
X124640278Y-112621234D01*
X124636564Y-112617988D01*
X124633315Y-112624499D01*
X124631016Y-112633125D01*
X124625298Y-112661688D01*
X124615613Y-112715440D01*
X124603030Y-112788223D01*
X124588619Y-112873876D01*
X124577930Y-112938718D01*
X124534474Y-113204625D01*
X124441977Y-113204625D01*
X124389325Y-113203338D01*
X124360207Y-113197542D01*
X124346447Y-113184327D01*
X124341530Y-113168906D01*
X124337207Y-113144628D01*
X124329058Y-113094446D01*
X124317795Y-113023048D01*
X124304129Y-112935116D01*
X124288769Y-112835338D01*
X124272427Y-112728396D01*
X124255814Y-112618978D01*
X124239641Y-112511767D01*
X124224618Y-112411449D01*
X124211456Y-112322709D01*
X124200867Y-112250232D01*
X124193560Y-112198703D01*
X124190247Y-112172808D01*
X124190125Y-112170990D01*
X124204595Y-112163763D01*
X124242419Y-112158673D01*
X124292051Y-112156875D01*
X124328361Y-112156221D01*
X124355765Y-112156864D01*
X124355765Y-112156864D01*
G37*
X124355765Y-112156864D02*
X124375963Y-112162706D01*
X124390653Y-112177651D01*
X124401533Y-112205603D01*
X124410303Y-112250466D01*
X124418662Y-112316144D01*
X124428308Y-112406540D01*
X124437124Y-112490250D01*
X124446371Y-112574764D01*
X124454686Y-112647292D01*
X124461411Y-112702358D01*
X124465887Y-112734485D01*
X124467192Y-112740449D01*
X124470816Y-112727026D01*
X124478528Y-112687236D01*
X124489432Y-112626070D01*
X124502634Y-112548518D01*
X124514170Y-112478511D01*
X124531622Y-112370295D01*
X124545041Y-112289376D01*
X124556089Y-112231818D01*
X124566427Y-112193683D01*
X124577719Y-112171035D01*
X124591625Y-112159935D01*
X124609808Y-112156446D01*
X124633930Y-112156632D01*
X124649940Y-112156875D01*
X124726615Y-112156875D01*
X124743617Y-112256093D01*
X124753696Y-112316048D01*
X124766645Y-112394657D01*
X124780378Y-112479212D01*
X124787246Y-112522000D01*
X124799150Y-112591681D01*
X124810475Y-112649497D01*
X124819743Y-112688352D01*
X124824478Y-112700809D01*
X124829434Y-112689883D01*
X124836686Y-112652104D01*
X124845523Y-112592228D01*
X124855238Y-112515010D01*
X124864115Y-112434903D01*
X124893148Y-112156875D01*
X124986136Y-112156875D01*
X125044583Y-112159660D01*
X125073924Y-112168329D01*
X125078459Y-112176718D01*
X125075999Y-112196773D01*
X125069339Y-112244296D01*
X125059053Y-112315363D01*
X125045716Y-112406053D01*
X125029904Y-112512445D01*
X125012191Y-112630616D01*
X125002237Y-112696625D01*
X124926680Y-113196687D01*
X124734210Y-113206027D01*
X124706013Y-113018795D01*
X124686878Y-112892063D01*
X124671817Y-112793643D01*
X124660227Y-112720443D01*
X124651509Y-112669370D01*
X124645059Y-112637331D01*
X124640278Y-112621234D01*
X124636564Y-112617988D01*
X124633315Y-112624499D01*
X124631016Y-112633125D01*
X124625298Y-112661688D01*
X124615613Y-112715440D01*
X124603030Y-112788223D01*
X124588619Y-112873876D01*
X124577930Y-112938718D01*
X124534474Y-113204625D01*
X124441977Y-113204625D01*
X124389325Y-113203338D01*
X124360207Y-113197542D01*
X124346447Y-113184327D01*
X124341530Y-113168906D01*
X124337207Y-113144628D01*
X124329058Y-113094446D01*
X124317795Y-113023048D01*
X124304129Y-112935116D01*
X124288769Y-112835338D01*
X124272427Y-112728396D01*
X124255814Y-112618978D01*
X124239641Y-112511767D01*
X124224618Y-112411449D01*
X124211456Y-112322709D01*
X124200867Y-112250232D01*
X124193560Y-112198703D01*
X124190247Y-112172808D01*
X124190125Y-112170990D01*
X124204595Y-112163763D01*
X124242419Y-112158673D01*
X124292051Y-112156875D01*
X124328361Y-112156221D01*
X124355765Y-112156864D01*
G36*
X125260640Y-112156864D02*
X125280838Y-112162706D01*
X125295528Y-112177651D01*
X125306408Y-112205603D01*
X125315178Y-112250466D01*
X125323537Y-112316144D01*
X125333183Y-112406540D01*
X125341999Y-112490250D01*
X125351246Y-112574764D01*
X125359561Y-112647292D01*
X125366286Y-112702358D01*
X125370762Y-112734485D01*
X125372067Y-112740449D01*
X125375691Y-112727026D01*
X125383403Y-112687236D01*
X125394307Y-112626070D01*
X125407509Y-112548518D01*
X125419045Y-112478511D01*
X125436497Y-112370295D01*
X125449916Y-112289376D01*
X125460964Y-112231818D01*
X125471302Y-112193683D01*
X125482594Y-112171035D01*
X125496500Y-112159935D01*
X125514683Y-112156446D01*
X125538805Y-112156632D01*
X125554815Y-112156875D01*
X125631490Y-112156875D01*
X125648492Y-112256093D01*
X125658571Y-112316048D01*
X125671520Y-112394657D01*
X125685253Y-112479212D01*
X125692121Y-112522000D01*
X125704025Y-112591681D01*
X125715350Y-112649497D01*
X125724618Y-112688352D01*
X125729353Y-112700809D01*
X125734309Y-112689883D01*
X125741561Y-112652104D01*
X125750398Y-112592228D01*
X125760113Y-112515010D01*
X125768990Y-112434903D01*
X125798023Y-112156875D01*
X125891011Y-112156875D01*
X125949458Y-112159660D01*
X125978799Y-112168329D01*
X125983334Y-112176718D01*
X125980874Y-112196773D01*
X125974214Y-112244296D01*
X125963928Y-112315363D01*
X125950591Y-112406053D01*
X125934779Y-112512445D01*
X125917066Y-112630616D01*
X125907112Y-112696625D01*
X125831555Y-113196687D01*
X125639085Y-113206027D01*
X125610888Y-113018795D01*
X125591753Y-112892063D01*
X125576692Y-112793643D01*
X125565102Y-112720443D01*
X125556384Y-112669370D01*
X125549934Y-112637331D01*
X125545153Y-112621234D01*
X125541439Y-112617988D01*
X125538190Y-112624499D01*
X125535891Y-112633125D01*
X125530173Y-112661688D01*
X125520488Y-112715440D01*
X125507905Y-112788223D01*
X125493494Y-112873876D01*
X125482805Y-112938718D01*
X125439349Y-113204625D01*
X125346852Y-113204625D01*
X125294200Y-113203338D01*
X125265082Y-113197542D01*
X125251322Y-113184327D01*
X125246405Y-113168906D01*
X125242082Y-113144628D01*
X125233933Y-113094446D01*
X125222670Y-113023048D01*
X125209004Y-112935116D01*
X125193644Y-112835338D01*
X125177302Y-112728396D01*
X125160689Y-112618978D01*
X125144516Y-112511767D01*
X125129493Y-112411449D01*
X125116331Y-112322709D01*
X125105742Y-112250232D01*
X125098435Y-112198703D01*
X125095122Y-112172808D01*
X125095000Y-112170990D01*
X125109470Y-112163763D01*
X125147294Y-112158673D01*
X125196926Y-112156875D01*
X125233236Y-112156221D01*
X125260640Y-112156864D01*
X125260640Y-112156864D01*
G37*
X125260640Y-112156864D02*
X125280838Y-112162706D01*
X125295528Y-112177651D01*
X125306408Y-112205603D01*
X125315178Y-112250466D01*
X125323537Y-112316144D01*
X125333183Y-112406540D01*
X125341999Y-112490250D01*
X125351246Y-112574764D01*
X125359561Y-112647292D01*
X125366286Y-112702358D01*
X125370762Y-112734485D01*
X125372067Y-112740449D01*
X125375691Y-112727026D01*
X125383403Y-112687236D01*
X125394307Y-112626070D01*
X125407509Y-112548518D01*
X125419045Y-112478511D01*
X125436497Y-112370295D01*
X125449916Y-112289376D01*
X125460964Y-112231818D01*
X125471302Y-112193683D01*
X125482594Y-112171035D01*
X125496500Y-112159935D01*
X125514683Y-112156446D01*
X125538805Y-112156632D01*
X125554815Y-112156875D01*
X125631490Y-112156875D01*
X125648492Y-112256093D01*
X125658571Y-112316048D01*
X125671520Y-112394657D01*
X125685253Y-112479212D01*
X125692121Y-112522000D01*
X125704025Y-112591681D01*
X125715350Y-112649497D01*
X125724618Y-112688352D01*
X125729353Y-112700809D01*
X125734309Y-112689883D01*
X125741561Y-112652104D01*
X125750398Y-112592228D01*
X125760113Y-112515010D01*
X125768990Y-112434903D01*
X125798023Y-112156875D01*
X125891011Y-112156875D01*
X125949458Y-112159660D01*
X125978799Y-112168329D01*
X125983334Y-112176718D01*
X125980874Y-112196773D01*
X125974214Y-112244296D01*
X125963928Y-112315363D01*
X125950591Y-112406053D01*
X125934779Y-112512445D01*
X125917066Y-112630616D01*
X125907112Y-112696625D01*
X125831555Y-113196687D01*
X125639085Y-113206027D01*
X125610888Y-113018795D01*
X125591753Y-112892063D01*
X125576692Y-112793643D01*
X125565102Y-112720443D01*
X125556384Y-112669370D01*
X125549934Y-112637331D01*
X125545153Y-112621234D01*
X125541439Y-112617988D01*
X125538190Y-112624499D01*
X125535891Y-112633125D01*
X125530173Y-112661688D01*
X125520488Y-112715440D01*
X125507905Y-112788223D01*
X125493494Y-112873876D01*
X125482805Y-112938718D01*
X125439349Y-113204625D01*
X125346852Y-113204625D01*
X125294200Y-113203338D01*
X125265082Y-113197542D01*
X125251322Y-113184327D01*
X125246405Y-113168906D01*
X125242082Y-113144628D01*
X125233933Y-113094446D01*
X125222670Y-113023048D01*
X125209004Y-112935116D01*
X125193644Y-112835338D01*
X125177302Y-112728396D01*
X125160689Y-112618978D01*
X125144516Y-112511767D01*
X125129493Y-112411449D01*
X125116331Y-112322709D01*
X125105742Y-112250232D01*
X125098435Y-112198703D01*
X125095122Y-112172808D01*
X125095000Y-112170990D01*
X125109470Y-112163763D01*
X125147294Y-112158673D01*
X125196926Y-112156875D01*
X125233236Y-112156221D01*
X125260640Y-112156864D01*
G36*
X126190375Y-113204625D02*
X125984000Y-113204625D01*
X125984000Y-112998250D01*
X126190375Y-112998250D01*
X126190375Y-113204625D01*
X126190375Y-113204625D01*
G37*
X126190375Y-113204625D02*
X125984000Y-113204625D01*
X125984000Y-112998250D01*
X126190375Y-112998250D01*
X126190375Y-113204625D01*
G36*
X126514682Y-111952980D02*
X126618793Y-111956639D01*
X126696497Y-111963229D01*
X126753125Y-111974685D01*
X126794004Y-111992938D01*
X126824463Y-112019921D01*
X126849831Y-112057568D01*
X126861069Y-112078628D01*
X126874464Y-112123120D01*
X126883997Y-112191182D01*
X126889666Y-112274874D01*
X126891472Y-112366250D01*
X126889416Y-112457369D01*
X126883496Y-112540288D01*
X126873713Y-112607064D01*
X126861069Y-112647871D01*
X126824947Y-112703091D01*
X126778808Y-112740204D01*
X126715800Y-112762872D01*
X126629070Y-112774759D01*
X126622852Y-112775217D01*
X126499937Y-112783937D01*
X126495507Y-112994281D01*
X126491078Y-113204625D01*
X126285625Y-113204625D01*
X126285625Y-112125125D01*
X126492000Y-112125125D01*
X126492000Y-112617250D01*
X126552465Y-112617250D01*
X126600950Y-112611412D01*
X126640120Y-112597117D01*
X126643747Y-112594717D01*
X126656613Y-112582407D01*
X126665331Y-112563897D01*
X126670689Y-112533466D01*
X126673476Y-112485393D01*
X126674481Y-112413957D01*
X126674562Y-112371187D01*
X126673503Y-112277734D01*
X126668803Y-112211402D01*
X126658181Y-112167590D01*
X126639352Y-112141698D01*
X126610035Y-112129124D01*
X126567947Y-112125269D01*
X126552465Y-112125124D01*
X126492000Y-112125125D01*
X126285625Y-112125125D01*
X126285625Y-111947522D01*
X126514682Y-111952980D01*
X126514682Y-111952980D01*
G37*
X126514682Y-111952980D02*
X126618793Y-111956639D01*
X126696497Y-111963229D01*
X126753125Y-111974685D01*
X126794004Y-111992938D01*
X126824463Y-112019921D01*
X126849831Y-112057568D01*
X126861069Y-112078628D01*
X126874464Y-112123120D01*
X126883997Y-112191182D01*
X126889666Y-112274874D01*
X126891472Y-112366250D01*
X126889416Y-112457369D01*
X126883496Y-112540288D01*
X126873713Y-112607064D01*
X126861069Y-112647871D01*
X126824947Y-112703091D01*
X126778808Y-112740204D01*
X126715800Y-112762872D01*
X126629070Y-112774759D01*
X126622852Y-112775217D01*
X126499937Y-112783937D01*
X126495507Y-112994281D01*
X126491078Y-113204625D01*
X126285625Y-113204625D01*
X126285625Y-112125125D01*
X126492000Y-112125125D01*
X126492000Y-112617250D01*
X126552465Y-112617250D01*
X126600950Y-112611412D01*
X126640120Y-112597117D01*
X126643747Y-112594717D01*
X126656613Y-112582407D01*
X126665331Y-112563897D01*
X126670689Y-112533466D01*
X126673476Y-112485393D01*
X126674481Y-112413957D01*
X126674562Y-112371187D01*
X126673503Y-112277734D01*
X126668803Y-112211402D01*
X126658181Y-112167590D01*
X126639352Y-112141698D01*
X126610035Y-112129124D01*
X126567947Y-112125269D01*
X126552465Y-112125124D01*
X126492000Y-112125125D01*
X126285625Y-112125125D01*
X126285625Y-111947522D01*
X126514682Y-111952980D01*
G36*
X127318484Y-112160001D02*
X127327664Y-112173739D01*
X127332059Y-112204622D01*
X127333343Y-112259186D01*
X127333375Y-112275937D01*
X127333375Y-112395000D01*
X127278946Y-112395000D01*
X127247925Y-112395849D01*
X127223756Y-112400743D01*
X127205584Y-112413206D01*
X127192555Y-112436757D01*
X127183813Y-112474919D01*
X127178504Y-112531214D01*
X127175773Y-112609162D01*
X127174765Y-112712287D01*
X127174625Y-112824758D01*
X127174625Y-113204625D01*
X126968250Y-113204625D01*
X126968250Y-112156875D01*
X127071437Y-112156875D01*
X127126886Y-112157530D01*
X127157768Y-112161402D01*
X127171264Y-112171352D01*
X127174554Y-112190240D01*
X127174625Y-112197973D01*
X127174625Y-112239072D01*
X127223468Y-112197973D01*
X127262334Y-112171400D01*
X127296920Y-112157477D01*
X127302843Y-112156874D01*
X127318484Y-112160001D01*
X127318484Y-112160001D01*
G37*
X127318484Y-112160001D02*
X127327664Y-112173739D01*
X127332059Y-112204622D01*
X127333343Y-112259186D01*
X127333375Y-112275937D01*
X127333375Y-112395000D01*
X127278946Y-112395000D01*
X127247925Y-112395849D01*
X127223756Y-112400743D01*
X127205584Y-112413206D01*
X127192555Y-112436757D01*
X127183813Y-112474919D01*
X127178504Y-112531214D01*
X127175773Y-112609162D01*
X127174765Y-112712287D01*
X127174625Y-112824758D01*
X127174625Y-113204625D01*
X126968250Y-113204625D01*
X126968250Y-112156875D01*
X127071437Y-112156875D01*
X127126886Y-112157530D01*
X127157768Y-112161402D01*
X127171264Y-112171352D01*
X127174554Y-112190240D01*
X127174625Y-112197973D01*
X127174625Y-112239072D01*
X127223468Y-112197973D01*
X127262334Y-112171400D01*
X127296920Y-112157477D01*
X127302843Y-112156874D01*
X127318484Y-112160001D01*
G36*
X129936875Y-112156875D02*
X130063875Y-112156875D01*
X130063875Y-112315625D01*
X129936875Y-112315625D01*
X129936875Y-112664316D01*
X129937024Y-112778432D01*
X129937700Y-112864887D01*
X129939249Y-112927771D01*
X129942013Y-112971173D01*
X129946336Y-112999183D01*
X129952562Y-113015888D01*
X129961035Y-113025379D01*
X129967581Y-113029441D01*
X130008617Y-113043283D01*
X130031081Y-113045875D01*
X130050704Y-113049763D01*
X130060494Y-113066680D01*
X130063703Y-113104502D01*
X130063875Y-113125250D01*
X130063875Y-113204625D01*
X129964656Y-113204565D01*
X129888041Y-113199376D01*
X129831414Y-113182474D01*
X129813448Y-113172808D01*
X129774523Y-113140933D01*
X129747842Y-113104743D01*
X129745979Y-113100396D01*
X129741564Y-113073273D01*
X129737639Y-113019455D01*
X129734395Y-112943996D01*
X129732019Y-112851950D01*
X129730703Y-112748370D01*
X129730500Y-112687654D01*
X129730500Y-112315625D01*
X129690812Y-112315625D01*
X129667258Y-112313051D01*
X129655507Y-112299918D01*
X129651500Y-112268105D01*
X129651125Y-112236250D01*
X129652411Y-112189141D01*
X129658978Y-112165640D01*
X129674884Y-112157626D01*
X129690812Y-112156875D01*
X129712146Y-112155065D01*
X129724029Y-112144855D01*
X129729220Y-112119071D01*
X129730477Y-112070540D01*
X129730500Y-112053687D01*
X129730500Y-111950500D01*
X129936875Y-111950500D01*
X129936875Y-112156875D01*
X129936875Y-112156875D01*
G37*
X129936875Y-112156875D02*
X130063875Y-112156875D01*
X130063875Y-112315625D01*
X129936875Y-112315625D01*
X129936875Y-112664316D01*
X129937024Y-112778432D01*
X129937700Y-112864887D01*
X129939249Y-112927771D01*
X129942013Y-112971173D01*
X129946336Y-112999183D01*
X129952562Y-113015888D01*
X129961035Y-113025379D01*
X129967581Y-113029441D01*
X130008617Y-113043283D01*
X130031081Y-113045875D01*
X130050704Y-113049763D01*
X130060494Y-113066680D01*
X130063703Y-113104502D01*
X130063875Y-113125250D01*
X130063875Y-113204625D01*
X129964656Y-113204565D01*
X129888041Y-113199376D01*
X129831414Y-113182474D01*
X129813448Y-113172808D01*
X129774523Y-113140933D01*
X129747842Y-113104743D01*
X129745979Y-113100396D01*
X129741564Y-113073273D01*
X129737639Y-113019455D01*
X129734395Y-112943996D01*
X129732019Y-112851950D01*
X129730703Y-112748370D01*
X129730500Y-112687654D01*
X129730500Y-112315625D01*
X129690812Y-112315625D01*
X129667258Y-112313051D01*
X129655507Y-112299918D01*
X129651500Y-112268105D01*
X129651125Y-112236250D01*
X129652411Y-112189141D01*
X129658978Y-112165640D01*
X129674884Y-112157626D01*
X129690812Y-112156875D01*
X129712146Y-112155065D01*
X129724029Y-112144855D01*
X129729220Y-112119071D01*
X129730477Y-112070540D01*
X129730500Y-112053687D01*
X129730500Y-111950500D01*
X129936875Y-111950500D01*
X129936875Y-112156875D01*
G36*
X130709311Y-112569625D02*
X130734942Y-112704818D01*
X130758623Y-112830239D01*
X130779716Y-112942466D01*
X130797582Y-113038076D01*
X130811583Y-113113648D01*
X130821079Y-113165760D01*
X130825431Y-113190989D01*
X130825642Y-113192718D01*
X130811240Y-113198619D01*
X130773157Y-113202879D01*
X130719451Y-113204619D01*
X130716184Y-113204625D01*
X130606493Y-113204625D01*
X130587750Y-113093500D01*
X130569006Y-112982375D01*
X130460577Y-112982375D01*
X130409514Y-112982208D01*
X130376354Y-112985475D01*
X130356157Y-112997826D01*
X130343982Y-113024913D01*
X130334889Y-113072385D01*
X130325266Y-113137156D01*
X130315084Y-113204625D01*
X130213292Y-113204625D01*
X130152180Y-113202264D01*
X130119681Y-113194814D01*
X130112397Y-113184781D01*
X130115473Y-113165225D01*
X130123855Y-113117987D01*
X130136895Y-113046574D01*
X130153943Y-112954490D01*
X130174348Y-112845240D01*
X130185130Y-112787906D01*
X130382364Y-112787906D01*
X130396040Y-112801259D01*
X130439405Y-112807312D01*
X130462011Y-112807750D01*
X130509267Y-112806897D01*
X130531993Y-112801412D01*
X130537407Y-112786903D01*
X130533769Y-112764093D01*
X130527492Y-112729838D01*
X130517879Y-112673464D01*
X130506490Y-112604221D01*
X130499665Y-112561687D01*
X130488094Y-112492091D01*
X130477300Y-112432837D01*
X130468789Y-112391920D01*
X130465265Y-112379125D01*
X130460164Y-112386890D01*
X130450976Y-112419468D01*
X130439015Y-112470384D01*
X130425592Y-112533164D01*
X130412022Y-112601332D01*
X130399616Y-112668415D01*
X130389690Y-112727937D01*
X130383554Y-112773424D01*
X130382364Y-112787906D01*
X130185130Y-112787906D01*
X130197463Y-112722329D01*
X130222636Y-112589264D01*
X130227870Y-112561687D01*
X130342446Y-111958437D01*
X130593214Y-111958437D01*
X130709311Y-112569625D01*
X130709311Y-112569625D01*
G37*
X130709311Y-112569625D02*
X130734942Y-112704818D01*
X130758623Y-112830239D01*
X130779716Y-112942466D01*
X130797582Y-113038076D01*
X130811583Y-113113648D01*
X130821079Y-113165760D01*
X130825431Y-113190989D01*
X130825642Y-113192718D01*
X130811240Y-113198619D01*
X130773157Y-113202879D01*
X130719451Y-113204619D01*
X130716184Y-113204625D01*
X130606493Y-113204625D01*
X130587750Y-113093500D01*
X130569006Y-112982375D01*
X130460577Y-112982375D01*
X130409514Y-112982208D01*
X130376354Y-112985475D01*
X130356157Y-112997826D01*
X130343982Y-113024913D01*
X130334889Y-113072385D01*
X130325266Y-113137156D01*
X130315084Y-113204625D01*
X130213292Y-113204625D01*
X130152180Y-113202264D01*
X130119681Y-113194814D01*
X130112397Y-113184781D01*
X130115473Y-113165225D01*
X130123855Y-113117987D01*
X130136895Y-113046574D01*
X130153943Y-112954490D01*
X130174348Y-112845240D01*
X130185130Y-112787906D01*
X130382364Y-112787906D01*
X130396040Y-112801259D01*
X130439405Y-112807312D01*
X130462011Y-112807750D01*
X130509267Y-112806897D01*
X130531993Y-112801412D01*
X130537407Y-112786903D01*
X130533769Y-112764093D01*
X130527492Y-112729838D01*
X130517879Y-112673464D01*
X130506490Y-112604221D01*
X130499665Y-112561687D01*
X130488094Y-112492091D01*
X130477300Y-112432837D01*
X130468789Y-112391920D01*
X130465265Y-112379125D01*
X130460164Y-112386890D01*
X130450976Y-112419468D01*
X130439015Y-112470384D01*
X130425592Y-112533164D01*
X130412022Y-112601332D01*
X130399616Y-112668415D01*
X130389690Y-112727937D01*
X130383554Y-112773424D01*
X130382364Y-112787906D01*
X130185130Y-112787906D01*
X130197463Y-112722329D01*
X130222636Y-112589264D01*
X130227870Y-112561687D01*
X130342446Y-111958437D01*
X130593214Y-111958437D01*
X130709311Y-112569625D01*
G36*
X130981995Y-112049718D02*
X130989699Y-112096439D01*
X131001377Y-112167780D01*
X131015932Y-112257018D01*
X131032269Y-112357430D01*
X131049291Y-112462295D01*
X131050801Y-112471610D01*
X131069721Y-112584934D01*
X131084962Y-112668324D01*
X131096878Y-112723340D01*
X131105823Y-112751541D01*
X131112151Y-112754486D01*
X131113916Y-112749422D01*
X131119580Y-112721157D01*
X131129492Y-112666681D01*
X131142757Y-112591114D01*
X131158482Y-112499578D01*
X131175774Y-112397192D01*
X131184764Y-112343317D01*
X131202334Y-112239480D01*
X131218771Y-112145866D01*
X131233210Y-112067118D01*
X131244789Y-112007877D01*
X131252644Y-111972786D01*
X131255063Y-111965462D01*
X131275809Y-111956975D01*
X131319226Y-111953056D01*
X131359975Y-111953645D01*
X131454623Y-111958437D01*
X131386952Y-112315625D01*
X131363436Y-112439748D01*
X131338114Y-112573408D01*
X131312877Y-112706619D01*
X131289618Y-112829396D01*
X131270226Y-112931757D01*
X131268907Y-112938718D01*
X131218534Y-113204625D01*
X131102649Y-113204625D01*
X131040927Y-113203406D01*
X131004050Y-113198730D01*
X130985171Y-113189064D01*
X130978466Y-113176843D01*
X130973898Y-113156087D01*
X130964333Y-113108673D01*
X130950565Y-113038766D01*
X130933389Y-112950527D01*
X130913597Y-112848120D01*
X130891984Y-112735706D01*
X130869344Y-112617450D01*
X130846471Y-112497513D01*
X130824159Y-112380058D01*
X130803202Y-112269247D01*
X130784395Y-112169245D01*
X130768530Y-112084212D01*
X130756402Y-112018312D01*
X130748806Y-111975708D01*
X130746500Y-111960748D01*
X130761023Y-111955663D01*
X130799199Y-111951996D01*
X130852938Y-111950503D01*
X130855995Y-111950500D01*
X130965490Y-111950500D01*
X130981995Y-112049718D01*
X130981995Y-112049718D01*
G37*
X130981995Y-112049718D02*
X130989699Y-112096439D01*
X131001377Y-112167780D01*
X131015932Y-112257018D01*
X131032269Y-112357430D01*
X131049291Y-112462295D01*
X131050801Y-112471610D01*
X131069721Y-112584934D01*
X131084962Y-112668324D01*
X131096878Y-112723340D01*
X131105823Y-112751541D01*
X131112151Y-112754486D01*
X131113916Y-112749422D01*
X131119580Y-112721157D01*
X131129492Y-112666681D01*
X131142757Y-112591114D01*
X131158482Y-112499578D01*
X131175774Y-112397192D01*
X131184764Y-112343317D01*
X131202334Y-112239480D01*
X131218771Y-112145866D01*
X131233210Y-112067118D01*
X131244789Y-112007877D01*
X131252644Y-111972786D01*
X131255063Y-111965462D01*
X131275809Y-111956975D01*
X131319226Y-111953056D01*
X131359975Y-111953645D01*
X131454623Y-111958437D01*
X131386952Y-112315625D01*
X131363436Y-112439748D01*
X131338114Y-112573408D01*
X131312877Y-112706619D01*
X131289618Y-112829396D01*
X131270226Y-112931757D01*
X131268907Y-112938718D01*
X131218534Y-113204625D01*
X131102649Y-113204625D01*
X131040927Y-113203406D01*
X131004050Y-113198730D01*
X130985171Y-113189064D01*
X130978466Y-113176843D01*
X130973898Y-113156087D01*
X130964333Y-113108673D01*
X130950565Y-113038766D01*
X130933389Y-112950527D01*
X130913597Y-112848120D01*
X130891984Y-112735706D01*
X130869344Y-112617450D01*
X130846471Y-112497513D01*
X130824159Y-112380058D01*
X130803202Y-112269247D01*
X130784395Y-112169245D01*
X130768530Y-112084212D01*
X130756402Y-112018312D01*
X130748806Y-111975708D01*
X130746500Y-111960748D01*
X130761023Y-111955663D01*
X130799199Y-111951996D01*
X130852938Y-111950503D01*
X130855995Y-111950500D01*
X130965490Y-111950500D01*
X130981995Y-112049718D01*
G36*
X131710906Y-111950524D02*
X131816642Y-111952478D01*
X131896423Y-111959486D01*
X131955873Y-111973314D01*
X132000615Y-111995725D01*
X132036274Y-112028484D01*
X132059839Y-112060003D01*
X132075287Y-112086027D01*
X132085587Y-112113770D01*
X132091758Y-112150194D01*
X132094817Y-112202257D01*
X132095782Y-112276921D01*
X132095815Y-112306066D01*
X132093535Y-112408959D01*
X132085608Y-112485331D01*
X132070290Y-112540172D01*
X132045839Y-112578469D01*
X132010514Y-112605210D01*
X131987537Y-112616095D01*
X131938944Y-112636223D01*
X132033284Y-112906916D01*
X132063517Y-112994381D01*
X132089735Y-113071594D01*
X132110265Y-113133524D01*
X132123439Y-113175136D01*
X132127625Y-113191117D01*
X132113102Y-113197810D01*
X132074917Y-113202641D01*
X132021148Y-113204618D01*
X132017818Y-113204625D01*
X131908011Y-113204625D01*
X131815412Y-112930781D01*
X131722812Y-112656937D01*
X131718468Y-112930781D01*
X131714125Y-113204625D01*
X131508500Y-113204625D01*
X131508500Y-112125125D01*
X131714875Y-112125125D01*
X131714875Y-112506125D01*
X131777474Y-112506125D01*
X131827541Y-112499904D01*
X131859161Y-112478181D01*
X131864787Y-112470842D01*
X131880414Y-112431547D01*
X131888265Y-112367398D01*
X131889500Y-112315625D01*
X131885908Y-112232887D01*
X131873421Y-112176896D01*
X131849469Y-112143282D01*
X131811486Y-112127678D01*
X131777474Y-112125125D01*
X131714875Y-112125125D01*
X131508500Y-112125125D01*
X131508500Y-111950500D01*
X131710906Y-111950524D01*
X131710906Y-111950524D01*
G37*
X131710906Y-111950524D02*
X131816642Y-111952478D01*
X131896423Y-111959486D01*
X131955873Y-111973314D01*
X132000615Y-111995725D01*
X132036274Y-112028484D01*
X132059839Y-112060003D01*
X132075287Y-112086027D01*
X132085587Y-112113770D01*
X132091758Y-112150194D01*
X132094817Y-112202257D01*
X132095782Y-112276921D01*
X132095815Y-112306066D01*
X132093535Y-112408959D01*
X132085608Y-112485331D01*
X132070290Y-112540172D01*
X132045839Y-112578469D01*
X132010514Y-112605210D01*
X131987537Y-112616095D01*
X131938944Y-112636223D01*
X132033284Y-112906916D01*
X132063517Y-112994381D01*
X132089735Y-113071594D01*
X132110265Y-113133524D01*
X132123439Y-113175136D01*
X132127625Y-113191117D01*
X132113102Y-113197810D01*
X132074917Y-113202641D01*
X132021148Y-113204618D01*
X132017818Y-113204625D01*
X131908011Y-113204625D01*
X131815412Y-112930781D01*
X131722812Y-112656937D01*
X131718468Y-112930781D01*
X131714125Y-113204625D01*
X131508500Y-113204625D01*
X131508500Y-112125125D01*
X131714875Y-112125125D01*
X131714875Y-112506125D01*
X131777474Y-112506125D01*
X131827541Y-112499904D01*
X131859161Y-112478181D01*
X131864787Y-112470842D01*
X131880414Y-112431547D01*
X131888265Y-112367398D01*
X131889500Y-112315625D01*
X131885908Y-112232887D01*
X131873421Y-112176896D01*
X131849469Y-112143282D01*
X131811486Y-112127678D01*
X131777474Y-112125125D01*
X131714875Y-112125125D01*
X131508500Y-112125125D01*
X131508500Y-111950500D01*
X131710906Y-111950524D01*
G36*
X132397500Y-113204625D02*
X132191125Y-113204625D01*
X132191125Y-112998250D01*
X132397500Y-112998250D01*
X132397500Y-113204625D01*
X132397500Y-113204625D01*
G37*
X132397500Y-113204625D02*
X132191125Y-113204625D01*
X132191125Y-112998250D01*
X132397500Y-112998250D01*
X132397500Y-113204625D01*
G36*
X134596682Y-112147088D02*
X134643573Y-112162968D01*
X134649894Y-112166887D01*
X134672123Y-112184504D01*
X134689906Y-112205229D01*
X134703735Y-112232592D01*
X134714100Y-112270122D01*
X134721491Y-112321350D01*
X134726398Y-112389806D01*
X134729312Y-112479020D01*
X134730723Y-112592523D01*
X134731121Y-112733844D01*
X134731125Y-112751677D01*
X134731125Y-113204625D01*
X134524750Y-113204625D01*
X134524750Y-112779175D01*
X134524298Y-112639143D01*
X134522876Y-112528549D01*
X134520387Y-112445089D01*
X134516731Y-112386463D01*
X134511810Y-112350369D01*
X134505700Y-112334675D01*
X134470522Y-112317537D01*
X134427651Y-112317952D01*
X134391935Y-112334514D01*
X134382433Y-112346331D01*
X134377179Y-112372354D01*
X134372819Y-112427477D01*
X134369451Y-112509061D01*
X134367173Y-112614466D01*
X134366083Y-112741054D01*
X134366000Y-112790831D01*
X134366000Y-113204625D01*
X134159625Y-113204625D01*
X134159625Y-112779174D01*
X134159474Y-112645875D01*
X134158636Y-112540935D01*
X134156529Y-112460964D01*
X134152572Y-112402573D01*
X134146187Y-112362369D01*
X134136791Y-112336965D01*
X134123805Y-112322968D01*
X134106647Y-112316989D01*
X134084738Y-112315638D01*
X134080250Y-112315625D01*
X134057424Y-112316503D01*
X134039455Y-112321400D01*
X134025761Y-112333705D01*
X134015763Y-112356808D01*
X134008879Y-112394101D01*
X134004529Y-112448972D01*
X134002132Y-112524812D01*
X134001108Y-112625013D01*
X134000877Y-112752963D01*
X134000875Y-112779174D01*
X134000875Y-113204625D01*
X133794500Y-113204625D01*
X133794500Y-112156875D01*
X133897687Y-112156875D01*
X133953181Y-112157608D01*
X133984093Y-112161587D01*
X133997587Y-112171484D01*
X134000827Y-112189967D01*
X134000875Y-112195341D01*
X134000875Y-112233807D01*
X134047278Y-112187403D01*
X134091119Y-112153601D01*
X134140156Y-112141511D01*
X134157370Y-112140999D01*
X134239134Y-112150228D01*
X134295263Y-112177859D01*
X134320971Y-112211796D01*
X134339052Y-112251480D01*
X134400197Y-112196240D01*
X134443772Y-112161538D01*
X134483095Y-112145234D01*
X134533837Y-112141007D01*
X134537138Y-112140999D01*
X134596682Y-112147088D01*
X134596682Y-112147088D01*
G37*
X134596682Y-112147088D02*
X134643573Y-112162968D01*
X134649894Y-112166887D01*
X134672123Y-112184504D01*
X134689906Y-112205229D01*
X134703735Y-112232592D01*
X134714100Y-112270122D01*
X134721491Y-112321350D01*
X134726398Y-112389806D01*
X134729312Y-112479020D01*
X134730723Y-112592523D01*
X134731121Y-112733844D01*
X134731125Y-112751677D01*
X134731125Y-113204625D01*
X134524750Y-113204625D01*
X134524750Y-112779175D01*
X134524298Y-112639143D01*
X134522876Y-112528549D01*
X134520387Y-112445089D01*
X134516731Y-112386463D01*
X134511810Y-112350369D01*
X134505700Y-112334675D01*
X134470522Y-112317537D01*
X134427651Y-112317952D01*
X134391935Y-112334514D01*
X134382433Y-112346331D01*
X134377179Y-112372354D01*
X134372819Y-112427477D01*
X134369451Y-112509061D01*
X134367173Y-112614466D01*
X134366083Y-112741054D01*
X134366000Y-112790831D01*
X134366000Y-113204625D01*
X134159625Y-113204625D01*
X134159625Y-112779174D01*
X134159474Y-112645875D01*
X134158636Y-112540935D01*
X134156529Y-112460964D01*
X134152572Y-112402573D01*
X134146187Y-112362369D01*
X134136791Y-112336965D01*
X134123805Y-112322968D01*
X134106647Y-112316989D01*
X134084738Y-112315638D01*
X134080250Y-112315625D01*
X134057424Y-112316503D01*
X134039455Y-112321400D01*
X134025761Y-112333705D01*
X134015763Y-112356808D01*
X134008879Y-112394101D01*
X134004529Y-112448972D01*
X134002132Y-112524812D01*
X134001108Y-112625013D01*
X134000877Y-112752963D01*
X134000875Y-112779174D01*
X134000875Y-113204625D01*
X133794500Y-113204625D01*
X133794500Y-112156875D01*
X133897687Y-112156875D01*
X133953181Y-112157608D01*
X133984093Y-112161587D01*
X133997587Y-112171484D01*
X134000827Y-112189967D01*
X134000875Y-112195341D01*
X134000875Y-112233807D01*
X134047278Y-112187403D01*
X134091119Y-112153601D01*
X134140156Y-112141511D01*
X134157370Y-112140999D01*
X134239134Y-112150228D01*
X134295263Y-112177859D01*
X134320971Y-112211796D01*
X134339052Y-112251480D01*
X134400197Y-112196240D01*
X134443772Y-112161538D01*
X134483095Y-112145234D01*
X134533837Y-112141007D01*
X134537138Y-112140999D01*
X134596682Y-112147088D01*
G36*
X128285875Y-112109250D02*
X128079500Y-112109250D01*
X128079500Y-111950500D01*
X128285875Y-111950500D01*
X128285875Y-112109250D01*
X128285875Y-112109250D01*
G37*
X128285875Y-112109250D02*
X128079500Y-112109250D01*
X128079500Y-111950500D01*
X128285875Y-111950500D01*
X128285875Y-112109250D01*
D12*
X126071334Y-103481143D02*
X126023715Y-103528762D01*
X125880858Y-103576381D01*
X125785620Y-103576381D01*
X125642762Y-103528762D01*
X125547524Y-103433524D01*
X125499905Y-103338286D01*
X125452286Y-103147810D01*
X125452286Y-103004952D01*
X125499905Y-102814476D01*
X125547524Y-102719238D01*
X125642762Y-102624000D01*
X125785620Y-102576381D01*
X125880858Y-102576381D01*
X126023715Y-102624000D01*
X126071334Y-102671619D01*
X127023715Y-103576381D02*
X126452286Y-103576381D01*
X126738000Y-103576381D02*
X126738000Y-102576381D01*
X126642762Y-102719238D01*
X126547524Y-102814476D01*
X126452286Y-102862095D01*
X137247334Y-103481143D02*
X137199715Y-103528762D01*
X137056858Y-103576381D01*
X136961620Y-103576381D01*
X136818762Y-103528762D01*
X136723524Y-103433524D01*
X136675905Y-103338286D01*
X136628286Y-103147810D01*
X136628286Y-103004952D01*
X136675905Y-102814476D01*
X136723524Y-102719238D01*
X136818762Y-102624000D01*
X136961620Y-102576381D01*
X137056858Y-102576381D01*
X137199715Y-102624000D01*
X137247334Y-102671619D01*
X137628286Y-102671619D02*
X137675905Y-102624000D01*
X137771143Y-102576381D01*
X138009239Y-102576381D01*
X138104477Y-102624000D01*
X138152096Y-102671619D01*
X138199715Y-102766857D01*
X138199715Y-102862095D01*
X138152096Y-103004952D01*
X137580667Y-103576381D01*
X138199715Y-103576381D01*
X107211905Y-110942381D02*
X107211905Y-109942381D01*
X107592858Y-109942381D01*
X107688096Y-109990000D01*
X107735715Y-110037619D01*
X107783334Y-110132857D01*
X107783334Y-110275714D01*
X107735715Y-110370952D01*
X107688096Y-110418571D01*
X107592858Y-110466190D01*
X107211905Y-110466190D01*
X108735715Y-110942381D02*
X108164286Y-110942381D01*
X108450000Y-110942381D02*
X108450000Y-109942381D01*
X108354762Y-110085238D01*
X108259524Y-110180476D01*
X108164286Y-110228095D01*
X107211905Y-105862381D02*
X107211905Y-104862381D01*
X107592858Y-104862381D01*
X107688096Y-104910000D01*
X107735715Y-104957619D01*
X107783334Y-105052857D01*
X107783334Y-105195714D01*
X107735715Y-105290952D01*
X107688096Y-105338571D01*
X107592858Y-105386190D01*
X107211905Y-105386190D01*
X108164286Y-104957619D02*
X108211905Y-104910000D01*
X108307143Y-104862381D01*
X108545239Y-104862381D01*
X108640477Y-104910000D01*
X108688096Y-104957619D01*
X108735715Y-105052857D01*
X108735715Y-105148095D01*
X108688096Y-105290952D01*
X108116667Y-105862381D01*
X108735715Y-105862381D01*
X107211905Y-97226381D02*
X107211905Y-96226381D01*
X107592858Y-96226381D01*
X107688096Y-96274000D01*
X107735715Y-96321619D01*
X107783334Y-96416857D01*
X107783334Y-96559714D01*
X107735715Y-96654952D01*
X107688096Y-96702571D01*
X107592858Y-96750190D01*
X107211905Y-96750190D01*
X108116667Y-96226381D02*
X108735715Y-96226381D01*
X108402381Y-96607333D01*
X108545239Y-96607333D01*
X108640477Y-96654952D01*
X108688096Y-96702571D01*
X108735715Y-96797810D01*
X108735715Y-97035905D01*
X108688096Y-97131143D01*
X108640477Y-97178762D01*
X108545239Y-97226381D01*
X108259524Y-97226381D01*
X108164286Y-97178762D01*
X108116667Y-97131143D01*
X117252762Y-93765619D02*
X117157524Y-93718000D01*
X117062286Y-93622762D01*
X116919429Y-93479905D01*
X116824190Y-93432286D01*
X116728952Y-93432286D01*
X116776571Y-93670381D02*
X116681333Y-93622762D01*
X116586095Y-93527524D01*
X116538476Y-93337048D01*
X116538476Y-93003714D01*
X116586095Y-92813238D01*
X116681333Y-92718000D01*
X116776571Y-92670381D01*
X116967048Y-92670381D01*
X117062286Y-92718000D01*
X117157524Y-92813238D01*
X117205143Y-93003714D01*
X117205143Y-93337048D01*
X117157524Y-93527524D01*
X117062286Y-93622762D01*
X116967048Y-93670381D01*
X116776571Y-93670381D01*
X118157524Y-93670381D02*
X117586095Y-93670381D01*
X117871809Y-93670381D02*
X117871809Y-92670381D01*
X117776571Y-92813238D01*
X117681333Y-92908476D01*
X117586095Y-92956095D01*
X138080762Y-107735619D02*
X137985524Y-107688000D01*
X137890286Y-107592762D01*
X137747429Y-107449905D01*
X137652190Y-107402286D01*
X137556952Y-107402286D01*
X137604571Y-107640381D02*
X137509333Y-107592762D01*
X137414095Y-107497524D01*
X137366476Y-107307048D01*
X137366476Y-106973714D01*
X137414095Y-106783238D01*
X137509333Y-106688000D01*
X137604571Y-106640381D01*
X137795048Y-106640381D01*
X137890286Y-106688000D01*
X137985524Y-106783238D01*
X138033143Y-106973714D01*
X138033143Y-107307048D01*
X137985524Y-107497524D01*
X137890286Y-107592762D01*
X137795048Y-107640381D01*
X137604571Y-107640381D01*
X138414095Y-106735619D02*
X138461714Y-106688000D01*
X138556952Y-106640381D01*
X138795048Y-106640381D01*
X138890286Y-106688000D01*
X138937905Y-106735619D01*
X138985524Y-106830857D01*
X138985524Y-106926095D01*
X138937905Y-107068952D01*
X138366476Y-107640381D01*
X138985524Y-107640381D01*
X118054381Y-106846666D02*
X117578190Y-107180000D01*
X118054381Y-107418095D02*
X117054381Y-107418095D01*
X117054381Y-107037142D01*
X117102000Y-106941904D01*
X117149619Y-106894285D01*
X117244857Y-106846666D01*
X117387714Y-106846666D01*
X117482952Y-106894285D01*
X117530571Y-106941904D01*
X117578190Y-107037142D01*
X117578190Y-107418095D01*
X118054381Y-105894285D02*
X118054381Y-106465714D01*
X118054381Y-106180000D02*
X117054381Y-106180000D01*
X117197238Y-106275238D01*
X117292476Y-106370476D01*
X117340095Y-106465714D01*
X128865334Y-109926381D02*
X128532000Y-109450190D01*
X128293905Y-109926381D02*
X128293905Y-108926381D01*
X128674858Y-108926381D01*
X128770096Y-108974000D01*
X128817715Y-109021619D01*
X128865334Y-109116857D01*
X128865334Y-109259714D01*
X128817715Y-109354952D01*
X128770096Y-109402571D01*
X128674858Y-109450190D01*
X128293905Y-109450190D01*
X129246286Y-109021619D02*
X129293905Y-108974000D01*
X129389143Y-108926381D01*
X129627239Y-108926381D01*
X129722477Y-108974000D01*
X129770096Y-109021619D01*
X129817715Y-109116857D01*
X129817715Y-109212095D01*
X129770096Y-109354952D01*
X129198667Y-109926381D01*
X129817715Y-109926381D01*
M02*
