G04 #@! TF.FileFunction,Soldermask,Bot*
%FSLAX46Y46*%
G04 Gerber Fmt 4.6, Leading zero omitted, Abs format (unit mm)*
G04 Created by KiCad (PCBNEW 4.0.5) date 07/12/17 21:06:27*
%MOMM*%
%LPD*%
G01*
G04 APERTURE LIST*
%ADD10C,0.100000*%
%ADD11C,0.010000*%
%ADD12R,2.000000X2.000000*%
%ADD13C,2.000000*%
%ADD14R,2.100000X2.100000*%
%ADD15O,1.900000X1.300000*%
%ADD16R,1.900000X1.300000*%
%ADD17O,2.000000X2.000000*%
%ADD18C,0.254000*%
G04 APERTURE END LIST*
D10*
D11*
G36*
X130032125Y-104313591D02*
X130032567Y-104448231D01*
X130033827Y-104571796D01*
X130035809Y-104680578D01*
X130038414Y-104770870D01*
X130041546Y-104838966D01*
X130045107Y-104881158D01*
X130047318Y-104892268D01*
X130079942Y-104935841D01*
X130136119Y-104966409D01*
X130209186Y-104980719D01*
X130229775Y-104981375D01*
X130302000Y-104981375D01*
X130302000Y-104918433D01*
X130296627Y-104870387D01*
X130278065Y-104843405D01*
X130270250Y-104838500D01*
X130261594Y-104832809D01*
X130254673Y-104823801D01*
X130249292Y-104808181D01*
X130245259Y-104782652D01*
X130242379Y-104743917D01*
X130240459Y-104688680D01*
X130239305Y-104613645D01*
X130238724Y-104515515D01*
X130238521Y-104390994D01*
X130238500Y-104298191D01*
X130238500Y-103774875D01*
X130032125Y-103774875D01*
X130032125Y-104313591D01*
X130032125Y-104313591D01*
G37*
X130032125Y-104313591D02*
X130032567Y-104448231D01*
X130033827Y-104571796D01*
X130035809Y-104680578D01*
X130038414Y-104770870D01*
X130041546Y-104838966D01*
X130045107Y-104881158D01*
X130047318Y-104892268D01*
X130079942Y-104935841D01*
X130136119Y-104966409D01*
X130209186Y-104980719D01*
X130229775Y-104981375D01*
X130302000Y-104981375D01*
X130302000Y-104918433D01*
X130296627Y-104870387D01*
X130278065Y-104843405D01*
X130270250Y-104838500D01*
X130261594Y-104832809D01*
X130254673Y-104823801D01*
X130249292Y-104808181D01*
X130245259Y-104782652D01*
X130242379Y-104743917D01*
X130240459Y-104688680D01*
X130239305Y-104613645D01*
X130238724Y-104515515D01*
X130238521Y-104390994D01*
X130238500Y-104298191D01*
X130238500Y-103774875D01*
X130032125Y-103774875D01*
X130032125Y-104313591D01*
G36*
X130510300Y-103774055D02*
X130435212Y-103813141D01*
X130393151Y-103852584D01*
X130367904Y-103886841D01*
X130348881Y-103924831D01*
X130335252Y-103971477D01*
X130326190Y-104031697D01*
X130320867Y-104110413D01*
X130318454Y-104212544D01*
X130318053Y-104298750D01*
X130318982Y-104394097D01*
X130321556Y-104482497D01*
X130325451Y-104557328D01*
X130330347Y-104611967D01*
X130334449Y-104635600D01*
X130367476Y-104708123D01*
X130419628Y-104771328D01*
X130481833Y-104814456D01*
X130487281Y-104816846D01*
X130549072Y-104832332D01*
X130624631Y-104837086D01*
X130699066Y-104831155D01*
X130754438Y-104815999D01*
X130814552Y-104776699D01*
X130868539Y-104720108D01*
X130904172Y-104659053D01*
X130904241Y-104658872D01*
X130909940Y-104627605D01*
X130914688Y-104569176D01*
X130918273Y-104488165D01*
X130920484Y-104389153D01*
X130921100Y-104295991D01*
X130714750Y-104295991D01*
X130714423Y-104405153D01*
X130713212Y-104486992D01*
X130710774Y-104545933D01*
X130706767Y-104586398D01*
X130700847Y-104612811D01*
X130692671Y-104629596D01*
X130688478Y-104634843D01*
X130647640Y-104659690D01*
X130600109Y-104661168D01*
X130558658Y-104639850D01*
X130548963Y-104628592D01*
X130539915Y-104610297D01*
X130533288Y-104582029D01*
X130528745Y-104539298D01*
X130525951Y-104477612D01*
X130524568Y-104392480D01*
X130524250Y-104298750D01*
X130524702Y-104190257D01*
X130526279Y-104109013D01*
X130529320Y-104050527D01*
X130534161Y-104010306D01*
X130541137Y-103983860D01*
X130548963Y-103968907D01*
X130586162Y-103940291D01*
X130633654Y-103935375D01*
X130679773Y-103954926D01*
X130685719Y-103959897D01*
X130695786Y-103971609D01*
X130703235Y-103988904D01*
X130708453Y-104016264D01*
X130711826Y-104058167D01*
X130713741Y-104119092D01*
X130714585Y-104203518D01*
X130714750Y-104295991D01*
X130921100Y-104295991D01*
X130921125Y-104292275D01*
X130920943Y-104182550D01*
X130920084Y-104099561D01*
X130918079Y-104038295D01*
X130914460Y-103993737D01*
X130908757Y-103960876D01*
X130900503Y-103934697D01*
X130889229Y-103910187D01*
X130884570Y-103901240D01*
X130832928Y-103835070D01*
X130762763Y-103788582D01*
X130680992Y-103762461D01*
X130594532Y-103757390D01*
X130510300Y-103774055D01*
X130510300Y-103774055D01*
G37*
X130510300Y-103774055D02*
X130435212Y-103813141D01*
X130393151Y-103852584D01*
X130367904Y-103886841D01*
X130348881Y-103924831D01*
X130335252Y-103971477D01*
X130326190Y-104031697D01*
X130320867Y-104110413D01*
X130318454Y-104212544D01*
X130318053Y-104298750D01*
X130318982Y-104394097D01*
X130321556Y-104482497D01*
X130325451Y-104557328D01*
X130330347Y-104611967D01*
X130334449Y-104635600D01*
X130367476Y-104708123D01*
X130419628Y-104771328D01*
X130481833Y-104814456D01*
X130487281Y-104816846D01*
X130549072Y-104832332D01*
X130624631Y-104837086D01*
X130699066Y-104831155D01*
X130754438Y-104815999D01*
X130814552Y-104776699D01*
X130868539Y-104720108D01*
X130904172Y-104659053D01*
X130904241Y-104658872D01*
X130909940Y-104627605D01*
X130914688Y-104569176D01*
X130918273Y-104488165D01*
X130920484Y-104389153D01*
X130921100Y-104295991D01*
X130714750Y-104295991D01*
X130714423Y-104405153D01*
X130713212Y-104486992D01*
X130710774Y-104545933D01*
X130706767Y-104586398D01*
X130700847Y-104612811D01*
X130692671Y-104629596D01*
X130688478Y-104634843D01*
X130647640Y-104659690D01*
X130600109Y-104661168D01*
X130558658Y-104639850D01*
X130548963Y-104628592D01*
X130539915Y-104610297D01*
X130533288Y-104582029D01*
X130528745Y-104539298D01*
X130525951Y-104477612D01*
X130524568Y-104392480D01*
X130524250Y-104298750D01*
X130524702Y-104190257D01*
X130526279Y-104109013D01*
X130529320Y-104050527D01*
X130534161Y-104010306D01*
X130541137Y-103983860D01*
X130548963Y-103968907D01*
X130586162Y-103940291D01*
X130633654Y-103935375D01*
X130679773Y-103954926D01*
X130685719Y-103959897D01*
X130695786Y-103971609D01*
X130703235Y-103988904D01*
X130708453Y-104016264D01*
X130711826Y-104058167D01*
X130713741Y-104119092D01*
X130714585Y-104203518D01*
X130714750Y-104295991D01*
X130921100Y-104295991D01*
X130921125Y-104292275D01*
X130920943Y-104182550D01*
X130920084Y-104099561D01*
X130918079Y-104038295D01*
X130914460Y-103993737D01*
X130908757Y-103960876D01*
X130900503Y-103934697D01*
X130889229Y-103910187D01*
X130884570Y-103901240D01*
X130832928Y-103835070D01*
X130762763Y-103788582D01*
X130680992Y-103762461D01*
X130594532Y-103757390D01*
X130510300Y-103774055D01*
G36*
X129533207Y-103772763D02*
X129470778Y-103797503D01*
X129418483Y-103841576D01*
X129390169Y-103876175D01*
X129375999Y-103899114D01*
X129366146Y-103927644D01*
X129359595Y-103968205D01*
X129355331Y-104027239D01*
X129352339Y-104111186D01*
X129352175Y-104117288D01*
X129346911Y-104314625D01*
X129730500Y-104314625D01*
X129730500Y-104453967D01*
X129727218Y-104542791D01*
X129716206Y-104604281D01*
X129695721Y-104642283D01*
X129664015Y-104660644D01*
X129635250Y-104663875D01*
X129588595Y-104651792D01*
X129557897Y-104614649D01*
X129542369Y-104551096D01*
X129540000Y-104501592D01*
X129540000Y-104409875D01*
X129346242Y-104409875D01*
X129351840Y-104543660D01*
X129358849Y-104628335D01*
X129374238Y-104690372D01*
X129401972Y-104738573D01*
X129446017Y-104781744D01*
X129466083Y-104797341D01*
X129520383Y-104822358D01*
X129592707Y-104835245D01*
X129671587Y-104835630D01*
X129745554Y-104823143D01*
X129786063Y-104807695D01*
X129836915Y-104772459D01*
X129882003Y-104726639D01*
X129889250Y-104716774D01*
X129902324Y-104696550D01*
X129912229Y-104676432D01*
X129919482Y-104651777D01*
X129924596Y-104617944D01*
X129928086Y-104570293D01*
X129930467Y-104504182D01*
X129932254Y-104414969D01*
X129933713Y-104315840D01*
X129935166Y-104202796D01*
X129935702Y-104116705D01*
X129935253Y-104078960D01*
X129730500Y-104078960D01*
X129730500Y-104171750D01*
X129535591Y-104171750D01*
X129544282Y-104075906D01*
X129554672Y-104004950D01*
X129572197Y-103960755D01*
X129599757Y-103938618D01*
X129631976Y-103933625D01*
X129681200Y-103943676D01*
X129712631Y-103975640D01*
X129728107Y-104032228D01*
X129730500Y-104078960D01*
X129935253Y-104078960D01*
X129934941Y-104052771D01*
X129932506Y-104006201D01*
X129928019Y-103972202D01*
X129921101Y-103945979D01*
X129911375Y-103922739D01*
X129901126Y-103902712D01*
X129848463Y-103831427D01*
X129778404Y-103785313D01*
X129689246Y-103763531D01*
X129615914Y-103762238D01*
X129533207Y-103772763D01*
X129533207Y-103772763D01*
G37*
X129533207Y-103772763D02*
X129470778Y-103797503D01*
X129418483Y-103841576D01*
X129390169Y-103876175D01*
X129375999Y-103899114D01*
X129366146Y-103927644D01*
X129359595Y-103968205D01*
X129355331Y-104027239D01*
X129352339Y-104111186D01*
X129352175Y-104117288D01*
X129346911Y-104314625D01*
X129730500Y-104314625D01*
X129730500Y-104453967D01*
X129727218Y-104542791D01*
X129716206Y-104604281D01*
X129695721Y-104642283D01*
X129664015Y-104660644D01*
X129635250Y-104663875D01*
X129588595Y-104651792D01*
X129557897Y-104614649D01*
X129542369Y-104551096D01*
X129540000Y-104501592D01*
X129540000Y-104409875D01*
X129346242Y-104409875D01*
X129351840Y-104543660D01*
X129358849Y-104628335D01*
X129374238Y-104690372D01*
X129401972Y-104738573D01*
X129446017Y-104781744D01*
X129466083Y-104797341D01*
X129520383Y-104822358D01*
X129592707Y-104835245D01*
X129671587Y-104835630D01*
X129745554Y-104823143D01*
X129786063Y-104807695D01*
X129836915Y-104772459D01*
X129882003Y-104726639D01*
X129889250Y-104716774D01*
X129902324Y-104696550D01*
X129912229Y-104676432D01*
X129919482Y-104651777D01*
X129924596Y-104617944D01*
X129928086Y-104570293D01*
X129930467Y-104504182D01*
X129932254Y-104414969D01*
X129933713Y-104315840D01*
X129935166Y-104202796D01*
X129935702Y-104116705D01*
X129935253Y-104078960D01*
X129730500Y-104078960D01*
X129730500Y-104171750D01*
X129535591Y-104171750D01*
X129544282Y-104075906D01*
X129554672Y-104004950D01*
X129572197Y-103960755D01*
X129599757Y-103938618D01*
X129631976Y-103933625D01*
X129681200Y-103943676D01*
X129712631Y-103975640D01*
X129728107Y-104032228D01*
X129730500Y-104078960D01*
X129935253Y-104078960D01*
X129934941Y-104052771D01*
X129932506Y-104006201D01*
X129928019Y-103972202D01*
X129921101Y-103945979D01*
X129911375Y-103922739D01*
X129901126Y-103902712D01*
X129848463Y-103831427D01*
X129778404Y-103785313D01*
X129689246Y-103763531D01*
X129615914Y-103762238D01*
X129533207Y-103772763D01*
G36*
X128851402Y-103777750D02*
X128777530Y-103813550D01*
X128726063Y-103871142D01*
X128695518Y-103952030D01*
X128685418Y-104029382D01*
X128679168Y-104140000D01*
X128889125Y-104140000D01*
X128889125Y-104055862D01*
X128893930Y-103991871D01*
X128910474Y-103953585D01*
X128941949Y-103936128D01*
X128969215Y-103933625D01*
X128999767Y-103935780D01*
X129022960Y-103944781D01*
X129039795Y-103964432D01*
X129051275Y-103998536D01*
X129058402Y-104050897D01*
X129062178Y-104125318D01*
X129063604Y-104225603D01*
X129063750Y-104292498D01*
X129063106Y-104410972D01*
X129060538Y-104501423D01*
X129055095Y-104567563D01*
X129045824Y-104613104D01*
X129031773Y-104641758D01*
X129011990Y-104657237D01*
X128985524Y-104663253D01*
X128968500Y-104663875D01*
X128921845Y-104651792D01*
X128891147Y-104614649D01*
X128875619Y-104551096D01*
X128873250Y-104501592D01*
X128873250Y-104409875D01*
X128679492Y-104409875D01*
X128685090Y-104543660D01*
X128692099Y-104628335D01*
X128707488Y-104690372D01*
X128735222Y-104738573D01*
X128779267Y-104781744D01*
X128799333Y-104797341D01*
X128853633Y-104822358D01*
X128925957Y-104835245D01*
X129004837Y-104835630D01*
X129078804Y-104823143D01*
X129119313Y-104807695D01*
X129170165Y-104772459D01*
X129215253Y-104726639D01*
X129222500Y-104716774D01*
X129235574Y-104696550D01*
X129245479Y-104676432D01*
X129252732Y-104651777D01*
X129257846Y-104617944D01*
X129261336Y-104570293D01*
X129263717Y-104504182D01*
X129265504Y-104414969D01*
X129266963Y-104315840D01*
X129268416Y-104202796D01*
X129268952Y-104116705D01*
X129268191Y-104052771D01*
X129265756Y-104006201D01*
X129261269Y-103972202D01*
X129254351Y-103945979D01*
X129244625Y-103922739D01*
X129234376Y-103902712D01*
X129181713Y-103831427D01*
X129111654Y-103785313D01*
X129022496Y-103763531D01*
X128949164Y-103762238D01*
X128851402Y-103777750D01*
X128851402Y-103777750D01*
G37*
X128851402Y-103777750D02*
X128777530Y-103813550D01*
X128726063Y-103871142D01*
X128695518Y-103952030D01*
X128685418Y-104029382D01*
X128679168Y-104140000D01*
X128889125Y-104140000D01*
X128889125Y-104055862D01*
X128893930Y-103991871D01*
X128910474Y-103953585D01*
X128941949Y-103936128D01*
X128969215Y-103933625D01*
X128999767Y-103935780D01*
X129022960Y-103944781D01*
X129039795Y-103964432D01*
X129051275Y-103998536D01*
X129058402Y-104050897D01*
X129062178Y-104125318D01*
X129063604Y-104225603D01*
X129063750Y-104292498D01*
X129063106Y-104410972D01*
X129060538Y-104501423D01*
X129055095Y-104567563D01*
X129045824Y-104613104D01*
X129031773Y-104641758D01*
X129011990Y-104657237D01*
X128985524Y-104663253D01*
X128968500Y-104663875D01*
X128921845Y-104651792D01*
X128891147Y-104614649D01*
X128875619Y-104551096D01*
X128873250Y-104501592D01*
X128873250Y-104409875D01*
X128679492Y-104409875D01*
X128685090Y-104543660D01*
X128692099Y-104628335D01*
X128707488Y-104690372D01*
X128735222Y-104738573D01*
X128779267Y-104781744D01*
X128799333Y-104797341D01*
X128853633Y-104822358D01*
X128925957Y-104835245D01*
X129004837Y-104835630D01*
X129078804Y-104823143D01*
X129119313Y-104807695D01*
X129170165Y-104772459D01*
X129215253Y-104726639D01*
X129222500Y-104716774D01*
X129235574Y-104696550D01*
X129245479Y-104676432D01*
X129252732Y-104651777D01*
X129257846Y-104617944D01*
X129261336Y-104570293D01*
X129263717Y-104504182D01*
X129265504Y-104414969D01*
X129266963Y-104315840D01*
X129268416Y-104202796D01*
X129268952Y-104116705D01*
X129268191Y-104052771D01*
X129265756Y-104006201D01*
X129261269Y-103972202D01*
X129254351Y-103945979D01*
X129244625Y-103922739D01*
X129234376Y-103902712D01*
X129181713Y-103831427D01*
X129111654Y-103785313D01*
X129022496Y-103763531D01*
X128949164Y-103762238D01*
X128851402Y-103777750D01*
G36*
X125438277Y-103777750D02*
X125364405Y-103813550D01*
X125312938Y-103871142D01*
X125282393Y-103952030D01*
X125272293Y-104029382D01*
X125266043Y-104140000D01*
X125476000Y-104140000D01*
X125476000Y-104055862D01*
X125480805Y-103991871D01*
X125497349Y-103953585D01*
X125528824Y-103936128D01*
X125556090Y-103933625D01*
X125586642Y-103935780D01*
X125609835Y-103944781D01*
X125626670Y-103964432D01*
X125638150Y-103998536D01*
X125645277Y-104050897D01*
X125649053Y-104125318D01*
X125650479Y-104225603D01*
X125650625Y-104292498D01*
X125649981Y-104410972D01*
X125647413Y-104501423D01*
X125641970Y-104567563D01*
X125632699Y-104613104D01*
X125618648Y-104641758D01*
X125598865Y-104657237D01*
X125572399Y-104663253D01*
X125555375Y-104663875D01*
X125508720Y-104651792D01*
X125478022Y-104614649D01*
X125462494Y-104551096D01*
X125460125Y-104501592D01*
X125460125Y-104409875D01*
X125266367Y-104409875D01*
X125271965Y-104543660D01*
X125278974Y-104628335D01*
X125294363Y-104690372D01*
X125322097Y-104738573D01*
X125366142Y-104781744D01*
X125386208Y-104797341D01*
X125440508Y-104822358D01*
X125512832Y-104835245D01*
X125591712Y-104835630D01*
X125665679Y-104823143D01*
X125706188Y-104807695D01*
X125757040Y-104772459D01*
X125802128Y-104726639D01*
X125809375Y-104716774D01*
X125822449Y-104696550D01*
X125832354Y-104676432D01*
X125839607Y-104651777D01*
X125844721Y-104617944D01*
X125848211Y-104570293D01*
X125850592Y-104504182D01*
X125852379Y-104414969D01*
X125853838Y-104315840D01*
X125855291Y-104202796D01*
X125855827Y-104116705D01*
X125855066Y-104052771D01*
X125852631Y-104006201D01*
X125848144Y-103972202D01*
X125841226Y-103945979D01*
X125831500Y-103922739D01*
X125821251Y-103902712D01*
X125768588Y-103831427D01*
X125698529Y-103785313D01*
X125609371Y-103763531D01*
X125536039Y-103762238D01*
X125438277Y-103777750D01*
X125438277Y-103777750D01*
G37*
X125438277Y-103777750D02*
X125364405Y-103813550D01*
X125312938Y-103871142D01*
X125282393Y-103952030D01*
X125272293Y-104029382D01*
X125266043Y-104140000D01*
X125476000Y-104140000D01*
X125476000Y-104055862D01*
X125480805Y-103991871D01*
X125497349Y-103953585D01*
X125528824Y-103936128D01*
X125556090Y-103933625D01*
X125586642Y-103935780D01*
X125609835Y-103944781D01*
X125626670Y-103964432D01*
X125638150Y-103998536D01*
X125645277Y-104050897D01*
X125649053Y-104125318D01*
X125650479Y-104225603D01*
X125650625Y-104292498D01*
X125649981Y-104410972D01*
X125647413Y-104501423D01*
X125641970Y-104567563D01*
X125632699Y-104613104D01*
X125618648Y-104641758D01*
X125598865Y-104657237D01*
X125572399Y-104663253D01*
X125555375Y-104663875D01*
X125508720Y-104651792D01*
X125478022Y-104614649D01*
X125462494Y-104551096D01*
X125460125Y-104501592D01*
X125460125Y-104409875D01*
X125266367Y-104409875D01*
X125271965Y-104543660D01*
X125278974Y-104628335D01*
X125294363Y-104690372D01*
X125322097Y-104738573D01*
X125366142Y-104781744D01*
X125386208Y-104797341D01*
X125440508Y-104822358D01*
X125512832Y-104835245D01*
X125591712Y-104835630D01*
X125665679Y-104823143D01*
X125706188Y-104807695D01*
X125757040Y-104772459D01*
X125802128Y-104726639D01*
X125809375Y-104716774D01*
X125822449Y-104696550D01*
X125832354Y-104676432D01*
X125839607Y-104651777D01*
X125844721Y-104617944D01*
X125848211Y-104570293D01*
X125850592Y-104504182D01*
X125852379Y-104414969D01*
X125853838Y-104315840D01*
X125855291Y-104202796D01*
X125855827Y-104116705D01*
X125855066Y-104052771D01*
X125852631Y-104006201D01*
X125848144Y-103972202D01*
X125841226Y-103945979D01*
X125831500Y-103922739D01*
X125821251Y-103902712D01*
X125768588Y-103831427D01*
X125698529Y-103785313D01*
X125609371Y-103763531D01*
X125536039Y-103762238D01*
X125438277Y-103777750D01*
G36*
X124811175Y-103774055D02*
X124736087Y-103813141D01*
X124694026Y-103852584D01*
X124668779Y-103886841D01*
X124649756Y-103924831D01*
X124636127Y-103971477D01*
X124627065Y-104031697D01*
X124621742Y-104110413D01*
X124619329Y-104212544D01*
X124618928Y-104298750D01*
X124619857Y-104394097D01*
X124622431Y-104482497D01*
X124626326Y-104557328D01*
X124631222Y-104611967D01*
X124635324Y-104635600D01*
X124668351Y-104708123D01*
X124720503Y-104771328D01*
X124782708Y-104814456D01*
X124788156Y-104816846D01*
X124849947Y-104832332D01*
X124925506Y-104837086D01*
X124999941Y-104831155D01*
X125055313Y-104815999D01*
X125115427Y-104776699D01*
X125169414Y-104720108D01*
X125205047Y-104659053D01*
X125205116Y-104658872D01*
X125210815Y-104627605D01*
X125215563Y-104569176D01*
X125219148Y-104488165D01*
X125221359Y-104389153D01*
X125221975Y-104295991D01*
X125015625Y-104295991D01*
X125015298Y-104405153D01*
X125014087Y-104486992D01*
X125011649Y-104545933D01*
X125007642Y-104586398D01*
X125001722Y-104612811D01*
X124993546Y-104629596D01*
X124989353Y-104634843D01*
X124948515Y-104659690D01*
X124900984Y-104661168D01*
X124859533Y-104639850D01*
X124849838Y-104628592D01*
X124840790Y-104610297D01*
X124834163Y-104582029D01*
X124829620Y-104539298D01*
X124826826Y-104477612D01*
X124825443Y-104392480D01*
X124825125Y-104298750D01*
X124825577Y-104190257D01*
X124827154Y-104109013D01*
X124830195Y-104050527D01*
X124835036Y-104010306D01*
X124842012Y-103983860D01*
X124849838Y-103968907D01*
X124887037Y-103940291D01*
X124934529Y-103935375D01*
X124980648Y-103954926D01*
X124986594Y-103959897D01*
X124996661Y-103971609D01*
X125004110Y-103988904D01*
X125009328Y-104016264D01*
X125012701Y-104058167D01*
X125014616Y-104119092D01*
X125015460Y-104203518D01*
X125015625Y-104295991D01*
X125221975Y-104295991D01*
X125222000Y-104292275D01*
X125221818Y-104182550D01*
X125220959Y-104099561D01*
X125218954Y-104038295D01*
X125215335Y-103993737D01*
X125209632Y-103960876D01*
X125201378Y-103934697D01*
X125190104Y-103910187D01*
X125185445Y-103901240D01*
X125133803Y-103835070D01*
X125063638Y-103788582D01*
X124981867Y-103762461D01*
X124895407Y-103757390D01*
X124811175Y-103774055D01*
X124811175Y-103774055D01*
G37*
X124811175Y-103774055D02*
X124736087Y-103813141D01*
X124694026Y-103852584D01*
X124668779Y-103886841D01*
X124649756Y-103924831D01*
X124636127Y-103971477D01*
X124627065Y-104031697D01*
X124621742Y-104110413D01*
X124619329Y-104212544D01*
X124618928Y-104298750D01*
X124619857Y-104394097D01*
X124622431Y-104482497D01*
X124626326Y-104557328D01*
X124631222Y-104611967D01*
X124635324Y-104635600D01*
X124668351Y-104708123D01*
X124720503Y-104771328D01*
X124782708Y-104814456D01*
X124788156Y-104816846D01*
X124849947Y-104832332D01*
X124925506Y-104837086D01*
X124999941Y-104831155D01*
X125055313Y-104815999D01*
X125115427Y-104776699D01*
X125169414Y-104720108D01*
X125205047Y-104659053D01*
X125205116Y-104658872D01*
X125210815Y-104627605D01*
X125215563Y-104569176D01*
X125219148Y-104488165D01*
X125221359Y-104389153D01*
X125221975Y-104295991D01*
X125015625Y-104295991D01*
X125015298Y-104405153D01*
X125014087Y-104486992D01*
X125011649Y-104545933D01*
X125007642Y-104586398D01*
X125001722Y-104612811D01*
X124993546Y-104629596D01*
X124989353Y-104634843D01*
X124948515Y-104659690D01*
X124900984Y-104661168D01*
X124859533Y-104639850D01*
X124849838Y-104628592D01*
X124840790Y-104610297D01*
X124834163Y-104582029D01*
X124829620Y-104539298D01*
X124826826Y-104477612D01*
X124825443Y-104392480D01*
X124825125Y-104298750D01*
X124825577Y-104190257D01*
X124827154Y-104109013D01*
X124830195Y-104050527D01*
X124835036Y-104010306D01*
X124842012Y-103983860D01*
X124849838Y-103968907D01*
X124887037Y-103940291D01*
X124934529Y-103935375D01*
X124980648Y-103954926D01*
X124986594Y-103959897D01*
X124996661Y-103971609D01*
X125004110Y-103988904D01*
X125009328Y-104016264D01*
X125012701Y-104058167D01*
X125014616Y-104119092D01*
X125015460Y-104203518D01*
X125015625Y-104295991D01*
X125221975Y-104295991D01*
X125222000Y-104292275D01*
X125221818Y-104182550D01*
X125220959Y-104099561D01*
X125218954Y-104038295D01*
X125215335Y-103993737D01*
X125209632Y-103960876D01*
X125201378Y-103934697D01*
X125190104Y-103910187D01*
X125185445Y-103901240D01*
X125133803Y-103835070D01*
X125063638Y-103788582D01*
X124981867Y-103762461D01*
X124895407Y-103757390D01*
X124811175Y-103774055D01*
G36*
X134867110Y-103774864D02*
X134846912Y-103780706D01*
X134832222Y-103795651D01*
X134821342Y-103823603D01*
X134812572Y-103868466D01*
X134804213Y-103934144D01*
X134794567Y-104024540D01*
X134785751Y-104108250D01*
X134776504Y-104192764D01*
X134768189Y-104265292D01*
X134761464Y-104320358D01*
X134756988Y-104352485D01*
X134755683Y-104358449D01*
X134752059Y-104345026D01*
X134744347Y-104305236D01*
X134733443Y-104244070D01*
X134720241Y-104166518D01*
X134708705Y-104096511D01*
X134691253Y-103988295D01*
X134677834Y-103907376D01*
X134666786Y-103849818D01*
X134656448Y-103811683D01*
X134645156Y-103789035D01*
X134631250Y-103777935D01*
X134613067Y-103774446D01*
X134588945Y-103774632D01*
X134572935Y-103774875D01*
X134496260Y-103774875D01*
X134479258Y-103874093D01*
X134469179Y-103934048D01*
X134456230Y-104012657D01*
X134442497Y-104097212D01*
X134435629Y-104140000D01*
X134423725Y-104209681D01*
X134412400Y-104267497D01*
X134403132Y-104306352D01*
X134398397Y-104318809D01*
X134393441Y-104307883D01*
X134386189Y-104270104D01*
X134377352Y-104210228D01*
X134367637Y-104133010D01*
X134358760Y-104052903D01*
X134329727Y-103774875D01*
X134236739Y-103774875D01*
X134178292Y-103777660D01*
X134148951Y-103786329D01*
X134144416Y-103794718D01*
X134146876Y-103814773D01*
X134153536Y-103862296D01*
X134163822Y-103933363D01*
X134177159Y-104024053D01*
X134192971Y-104130445D01*
X134210684Y-104248616D01*
X134220638Y-104314625D01*
X134296195Y-104814687D01*
X134488665Y-104824027D01*
X134516862Y-104636795D01*
X134535997Y-104510063D01*
X134551058Y-104411643D01*
X134562648Y-104338443D01*
X134571366Y-104287370D01*
X134577816Y-104255331D01*
X134582597Y-104239234D01*
X134586311Y-104235988D01*
X134589560Y-104242499D01*
X134591859Y-104251125D01*
X134597577Y-104279688D01*
X134607262Y-104333440D01*
X134619845Y-104406223D01*
X134634256Y-104491876D01*
X134644945Y-104556718D01*
X134688401Y-104822625D01*
X134780898Y-104822625D01*
X134833550Y-104821338D01*
X134862668Y-104815542D01*
X134876428Y-104802327D01*
X134881345Y-104786906D01*
X134885668Y-104762628D01*
X134893817Y-104712446D01*
X134905080Y-104641048D01*
X134918746Y-104553116D01*
X134934106Y-104453338D01*
X134950448Y-104346396D01*
X134967061Y-104236978D01*
X134983234Y-104129767D01*
X134998257Y-104029449D01*
X135011419Y-103940709D01*
X135022008Y-103868232D01*
X135029315Y-103816703D01*
X135032628Y-103790808D01*
X135032750Y-103788990D01*
X135018280Y-103781763D01*
X134980456Y-103776673D01*
X134930824Y-103774875D01*
X134894514Y-103774221D01*
X134867110Y-103774864D01*
X134867110Y-103774864D01*
G37*
X134867110Y-103774864D02*
X134846912Y-103780706D01*
X134832222Y-103795651D01*
X134821342Y-103823603D01*
X134812572Y-103868466D01*
X134804213Y-103934144D01*
X134794567Y-104024540D01*
X134785751Y-104108250D01*
X134776504Y-104192764D01*
X134768189Y-104265292D01*
X134761464Y-104320358D01*
X134756988Y-104352485D01*
X134755683Y-104358449D01*
X134752059Y-104345026D01*
X134744347Y-104305236D01*
X134733443Y-104244070D01*
X134720241Y-104166518D01*
X134708705Y-104096511D01*
X134691253Y-103988295D01*
X134677834Y-103907376D01*
X134666786Y-103849818D01*
X134656448Y-103811683D01*
X134645156Y-103789035D01*
X134631250Y-103777935D01*
X134613067Y-103774446D01*
X134588945Y-103774632D01*
X134572935Y-103774875D01*
X134496260Y-103774875D01*
X134479258Y-103874093D01*
X134469179Y-103934048D01*
X134456230Y-104012657D01*
X134442497Y-104097212D01*
X134435629Y-104140000D01*
X134423725Y-104209681D01*
X134412400Y-104267497D01*
X134403132Y-104306352D01*
X134398397Y-104318809D01*
X134393441Y-104307883D01*
X134386189Y-104270104D01*
X134377352Y-104210228D01*
X134367637Y-104133010D01*
X134358760Y-104052903D01*
X134329727Y-103774875D01*
X134236739Y-103774875D01*
X134178292Y-103777660D01*
X134148951Y-103786329D01*
X134144416Y-103794718D01*
X134146876Y-103814773D01*
X134153536Y-103862296D01*
X134163822Y-103933363D01*
X134177159Y-104024053D01*
X134192971Y-104130445D01*
X134210684Y-104248616D01*
X134220638Y-104314625D01*
X134296195Y-104814687D01*
X134488665Y-104824027D01*
X134516862Y-104636795D01*
X134535997Y-104510063D01*
X134551058Y-104411643D01*
X134562648Y-104338443D01*
X134571366Y-104287370D01*
X134577816Y-104255331D01*
X134582597Y-104239234D01*
X134586311Y-104235988D01*
X134589560Y-104242499D01*
X134591859Y-104251125D01*
X134597577Y-104279688D01*
X134607262Y-104333440D01*
X134619845Y-104406223D01*
X134634256Y-104491876D01*
X134644945Y-104556718D01*
X134688401Y-104822625D01*
X134780898Y-104822625D01*
X134833550Y-104821338D01*
X134862668Y-104815542D01*
X134876428Y-104802327D01*
X134881345Y-104786906D01*
X134885668Y-104762628D01*
X134893817Y-104712446D01*
X134905080Y-104641048D01*
X134918746Y-104553116D01*
X134934106Y-104453338D01*
X134950448Y-104346396D01*
X134967061Y-104236978D01*
X134983234Y-104129767D01*
X134998257Y-104029449D01*
X135011419Y-103940709D01*
X135022008Y-103868232D01*
X135029315Y-103816703D01*
X135032628Y-103790808D01*
X135032750Y-103788990D01*
X135018280Y-103781763D01*
X134980456Y-103776673D01*
X134930824Y-103774875D01*
X134894514Y-103774221D01*
X134867110Y-103774864D01*
G36*
X133962235Y-103774864D02*
X133942037Y-103780706D01*
X133927347Y-103795651D01*
X133916467Y-103823603D01*
X133907697Y-103868466D01*
X133899338Y-103934144D01*
X133889692Y-104024540D01*
X133880876Y-104108250D01*
X133871629Y-104192764D01*
X133863314Y-104265292D01*
X133856589Y-104320358D01*
X133852113Y-104352485D01*
X133850808Y-104358449D01*
X133847184Y-104345026D01*
X133839472Y-104305236D01*
X133828568Y-104244070D01*
X133815366Y-104166518D01*
X133803830Y-104096511D01*
X133786378Y-103988295D01*
X133772959Y-103907376D01*
X133761911Y-103849818D01*
X133751573Y-103811683D01*
X133740281Y-103789035D01*
X133726375Y-103777935D01*
X133708192Y-103774446D01*
X133684070Y-103774632D01*
X133668060Y-103774875D01*
X133591385Y-103774875D01*
X133574383Y-103874093D01*
X133564304Y-103934048D01*
X133551355Y-104012657D01*
X133537622Y-104097212D01*
X133530754Y-104140000D01*
X133518850Y-104209681D01*
X133507525Y-104267497D01*
X133498257Y-104306352D01*
X133493522Y-104318809D01*
X133488566Y-104307883D01*
X133481314Y-104270104D01*
X133472477Y-104210228D01*
X133462762Y-104133010D01*
X133453885Y-104052903D01*
X133424852Y-103774875D01*
X133331864Y-103774875D01*
X133273417Y-103777660D01*
X133244076Y-103786329D01*
X133239541Y-103794718D01*
X133242001Y-103814773D01*
X133248661Y-103862296D01*
X133258947Y-103933363D01*
X133272284Y-104024053D01*
X133288096Y-104130445D01*
X133305809Y-104248616D01*
X133315763Y-104314625D01*
X133391320Y-104814687D01*
X133583790Y-104824027D01*
X133611987Y-104636795D01*
X133631122Y-104510063D01*
X133646183Y-104411643D01*
X133657773Y-104338443D01*
X133666491Y-104287370D01*
X133672941Y-104255331D01*
X133677722Y-104239234D01*
X133681436Y-104235988D01*
X133684685Y-104242499D01*
X133686984Y-104251125D01*
X133692702Y-104279688D01*
X133702387Y-104333440D01*
X133714970Y-104406223D01*
X133729381Y-104491876D01*
X133740070Y-104556718D01*
X133783526Y-104822625D01*
X133876023Y-104822625D01*
X133928675Y-104821338D01*
X133957793Y-104815542D01*
X133971553Y-104802327D01*
X133976470Y-104786906D01*
X133980793Y-104762628D01*
X133988942Y-104712446D01*
X134000205Y-104641048D01*
X134013871Y-104553116D01*
X134029231Y-104453338D01*
X134045573Y-104346396D01*
X134062186Y-104236978D01*
X134078359Y-104129767D01*
X134093382Y-104029449D01*
X134106544Y-103940709D01*
X134117133Y-103868232D01*
X134124440Y-103816703D01*
X134127753Y-103790808D01*
X134127875Y-103788990D01*
X134113405Y-103781763D01*
X134075581Y-103776673D01*
X134025949Y-103774875D01*
X133989639Y-103774221D01*
X133962235Y-103774864D01*
X133962235Y-103774864D01*
G37*
X133962235Y-103774864D02*
X133942037Y-103780706D01*
X133927347Y-103795651D01*
X133916467Y-103823603D01*
X133907697Y-103868466D01*
X133899338Y-103934144D01*
X133889692Y-104024540D01*
X133880876Y-104108250D01*
X133871629Y-104192764D01*
X133863314Y-104265292D01*
X133856589Y-104320358D01*
X133852113Y-104352485D01*
X133850808Y-104358449D01*
X133847184Y-104345026D01*
X133839472Y-104305236D01*
X133828568Y-104244070D01*
X133815366Y-104166518D01*
X133803830Y-104096511D01*
X133786378Y-103988295D01*
X133772959Y-103907376D01*
X133761911Y-103849818D01*
X133751573Y-103811683D01*
X133740281Y-103789035D01*
X133726375Y-103777935D01*
X133708192Y-103774446D01*
X133684070Y-103774632D01*
X133668060Y-103774875D01*
X133591385Y-103774875D01*
X133574383Y-103874093D01*
X133564304Y-103934048D01*
X133551355Y-104012657D01*
X133537622Y-104097212D01*
X133530754Y-104140000D01*
X133518850Y-104209681D01*
X133507525Y-104267497D01*
X133498257Y-104306352D01*
X133493522Y-104318809D01*
X133488566Y-104307883D01*
X133481314Y-104270104D01*
X133472477Y-104210228D01*
X133462762Y-104133010D01*
X133453885Y-104052903D01*
X133424852Y-103774875D01*
X133331864Y-103774875D01*
X133273417Y-103777660D01*
X133244076Y-103786329D01*
X133239541Y-103794718D01*
X133242001Y-103814773D01*
X133248661Y-103862296D01*
X133258947Y-103933363D01*
X133272284Y-104024053D01*
X133288096Y-104130445D01*
X133305809Y-104248616D01*
X133315763Y-104314625D01*
X133391320Y-104814687D01*
X133583790Y-104824027D01*
X133611987Y-104636795D01*
X133631122Y-104510063D01*
X133646183Y-104411643D01*
X133657773Y-104338443D01*
X133666491Y-104287370D01*
X133672941Y-104255331D01*
X133677722Y-104239234D01*
X133681436Y-104235988D01*
X133684685Y-104242499D01*
X133686984Y-104251125D01*
X133692702Y-104279688D01*
X133702387Y-104333440D01*
X133714970Y-104406223D01*
X133729381Y-104491876D01*
X133740070Y-104556718D01*
X133783526Y-104822625D01*
X133876023Y-104822625D01*
X133928675Y-104821338D01*
X133957793Y-104815542D01*
X133971553Y-104802327D01*
X133976470Y-104786906D01*
X133980793Y-104762628D01*
X133988942Y-104712446D01*
X134000205Y-104641048D01*
X134013871Y-104553116D01*
X134029231Y-104453338D01*
X134045573Y-104346396D01*
X134062186Y-104236978D01*
X134078359Y-104129767D01*
X134093382Y-104029449D01*
X134106544Y-103940709D01*
X134117133Y-103868232D01*
X134124440Y-103816703D01*
X134127753Y-103790808D01*
X134127875Y-103788990D01*
X134113405Y-103781763D01*
X134075581Y-103776673D01*
X134025949Y-103774875D01*
X133989639Y-103774221D01*
X133962235Y-103774864D01*
G36*
X133057360Y-103774864D02*
X133037162Y-103780706D01*
X133022472Y-103795651D01*
X133011592Y-103823603D01*
X133002822Y-103868466D01*
X132994463Y-103934144D01*
X132984817Y-104024540D01*
X132976001Y-104108250D01*
X132966754Y-104192764D01*
X132958439Y-104265292D01*
X132951714Y-104320358D01*
X132947238Y-104352485D01*
X132945933Y-104358449D01*
X132942309Y-104345026D01*
X132934597Y-104305236D01*
X132923693Y-104244070D01*
X132910491Y-104166518D01*
X132898955Y-104096511D01*
X132881503Y-103988295D01*
X132868084Y-103907376D01*
X132857036Y-103849818D01*
X132846698Y-103811683D01*
X132835406Y-103789035D01*
X132821500Y-103777935D01*
X132803317Y-103774446D01*
X132779195Y-103774632D01*
X132763185Y-103774875D01*
X132686510Y-103774875D01*
X132669508Y-103874093D01*
X132659429Y-103934048D01*
X132646480Y-104012657D01*
X132632747Y-104097212D01*
X132625879Y-104140000D01*
X132613975Y-104209681D01*
X132602650Y-104267497D01*
X132593382Y-104306352D01*
X132588647Y-104318809D01*
X132583691Y-104307883D01*
X132576439Y-104270104D01*
X132567602Y-104210228D01*
X132557887Y-104133010D01*
X132549010Y-104052903D01*
X132519977Y-103774875D01*
X132426989Y-103774875D01*
X132368542Y-103777660D01*
X132339201Y-103786329D01*
X132334666Y-103794718D01*
X132337126Y-103814773D01*
X132343786Y-103862296D01*
X132354072Y-103933363D01*
X132367409Y-104024053D01*
X132383221Y-104130445D01*
X132400934Y-104248616D01*
X132410888Y-104314625D01*
X132486445Y-104814687D01*
X132678915Y-104824027D01*
X132707112Y-104636795D01*
X132726247Y-104510063D01*
X132741308Y-104411643D01*
X132752898Y-104338443D01*
X132761616Y-104287370D01*
X132768066Y-104255331D01*
X132772847Y-104239234D01*
X132776561Y-104235988D01*
X132779810Y-104242499D01*
X132782109Y-104251125D01*
X132787827Y-104279688D01*
X132797512Y-104333440D01*
X132810095Y-104406223D01*
X132824506Y-104491876D01*
X132835195Y-104556718D01*
X132878651Y-104822625D01*
X132971148Y-104822625D01*
X133023800Y-104821338D01*
X133052918Y-104815542D01*
X133066678Y-104802327D01*
X133071595Y-104786906D01*
X133075918Y-104762628D01*
X133084067Y-104712446D01*
X133095330Y-104641048D01*
X133108996Y-104553116D01*
X133124356Y-104453338D01*
X133140698Y-104346396D01*
X133157311Y-104236978D01*
X133173484Y-104129767D01*
X133188507Y-104029449D01*
X133201669Y-103940709D01*
X133212258Y-103868232D01*
X133219565Y-103816703D01*
X133222878Y-103790808D01*
X133223000Y-103788990D01*
X133208530Y-103781763D01*
X133170706Y-103776673D01*
X133121074Y-103774875D01*
X133084764Y-103774221D01*
X133057360Y-103774864D01*
X133057360Y-103774864D01*
G37*
X133057360Y-103774864D02*
X133037162Y-103780706D01*
X133022472Y-103795651D01*
X133011592Y-103823603D01*
X133002822Y-103868466D01*
X132994463Y-103934144D01*
X132984817Y-104024540D01*
X132976001Y-104108250D01*
X132966754Y-104192764D01*
X132958439Y-104265292D01*
X132951714Y-104320358D01*
X132947238Y-104352485D01*
X132945933Y-104358449D01*
X132942309Y-104345026D01*
X132934597Y-104305236D01*
X132923693Y-104244070D01*
X132910491Y-104166518D01*
X132898955Y-104096511D01*
X132881503Y-103988295D01*
X132868084Y-103907376D01*
X132857036Y-103849818D01*
X132846698Y-103811683D01*
X132835406Y-103789035D01*
X132821500Y-103777935D01*
X132803317Y-103774446D01*
X132779195Y-103774632D01*
X132763185Y-103774875D01*
X132686510Y-103774875D01*
X132669508Y-103874093D01*
X132659429Y-103934048D01*
X132646480Y-104012657D01*
X132632747Y-104097212D01*
X132625879Y-104140000D01*
X132613975Y-104209681D01*
X132602650Y-104267497D01*
X132593382Y-104306352D01*
X132588647Y-104318809D01*
X132583691Y-104307883D01*
X132576439Y-104270104D01*
X132567602Y-104210228D01*
X132557887Y-104133010D01*
X132549010Y-104052903D01*
X132519977Y-103774875D01*
X132426989Y-103774875D01*
X132368542Y-103777660D01*
X132339201Y-103786329D01*
X132334666Y-103794718D01*
X132337126Y-103814773D01*
X132343786Y-103862296D01*
X132354072Y-103933363D01*
X132367409Y-104024053D01*
X132383221Y-104130445D01*
X132400934Y-104248616D01*
X132410888Y-104314625D01*
X132486445Y-104814687D01*
X132678915Y-104824027D01*
X132707112Y-104636795D01*
X132726247Y-104510063D01*
X132741308Y-104411643D01*
X132752898Y-104338443D01*
X132761616Y-104287370D01*
X132768066Y-104255331D01*
X132772847Y-104239234D01*
X132776561Y-104235988D01*
X132779810Y-104242499D01*
X132782109Y-104251125D01*
X132787827Y-104279688D01*
X132797512Y-104333440D01*
X132810095Y-104406223D01*
X132824506Y-104491876D01*
X132835195Y-104556718D01*
X132878651Y-104822625D01*
X132971148Y-104822625D01*
X133023800Y-104821338D01*
X133052918Y-104815542D01*
X133066678Y-104802327D01*
X133071595Y-104786906D01*
X133075918Y-104762628D01*
X133084067Y-104712446D01*
X133095330Y-104641048D01*
X133108996Y-104553116D01*
X133124356Y-104453338D01*
X133140698Y-104346396D01*
X133157311Y-104236978D01*
X133173484Y-104129767D01*
X133188507Y-104029449D01*
X133201669Y-103940709D01*
X133212258Y-103868232D01*
X133219565Y-103816703D01*
X133222878Y-103790808D01*
X133223000Y-103788990D01*
X133208530Y-103781763D01*
X133170706Y-103776673D01*
X133121074Y-103774875D01*
X133084764Y-103774221D01*
X133057360Y-103774864D01*
G36*
X132127625Y-104822625D02*
X132334000Y-104822625D01*
X132334000Y-104616250D01*
X132127625Y-104616250D01*
X132127625Y-104822625D01*
X132127625Y-104822625D01*
G37*
X132127625Y-104822625D02*
X132334000Y-104822625D01*
X132334000Y-104616250D01*
X132127625Y-104616250D01*
X132127625Y-104822625D01*
G36*
X131803318Y-103570980D02*
X131699207Y-103574639D01*
X131621503Y-103581229D01*
X131564875Y-103592685D01*
X131523996Y-103610938D01*
X131493537Y-103637921D01*
X131468169Y-103675568D01*
X131456931Y-103696628D01*
X131443536Y-103741120D01*
X131434003Y-103809182D01*
X131428334Y-103892874D01*
X131426528Y-103984250D01*
X131428584Y-104075369D01*
X131434504Y-104158288D01*
X131444287Y-104225064D01*
X131456931Y-104265871D01*
X131493053Y-104321091D01*
X131539192Y-104358204D01*
X131602200Y-104380872D01*
X131688930Y-104392759D01*
X131695148Y-104393217D01*
X131818063Y-104401937D01*
X131822493Y-104612281D01*
X131826922Y-104822625D01*
X132032375Y-104822625D01*
X132032375Y-103743125D01*
X131826000Y-103743125D01*
X131826000Y-104235250D01*
X131765535Y-104235250D01*
X131717050Y-104229412D01*
X131677880Y-104215117D01*
X131674253Y-104212717D01*
X131661387Y-104200407D01*
X131652669Y-104181897D01*
X131647311Y-104151466D01*
X131644524Y-104103393D01*
X131643519Y-104031957D01*
X131643438Y-103989187D01*
X131644497Y-103895734D01*
X131649197Y-103829402D01*
X131659819Y-103785590D01*
X131678648Y-103759698D01*
X131707965Y-103747124D01*
X131750053Y-103743269D01*
X131765535Y-103743124D01*
X131826000Y-103743125D01*
X132032375Y-103743125D01*
X132032375Y-103565522D01*
X131803318Y-103570980D01*
X131803318Y-103570980D01*
G37*
X131803318Y-103570980D02*
X131699207Y-103574639D01*
X131621503Y-103581229D01*
X131564875Y-103592685D01*
X131523996Y-103610938D01*
X131493537Y-103637921D01*
X131468169Y-103675568D01*
X131456931Y-103696628D01*
X131443536Y-103741120D01*
X131434003Y-103809182D01*
X131428334Y-103892874D01*
X131426528Y-103984250D01*
X131428584Y-104075369D01*
X131434504Y-104158288D01*
X131444287Y-104225064D01*
X131456931Y-104265871D01*
X131493053Y-104321091D01*
X131539192Y-104358204D01*
X131602200Y-104380872D01*
X131688930Y-104392759D01*
X131695148Y-104393217D01*
X131818063Y-104401937D01*
X131822493Y-104612281D01*
X131826922Y-104822625D01*
X132032375Y-104822625D01*
X132032375Y-103743125D01*
X131826000Y-103743125D01*
X131826000Y-104235250D01*
X131765535Y-104235250D01*
X131717050Y-104229412D01*
X131677880Y-104215117D01*
X131674253Y-104212717D01*
X131661387Y-104200407D01*
X131652669Y-104181897D01*
X131647311Y-104151466D01*
X131644524Y-104103393D01*
X131643519Y-104031957D01*
X131643438Y-103989187D01*
X131644497Y-103895734D01*
X131649197Y-103829402D01*
X131659819Y-103785590D01*
X131678648Y-103759698D01*
X131707965Y-103747124D01*
X131750053Y-103743269D01*
X131765535Y-103743124D01*
X131826000Y-103743125D01*
X132032375Y-103743125D01*
X132032375Y-103565522D01*
X131803318Y-103570980D01*
G36*
X130999516Y-103778001D02*
X130990336Y-103791739D01*
X130985941Y-103822622D01*
X130984657Y-103877186D01*
X130984625Y-103893937D01*
X130984625Y-104013000D01*
X131039054Y-104013000D01*
X131070075Y-104013849D01*
X131094244Y-104018743D01*
X131112416Y-104031206D01*
X131125445Y-104054757D01*
X131134187Y-104092919D01*
X131139496Y-104149214D01*
X131142227Y-104227162D01*
X131143235Y-104330287D01*
X131143375Y-104442758D01*
X131143375Y-104822625D01*
X131349750Y-104822625D01*
X131349750Y-103774875D01*
X131246563Y-103774875D01*
X131191114Y-103775530D01*
X131160232Y-103779402D01*
X131146736Y-103789352D01*
X131143446Y-103808240D01*
X131143375Y-103815973D01*
X131143375Y-103857072D01*
X131094532Y-103815973D01*
X131055666Y-103789400D01*
X131021080Y-103775477D01*
X131015157Y-103774874D01*
X130999516Y-103778001D01*
X130999516Y-103778001D01*
G37*
X130999516Y-103778001D02*
X130990336Y-103791739D01*
X130985941Y-103822622D01*
X130984657Y-103877186D01*
X130984625Y-103893937D01*
X130984625Y-104013000D01*
X131039054Y-104013000D01*
X131070075Y-104013849D01*
X131094244Y-104018743D01*
X131112416Y-104031206D01*
X131125445Y-104054757D01*
X131134187Y-104092919D01*
X131139496Y-104149214D01*
X131142227Y-104227162D01*
X131143235Y-104330287D01*
X131143375Y-104442758D01*
X131143375Y-104822625D01*
X131349750Y-104822625D01*
X131349750Y-103774875D01*
X131246563Y-103774875D01*
X131191114Y-103775530D01*
X131160232Y-103779402D01*
X131146736Y-103789352D01*
X131143446Y-103808240D01*
X131143375Y-103815973D01*
X131143375Y-103857072D01*
X131094532Y-103815973D01*
X131055666Y-103789400D01*
X131021080Y-103775477D01*
X131015157Y-103774874D01*
X130999516Y-103778001D01*
G36*
X128381125Y-103774875D02*
X128254125Y-103774875D01*
X128254125Y-103933625D01*
X128381125Y-103933625D01*
X128381125Y-104282316D01*
X128380976Y-104396432D01*
X128380300Y-104482887D01*
X128378751Y-104545771D01*
X128375987Y-104589173D01*
X128371664Y-104617183D01*
X128365438Y-104633888D01*
X128356965Y-104643379D01*
X128350419Y-104647441D01*
X128309383Y-104661283D01*
X128286919Y-104663875D01*
X128267296Y-104667763D01*
X128257506Y-104684680D01*
X128254297Y-104722502D01*
X128254125Y-104743250D01*
X128254125Y-104822625D01*
X128353344Y-104822565D01*
X128429959Y-104817376D01*
X128486586Y-104800474D01*
X128504552Y-104790808D01*
X128543477Y-104758933D01*
X128570158Y-104722743D01*
X128572021Y-104718396D01*
X128576436Y-104691273D01*
X128580361Y-104637455D01*
X128583605Y-104561996D01*
X128585981Y-104469950D01*
X128587297Y-104366370D01*
X128587500Y-104305654D01*
X128587500Y-103933625D01*
X128627188Y-103933625D01*
X128650742Y-103931051D01*
X128662493Y-103917918D01*
X128666500Y-103886105D01*
X128666875Y-103854250D01*
X128665589Y-103807141D01*
X128659022Y-103783640D01*
X128643116Y-103775626D01*
X128627188Y-103774875D01*
X128605854Y-103773065D01*
X128593971Y-103762855D01*
X128588780Y-103737071D01*
X128587523Y-103688540D01*
X128587500Y-103671687D01*
X128587500Y-103568500D01*
X128381125Y-103568500D01*
X128381125Y-103774875D01*
X128381125Y-103774875D01*
G37*
X128381125Y-103774875D02*
X128254125Y-103774875D01*
X128254125Y-103933625D01*
X128381125Y-103933625D01*
X128381125Y-104282316D01*
X128380976Y-104396432D01*
X128380300Y-104482887D01*
X128378751Y-104545771D01*
X128375987Y-104589173D01*
X128371664Y-104617183D01*
X128365438Y-104633888D01*
X128356965Y-104643379D01*
X128350419Y-104647441D01*
X128309383Y-104661283D01*
X128286919Y-104663875D01*
X128267296Y-104667763D01*
X128257506Y-104684680D01*
X128254297Y-104722502D01*
X128254125Y-104743250D01*
X128254125Y-104822625D01*
X128353344Y-104822565D01*
X128429959Y-104817376D01*
X128486586Y-104800474D01*
X128504552Y-104790808D01*
X128543477Y-104758933D01*
X128570158Y-104722743D01*
X128572021Y-104718396D01*
X128576436Y-104691273D01*
X128580361Y-104637455D01*
X128583605Y-104561996D01*
X128585981Y-104469950D01*
X128587297Y-104366370D01*
X128587500Y-104305654D01*
X128587500Y-103933625D01*
X128627188Y-103933625D01*
X128650742Y-103931051D01*
X128662493Y-103917918D01*
X128666500Y-103886105D01*
X128666875Y-103854250D01*
X128665589Y-103807141D01*
X128659022Y-103783640D01*
X128643116Y-103775626D01*
X128627188Y-103774875D01*
X128605854Y-103773065D01*
X128593971Y-103762855D01*
X128588780Y-103737071D01*
X128587523Y-103688540D01*
X128587500Y-103671687D01*
X128587500Y-103568500D01*
X128381125Y-103568500D01*
X128381125Y-103774875D01*
G36*
X127608689Y-104187625D02*
X127583058Y-104322818D01*
X127559377Y-104448239D01*
X127538284Y-104560466D01*
X127520418Y-104656076D01*
X127506417Y-104731648D01*
X127496921Y-104783760D01*
X127492569Y-104808989D01*
X127492358Y-104810718D01*
X127506760Y-104816619D01*
X127544843Y-104820879D01*
X127598549Y-104822619D01*
X127601816Y-104822625D01*
X127711507Y-104822625D01*
X127730250Y-104711500D01*
X127748994Y-104600375D01*
X127857423Y-104600375D01*
X127908486Y-104600208D01*
X127941646Y-104603475D01*
X127961843Y-104615826D01*
X127974018Y-104642913D01*
X127983111Y-104690385D01*
X127992734Y-104755156D01*
X128002916Y-104822625D01*
X128104708Y-104822625D01*
X128165820Y-104820264D01*
X128198319Y-104812814D01*
X128205603Y-104802781D01*
X128202527Y-104783225D01*
X128194145Y-104735987D01*
X128181105Y-104664574D01*
X128164057Y-104572490D01*
X128143652Y-104463240D01*
X128132870Y-104405906D01*
X127935636Y-104405906D01*
X127921960Y-104419259D01*
X127878595Y-104425312D01*
X127855989Y-104425750D01*
X127808733Y-104424897D01*
X127786007Y-104419412D01*
X127780593Y-104404903D01*
X127784231Y-104382093D01*
X127790508Y-104347838D01*
X127800121Y-104291464D01*
X127811510Y-104222221D01*
X127818335Y-104179687D01*
X127829906Y-104110091D01*
X127840700Y-104050837D01*
X127849211Y-104009920D01*
X127852735Y-103997125D01*
X127857836Y-104004890D01*
X127867024Y-104037468D01*
X127878985Y-104088384D01*
X127892408Y-104151164D01*
X127905978Y-104219332D01*
X127918384Y-104286415D01*
X127928310Y-104345937D01*
X127934446Y-104391424D01*
X127935636Y-104405906D01*
X128132870Y-104405906D01*
X128120537Y-104340329D01*
X128095364Y-104207264D01*
X128090130Y-104179687D01*
X127975554Y-103576437D01*
X127724786Y-103576437D01*
X127608689Y-104187625D01*
X127608689Y-104187625D01*
G37*
X127608689Y-104187625D02*
X127583058Y-104322818D01*
X127559377Y-104448239D01*
X127538284Y-104560466D01*
X127520418Y-104656076D01*
X127506417Y-104731648D01*
X127496921Y-104783760D01*
X127492569Y-104808989D01*
X127492358Y-104810718D01*
X127506760Y-104816619D01*
X127544843Y-104820879D01*
X127598549Y-104822619D01*
X127601816Y-104822625D01*
X127711507Y-104822625D01*
X127730250Y-104711500D01*
X127748994Y-104600375D01*
X127857423Y-104600375D01*
X127908486Y-104600208D01*
X127941646Y-104603475D01*
X127961843Y-104615826D01*
X127974018Y-104642913D01*
X127983111Y-104690385D01*
X127992734Y-104755156D01*
X128002916Y-104822625D01*
X128104708Y-104822625D01*
X128165820Y-104820264D01*
X128198319Y-104812814D01*
X128205603Y-104802781D01*
X128202527Y-104783225D01*
X128194145Y-104735987D01*
X128181105Y-104664574D01*
X128164057Y-104572490D01*
X128143652Y-104463240D01*
X128132870Y-104405906D01*
X127935636Y-104405906D01*
X127921960Y-104419259D01*
X127878595Y-104425312D01*
X127855989Y-104425750D01*
X127808733Y-104424897D01*
X127786007Y-104419412D01*
X127780593Y-104404903D01*
X127784231Y-104382093D01*
X127790508Y-104347838D01*
X127800121Y-104291464D01*
X127811510Y-104222221D01*
X127818335Y-104179687D01*
X127829906Y-104110091D01*
X127840700Y-104050837D01*
X127849211Y-104009920D01*
X127852735Y-103997125D01*
X127857836Y-104004890D01*
X127867024Y-104037468D01*
X127878985Y-104088384D01*
X127892408Y-104151164D01*
X127905978Y-104219332D01*
X127918384Y-104286415D01*
X127928310Y-104345937D01*
X127934446Y-104391424D01*
X127935636Y-104405906D01*
X128132870Y-104405906D01*
X128120537Y-104340329D01*
X128095364Y-104207264D01*
X128090130Y-104179687D01*
X127975554Y-103576437D01*
X127724786Y-103576437D01*
X127608689Y-104187625D01*
G36*
X127336005Y-103667718D02*
X127328301Y-103714439D01*
X127316623Y-103785780D01*
X127302068Y-103875018D01*
X127285731Y-103975430D01*
X127268709Y-104080295D01*
X127267199Y-104089610D01*
X127248279Y-104202934D01*
X127233038Y-104286324D01*
X127221122Y-104341340D01*
X127212177Y-104369541D01*
X127205849Y-104372486D01*
X127204084Y-104367422D01*
X127198420Y-104339157D01*
X127188508Y-104284681D01*
X127175243Y-104209114D01*
X127159518Y-104117578D01*
X127142226Y-104015192D01*
X127133236Y-103961317D01*
X127115666Y-103857480D01*
X127099229Y-103763866D01*
X127084790Y-103685118D01*
X127073211Y-103625877D01*
X127065356Y-103590786D01*
X127062937Y-103583462D01*
X127042191Y-103574975D01*
X126998774Y-103571056D01*
X126958025Y-103571645D01*
X126863377Y-103576437D01*
X126931048Y-103933625D01*
X126954564Y-104057748D01*
X126979886Y-104191408D01*
X127005123Y-104324619D01*
X127028382Y-104447396D01*
X127047774Y-104549757D01*
X127049093Y-104556718D01*
X127099466Y-104822625D01*
X127215351Y-104822625D01*
X127277073Y-104821406D01*
X127313950Y-104816730D01*
X127332829Y-104807064D01*
X127339534Y-104794843D01*
X127344102Y-104774087D01*
X127353667Y-104726673D01*
X127367435Y-104656766D01*
X127384611Y-104568527D01*
X127404403Y-104466120D01*
X127426016Y-104353706D01*
X127448656Y-104235450D01*
X127471529Y-104115513D01*
X127493841Y-103998058D01*
X127514798Y-103887247D01*
X127533605Y-103787245D01*
X127549470Y-103702212D01*
X127561598Y-103636312D01*
X127569194Y-103593708D01*
X127571500Y-103578748D01*
X127556977Y-103573663D01*
X127518801Y-103569996D01*
X127465062Y-103568503D01*
X127462005Y-103568500D01*
X127352510Y-103568500D01*
X127336005Y-103667718D01*
X127336005Y-103667718D01*
G37*
X127336005Y-103667718D02*
X127328301Y-103714439D01*
X127316623Y-103785780D01*
X127302068Y-103875018D01*
X127285731Y-103975430D01*
X127268709Y-104080295D01*
X127267199Y-104089610D01*
X127248279Y-104202934D01*
X127233038Y-104286324D01*
X127221122Y-104341340D01*
X127212177Y-104369541D01*
X127205849Y-104372486D01*
X127204084Y-104367422D01*
X127198420Y-104339157D01*
X127188508Y-104284681D01*
X127175243Y-104209114D01*
X127159518Y-104117578D01*
X127142226Y-104015192D01*
X127133236Y-103961317D01*
X127115666Y-103857480D01*
X127099229Y-103763866D01*
X127084790Y-103685118D01*
X127073211Y-103625877D01*
X127065356Y-103590786D01*
X127062937Y-103583462D01*
X127042191Y-103574975D01*
X126998774Y-103571056D01*
X126958025Y-103571645D01*
X126863377Y-103576437D01*
X126931048Y-103933625D01*
X126954564Y-104057748D01*
X126979886Y-104191408D01*
X127005123Y-104324619D01*
X127028382Y-104447396D01*
X127047774Y-104549757D01*
X127049093Y-104556718D01*
X127099466Y-104822625D01*
X127215351Y-104822625D01*
X127277073Y-104821406D01*
X127313950Y-104816730D01*
X127332829Y-104807064D01*
X127339534Y-104794843D01*
X127344102Y-104774087D01*
X127353667Y-104726673D01*
X127367435Y-104656766D01*
X127384611Y-104568527D01*
X127404403Y-104466120D01*
X127426016Y-104353706D01*
X127448656Y-104235450D01*
X127471529Y-104115513D01*
X127493841Y-103998058D01*
X127514798Y-103887247D01*
X127533605Y-103787245D01*
X127549470Y-103702212D01*
X127561598Y-103636312D01*
X127569194Y-103593708D01*
X127571500Y-103578748D01*
X127556977Y-103573663D01*
X127518801Y-103569996D01*
X127465062Y-103568503D01*
X127462005Y-103568500D01*
X127352510Y-103568500D01*
X127336005Y-103667718D01*
G36*
X126607094Y-103568524D02*
X126501358Y-103570478D01*
X126421577Y-103577486D01*
X126362127Y-103591314D01*
X126317385Y-103613725D01*
X126281726Y-103646484D01*
X126258161Y-103678003D01*
X126242713Y-103704027D01*
X126232413Y-103731770D01*
X126226242Y-103768194D01*
X126223183Y-103820257D01*
X126222218Y-103894921D01*
X126222185Y-103924066D01*
X126224465Y-104026959D01*
X126232392Y-104103331D01*
X126247710Y-104158172D01*
X126272161Y-104196469D01*
X126307486Y-104223210D01*
X126330463Y-104234095D01*
X126379056Y-104254223D01*
X126284716Y-104524916D01*
X126254483Y-104612381D01*
X126228265Y-104689594D01*
X126207735Y-104751524D01*
X126194561Y-104793136D01*
X126190375Y-104809117D01*
X126204898Y-104815810D01*
X126243083Y-104820641D01*
X126296852Y-104822618D01*
X126300182Y-104822625D01*
X126409989Y-104822625D01*
X126502588Y-104548781D01*
X126595188Y-104274937D01*
X126599532Y-104548781D01*
X126603875Y-104822625D01*
X126809500Y-104822625D01*
X126809500Y-103743125D01*
X126603125Y-103743125D01*
X126603125Y-104124125D01*
X126540526Y-104124125D01*
X126490459Y-104117904D01*
X126458839Y-104096181D01*
X126453213Y-104088842D01*
X126437586Y-104049547D01*
X126429735Y-103985398D01*
X126428500Y-103933625D01*
X126432092Y-103850887D01*
X126444579Y-103794896D01*
X126468531Y-103761282D01*
X126506514Y-103745678D01*
X126540526Y-103743125D01*
X126603125Y-103743125D01*
X126809500Y-103743125D01*
X126809500Y-103568500D01*
X126607094Y-103568524D01*
X126607094Y-103568524D01*
G37*
X126607094Y-103568524D02*
X126501358Y-103570478D01*
X126421577Y-103577486D01*
X126362127Y-103591314D01*
X126317385Y-103613725D01*
X126281726Y-103646484D01*
X126258161Y-103678003D01*
X126242713Y-103704027D01*
X126232413Y-103731770D01*
X126226242Y-103768194D01*
X126223183Y-103820257D01*
X126222218Y-103894921D01*
X126222185Y-103924066D01*
X126224465Y-104026959D01*
X126232392Y-104103331D01*
X126247710Y-104158172D01*
X126272161Y-104196469D01*
X126307486Y-104223210D01*
X126330463Y-104234095D01*
X126379056Y-104254223D01*
X126284716Y-104524916D01*
X126254483Y-104612381D01*
X126228265Y-104689594D01*
X126207735Y-104751524D01*
X126194561Y-104793136D01*
X126190375Y-104809117D01*
X126204898Y-104815810D01*
X126243083Y-104820641D01*
X126296852Y-104822618D01*
X126300182Y-104822625D01*
X126409989Y-104822625D01*
X126502588Y-104548781D01*
X126595188Y-104274937D01*
X126599532Y-104548781D01*
X126603875Y-104822625D01*
X126809500Y-104822625D01*
X126809500Y-103743125D01*
X126603125Y-103743125D01*
X126603125Y-104124125D01*
X126540526Y-104124125D01*
X126490459Y-104117904D01*
X126458839Y-104096181D01*
X126453213Y-104088842D01*
X126437586Y-104049547D01*
X126429735Y-103985398D01*
X126428500Y-103933625D01*
X126432092Y-103850887D01*
X126444579Y-103794896D01*
X126468531Y-103761282D01*
X126506514Y-103745678D01*
X126540526Y-103743125D01*
X126603125Y-103743125D01*
X126809500Y-103743125D01*
X126809500Y-103568500D01*
X126607094Y-103568524D01*
G36*
X125920500Y-104822625D02*
X126126875Y-104822625D01*
X126126875Y-104616250D01*
X125920500Y-104616250D01*
X125920500Y-104822625D01*
X125920500Y-104822625D01*
G37*
X125920500Y-104822625D02*
X126126875Y-104822625D01*
X126126875Y-104616250D01*
X125920500Y-104616250D01*
X125920500Y-104822625D01*
G36*
X123721318Y-103765088D02*
X123674427Y-103780968D01*
X123668106Y-103784887D01*
X123645877Y-103802504D01*
X123628094Y-103823229D01*
X123614265Y-103850592D01*
X123603900Y-103888122D01*
X123596509Y-103939350D01*
X123591602Y-104007806D01*
X123588688Y-104097020D01*
X123587277Y-104210523D01*
X123586879Y-104351844D01*
X123586875Y-104369677D01*
X123586875Y-104822625D01*
X123793250Y-104822625D01*
X123793250Y-104397175D01*
X123793702Y-104257143D01*
X123795124Y-104146549D01*
X123797613Y-104063089D01*
X123801269Y-104004463D01*
X123806190Y-103968369D01*
X123812300Y-103952675D01*
X123847478Y-103935537D01*
X123890349Y-103935952D01*
X123926065Y-103952514D01*
X123935567Y-103964331D01*
X123940821Y-103990354D01*
X123945181Y-104045477D01*
X123948549Y-104127061D01*
X123950827Y-104232466D01*
X123951917Y-104359054D01*
X123952000Y-104408831D01*
X123952000Y-104822625D01*
X124158375Y-104822625D01*
X124158375Y-104397174D01*
X124158526Y-104263875D01*
X124159364Y-104158935D01*
X124161471Y-104078964D01*
X124165428Y-104020573D01*
X124171813Y-103980369D01*
X124181209Y-103954965D01*
X124194195Y-103940968D01*
X124211353Y-103934989D01*
X124233262Y-103933638D01*
X124237750Y-103933625D01*
X124260576Y-103934503D01*
X124278545Y-103939400D01*
X124292239Y-103951705D01*
X124302237Y-103974808D01*
X124309121Y-104012101D01*
X124313471Y-104066972D01*
X124315868Y-104142812D01*
X124316892Y-104243013D01*
X124317123Y-104370963D01*
X124317125Y-104397174D01*
X124317125Y-104822625D01*
X124523500Y-104822625D01*
X124523500Y-103774875D01*
X124420313Y-103774875D01*
X124364819Y-103775608D01*
X124333907Y-103779587D01*
X124320413Y-103789484D01*
X124317173Y-103807967D01*
X124317125Y-103813341D01*
X124317125Y-103851807D01*
X124270722Y-103805403D01*
X124226881Y-103771601D01*
X124177844Y-103759511D01*
X124160630Y-103758999D01*
X124078866Y-103768228D01*
X124022737Y-103795859D01*
X123997029Y-103829796D01*
X123978948Y-103869480D01*
X123917803Y-103814240D01*
X123874228Y-103779538D01*
X123834905Y-103763234D01*
X123784163Y-103759007D01*
X123780862Y-103758999D01*
X123721318Y-103765088D01*
X123721318Y-103765088D01*
G37*
X123721318Y-103765088D02*
X123674427Y-103780968D01*
X123668106Y-103784887D01*
X123645877Y-103802504D01*
X123628094Y-103823229D01*
X123614265Y-103850592D01*
X123603900Y-103888122D01*
X123596509Y-103939350D01*
X123591602Y-104007806D01*
X123588688Y-104097020D01*
X123587277Y-104210523D01*
X123586879Y-104351844D01*
X123586875Y-104369677D01*
X123586875Y-104822625D01*
X123793250Y-104822625D01*
X123793250Y-104397175D01*
X123793702Y-104257143D01*
X123795124Y-104146549D01*
X123797613Y-104063089D01*
X123801269Y-104004463D01*
X123806190Y-103968369D01*
X123812300Y-103952675D01*
X123847478Y-103935537D01*
X123890349Y-103935952D01*
X123926065Y-103952514D01*
X123935567Y-103964331D01*
X123940821Y-103990354D01*
X123945181Y-104045477D01*
X123948549Y-104127061D01*
X123950827Y-104232466D01*
X123951917Y-104359054D01*
X123952000Y-104408831D01*
X123952000Y-104822625D01*
X124158375Y-104822625D01*
X124158375Y-104397174D01*
X124158526Y-104263875D01*
X124159364Y-104158935D01*
X124161471Y-104078964D01*
X124165428Y-104020573D01*
X124171813Y-103980369D01*
X124181209Y-103954965D01*
X124194195Y-103940968D01*
X124211353Y-103934989D01*
X124233262Y-103933638D01*
X124237750Y-103933625D01*
X124260576Y-103934503D01*
X124278545Y-103939400D01*
X124292239Y-103951705D01*
X124302237Y-103974808D01*
X124309121Y-104012101D01*
X124313471Y-104066972D01*
X124315868Y-104142812D01*
X124316892Y-104243013D01*
X124317123Y-104370963D01*
X124317125Y-104397174D01*
X124317125Y-104822625D01*
X124523500Y-104822625D01*
X124523500Y-103774875D01*
X124420313Y-103774875D01*
X124364819Y-103775608D01*
X124333907Y-103779587D01*
X124320413Y-103789484D01*
X124317173Y-103807967D01*
X124317125Y-103813341D01*
X124317125Y-103851807D01*
X124270722Y-103805403D01*
X124226881Y-103771601D01*
X124177844Y-103759511D01*
X124160630Y-103758999D01*
X124078866Y-103768228D01*
X124022737Y-103795859D01*
X123997029Y-103829796D01*
X123978948Y-103869480D01*
X123917803Y-103814240D01*
X123874228Y-103779538D01*
X123834905Y-103763234D01*
X123784163Y-103759007D01*
X123780862Y-103758999D01*
X123721318Y-103765088D01*
G36*
X130032125Y-103727250D02*
X130238500Y-103727250D01*
X130238500Y-103568500D01*
X130032125Y-103568500D01*
X130032125Y-103727250D01*
X130032125Y-103727250D01*
G37*
X130032125Y-103727250D02*
X130238500Y-103727250D01*
X130238500Y-103568500D01*
X130032125Y-103568500D01*
X130032125Y-103727250D01*
D12*
X125000000Y-98500000D03*
D13*
X127500000Y-98500000D03*
D12*
X136000000Y-98500000D03*
D13*
X138500000Y-98500000D03*
D14*
X110490000Y-110490000D03*
X110490000Y-105410000D03*
X110490000Y-96520000D03*
D15*
X117500000Y-96730000D03*
X117500000Y-95460000D03*
D16*
X117500000Y-98000000D03*
D15*
X138000000Y-110770000D03*
X138000000Y-112040000D03*
D16*
X138000000Y-109500000D03*
D13*
X117500000Y-112000000D03*
D17*
X117500000Y-101840000D03*
D13*
X134000000Y-109500000D03*
D17*
X123840000Y-109500000D03*
D18*
G36*
X121873000Y-114873000D02*
X117127000Y-114873000D01*
X117127000Y-113627000D01*
X121873000Y-113627000D01*
X121873000Y-114873000D01*
X121873000Y-114873000D01*
G37*
X121873000Y-114873000D02*
X117127000Y-114873000D01*
X117127000Y-113627000D01*
X121873000Y-113627000D01*
X121873000Y-114873000D01*
G36*
X107873000Y-114873000D02*
X105127000Y-114873000D01*
X105127000Y-109127000D01*
X107873000Y-109127000D01*
X107873000Y-114873000D01*
X107873000Y-114873000D01*
G37*
X107873000Y-114873000D02*
X105127000Y-114873000D01*
X105127000Y-109127000D01*
X107873000Y-109127000D01*
X107873000Y-114873000D01*
G36*
X105127000Y-94193394D02*
X105127000Y-91127000D01*
X108193394Y-91127000D01*
X105127000Y-94193394D01*
X105127000Y-94193394D01*
G37*
X105127000Y-94193394D02*
X105127000Y-91127000D01*
X108193394Y-91127000D01*
X105127000Y-94193394D01*
G36*
X142873000Y-114873000D02*
X139806606Y-114873000D01*
X142873000Y-111806606D01*
X142873000Y-114873000D01*
X142873000Y-114873000D01*
G37*
X142873000Y-114873000D02*
X139806606Y-114873000D01*
X142873000Y-111806606D01*
X142873000Y-114873000D01*
G36*
X142873000Y-94193394D02*
X139806606Y-91127000D01*
X142873000Y-91127000D01*
X142873000Y-94193394D01*
X142873000Y-94193394D01*
G37*
X142873000Y-94193394D02*
X139806606Y-91127000D01*
X142873000Y-91127000D01*
X142873000Y-94193394D01*
G36*
X132873000Y-92373000D02*
X128127000Y-92373000D01*
X128127000Y-91127000D01*
X132873000Y-91127000D01*
X132873000Y-92373000D01*
X132873000Y-92373000D01*
G37*
X132873000Y-92373000D02*
X128127000Y-92373000D01*
X128127000Y-91127000D01*
X132873000Y-91127000D01*
X132873000Y-92373000D01*
M02*
