G04 #@! TF.FileFunction,Copper,L1,Top,Signal*
%FSLAX46Y46*%
G04 Gerber Fmt 4.6, Leading zero omitted, Abs format (unit mm)*
G04 Created by KiCad (PCBNEW 4.0.5) date 07/12/17 21:06:26*
%MOMM*%
%LPD*%
G01*
G04 APERTURE LIST*
%ADD10C,0.100000*%
%ADD11R,1.600000X1.600000*%
%ADD12C,1.600000*%
%ADD13R,1.700000X1.700000*%
%ADD14O,1.500000X0.900000*%
%ADD15R,1.500000X0.900000*%
%ADD16O,1.600000X1.600000*%
%ADD17C,0.600000*%
%ADD18C,0.600000*%
%ADD19C,0.254000*%
G04 APERTURE END LIST*
D10*
D11*
X125000000Y-98500000D03*
D12*
X127500000Y-98500000D03*
D11*
X136000000Y-98500000D03*
D12*
X138500000Y-98500000D03*
D13*
X110490000Y-110490000D03*
X110490000Y-105410000D03*
X110490000Y-96520000D03*
D14*
X117500000Y-96730000D03*
X117500000Y-95460000D03*
D15*
X117500000Y-98000000D03*
D14*
X138000000Y-110770000D03*
X138000000Y-112040000D03*
D15*
X138000000Y-109500000D03*
D12*
X117500000Y-112000000D03*
D16*
X117500000Y-101840000D03*
D12*
X134000000Y-109500000D03*
D16*
X123840000Y-109500000D03*
D17*
X115316000Y-104648000D03*
X131064000Y-100584000D03*
X137414000Y-103886000D03*
D18*
X127500000Y-98500000D02*
X127500000Y-102116000D01*
X123840000Y-105776000D02*
X123840000Y-109500000D01*
X127500000Y-102116000D02*
X123840000Y-105776000D01*
X110490000Y-99822000D02*
X110490000Y-96520000D01*
X115316000Y-104648000D02*
X110490000Y-99822000D01*
X138500000Y-100260000D02*
X138500000Y-98500000D01*
X137414000Y-101346000D02*
X138500000Y-100260000D01*
X131826000Y-101346000D02*
X137414000Y-101346000D01*
X131064000Y-100584000D02*
X131826000Y-101346000D01*
X138000000Y-110770000D02*
X139674000Y-110770000D01*
X140208000Y-106680000D02*
X137414000Y-103886000D01*
X140208000Y-110236000D02*
X140208000Y-106680000D01*
X139674000Y-110770000D02*
X140208000Y-110236000D01*
D19*
G36*
X107961378Y-91723104D02*
X108087757Y-91912243D01*
X108276896Y-92038622D01*
X108500000Y-92083000D01*
X114000000Y-92083000D01*
X114223104Y-92038622D01*
X114412243Y-91912243D01*
X114538622Y-91723104D01*
X114566490Y-91583000D01*
X142417000Y-91583000D01*
X142417000Y-114417000D01*
X105583000Y-114417000D01*
X105583000Y-112259036D01*
X116191774Y-112259036D01*
X116390485Y-112739954D01*
X116758110Y-113108222D01*
X117238681Y-113307772D01*
X117759036Y-113308226D01*
X118239954Y-113109515D01*
X118608222Y-112741890D01*
X118807772Y-112261319D01*
X118808226Y-111740964D01*
X118609515Y-111260046D01*
X118241890Y-110891778D01*
X117761319Y-110692228D01*
X117240964Y-110691774D01*
X116760046Y-110890485D01*
X116391778Y-111258110D01*
X116192228Y-111738681D01*
X116191774Y-112259036D01*
X105583000Y-112259036D01*
X105583000Y-109640000D01*
X109122048Y-109640000D01*
X109122048Y-111340000D01*
X109157470Y-111528253D01*
X109268728Y-111701153D01*
X109438488Y-111817145D01*
X109640000Y-111857952D01*
X111340000Y-111857952D01*
X111528253Y-111822530D01*
X111701153Y-111711272D01*
X111817145Y-111541512D01*
X111857952Y-111340000D01*
X111857952Y-109640000D01*
X111831610Y-109500000D01*
X122506375Y-109500000D01*
X122605941Y-110000550D01*
X122889479Y-110424896D01*
X123313825Y-110708434D01*
X123814375Y-110808000D01*
X123865625Y-110808000D01*
X124366175Y-110708434D01*
X124790521Y-110424896D01*
X125074059Y-110000550D01*
X125122099Y-109759036D01*
X132691774Y-109759036D01*
X132890485Y-110239954D01*
X133258110Y-110608222D01*
X133738681Y-110807772D01*
X134259036Y-110808226D01*
X134739954Y-110609515D01*
X135108222Y-110241890D01*
X135307772Y-109761319D01*
X135308226Y-109240964D01*
X135109515Y-108760046D01*
X134741890Y-108391778D01*
X134261319Y-108192228D01*
X133740964Y-108191774D01*
X133260046Y-108390485D01*
X132891778Y-108758110D01*
X132692228Y-109238681D01*
X132691774Y-109759036D01*
X125122099Y-109759036D01*
X125173625Y-109500000D01*
X125074059Y-108999450D01*
X124790521Y-108575104D01*
X124648000Y-108479875D01*
X124648000Y-106110684D01*
X126712668Y-104046016D01*
X136605860Y-104046016D01*
X136728611Y-104343097D01*
X136955707Y-104570590D01*
X136956047Y-104570731D01*
X139400000Y-107014684D01*
X139400000Y-109901316D01*
X139339316Y-109962000D01*
X139265522Y-109962000D01*
X139267952Y-109950000D01*
X139267952Y-109050000D01*
X139232530Y-108861747D01*
X139121272Y-108688847D01*
X138951512Y-108572855D01*
X138750000Y-108532048D01*
X137250000Y-108532048D01*
X137061747Y-108567470D01*
X136888847Y-108678728D01*
X136772855Y-108848488D01*
X136732048Y-109050000D01*
X136732048Y-109950000D01*
X136767470Y-110138253D01*
X136865570Y-110290705D01*
X136790277Y-110403389D01*
X136717354Y-110770000D01*
X136790277Y-111136611D01*
X136969610Y-111405000D01*
X136790277Y-111673389D01*
X136717354Y-112040000D01*
X136790277Y-112406611D01*
X136997946Y-112717408D01*
X137308743Y-112925077D01*
X137675354Y-112998000D01*
X138324646Y-112998000D01*
X138691257Y-112925077D01*
X139002054Y-112717408D01*
X139209723Y-112406611D01*
X139282646Y-112040000D01*
X139209723Y-111673389D01*
X139145986Y-111578000D01*
X139674000Y-111578000D01*
X139983209Y-111516495D01*
X140245342Y-111341342D01*
X140779342Y-110807342D01*
X140954495Y-110545209D01*
X141016000Y-110236000D01*
X141016000Y-106680000D01*
X140954495Y-106370792D01*
X140779342Y-106108658D01*
X137986127Y-103315443D01*
X137872293Y-103201410D01*
X137575426Y-103078140D01*
X137253984Y-103077860D01*
X136956903Y-103200611D01*
X136729410Y-103427707D01*
X136606140Y-103724574D01*
X136605860Y-104046016D01*
X126712668Y-104046016D01*
X128071343Y-102687342D01*
X128246495Y-102425208D01*
X128308000Y-102116000D01*
X128308000Y-100744016D01*
X130255860Y-100744016D01*
X130378611Y-101041097D01*
X130605707Y-101268590D01*
X130606047Y-101268731D01*
X131254658Y-101917342D01*
X131516792Y-102092495D01*
X131826000Y-102154000D01*
X137414000Y-102154000D01*
X137723209Y-102092495D01*
X137985342Y-101917342D01*
X139071342Y-100831342D01*
X139246495Y-100569209D01*
X139308000Y-100260000D01*
X139308000Y-99541588D01*
X139608222Y-99241890D01*
X139807772Y-98761319D01*
X139808226Y-98240964D01*
X139609515Y-97760046D01*
X139241890Y-97391778D01*
X138761319Y-97192228D01*
X138240964Y-97191774D01*
X137760046Y-97390485D01*
X137391778Y-97758110D01*
X137317952Y-97935903D01*
X137317952Y-97700000D01*
X137282530Y-97511747D01*
X137171272Y-97338847D01*
X137001512Y-97222855D01*
X136800000Y-97182048D01*
X135200000Y-97182048D01*
X135011747Y-97217470D01*
X134838847Y-97328728D01*
X134722855Y-97498488D01*
X134682048Y-97700000D01*
X134682048Y-99300000D01*
X134717470Y-99488253D01*
X134828728Y-99661153D01*
X134998488Y-99777145D01*
X135200000Y-99817952D01*
X136800000Y-99817952D01*
X136988253Y-99782530D01*
X137161153Y-99671272D01*
X137277145Y-99501512D01*
X137317952Y-99300000D01*
X137317952Y-99064410D01*
X137390485Y-99239954D01*
X137692000Y-99541996D01*
X137692000Y-99925316D01*
X137079316Y-100538000D01*
X132160684Y-100538000D01*
X131636127Y-100013443D01*
X131522293Y-99899410D01*
X131225426Y-99776140D01*
X130903984Y-99775860D01*
X130606903Y-99898611D01*
X130379410Y-100125707D01*
X130256140Y-100422574D01*
X130255860Y-100744016D01*
X128308000Y-100744016D01*
X128308000Y-99541588D01*
X128608222Y-99241890D01*
X128807772Y-98761319D01*
X128808226Y-98240964D01*
X128609515Y-97760046D01*
X128241890Y-97391778D01*
X127761319Y-97192228D01*
X127240964Y-97191774D01*
X126760046Y-97390485D01*
X126391778Y-97758110D01*
X126317952Y-97935903D01*
X126317952Y-97700000D01*
X126282530Y-97511747D01*
X126171272Y-97338847D01*
X126001512Y-97222855D01*
X125800000Y-97182048D01*
X124200000Y-97182048D01*
X124011747Y-97217470D01*
X123838847Y-97328728D01*
X123722855Y-97498488D01*
X123682048Y-97700000D01*
X123682048Y-99300000D01*
X123717470Y-99488253D01*
X123828728Y-99661153D01*
X123998488Y-99777145D01*
X124200000Y-99817952D01*
X125800000Y-99817952D01*
X125988253Y-99782530D01*
X126161153Y-99671272D01*
X126277145Y-99501512D01*
X126317952Y-99300000D01*
X126317952Y-99064410D01*
X126390485Y-99239954D01*
X126692000Y-99541996D01*
X126692000Y-101781315D01*
X123268658Y-105204658D01*
X123093505Y-105466791D01*
X123093505Y-105466792D01*
X123032000Y-105776000D01*
X123032000Y-108479875D01*
X122889479Y-108575104D01*
X122605941Y-108999450D01*
X122506375Y-109500000D01*
X111831610Y-109500000D01*
X111822530Y-109451747D01*
X111711272Y-109278847D01*
X111541512Y-109162855D01*
X111340000Y-109122048D01*
X109640000Y-109122048D01*
X109451747Y-109157470D01*
X109278847Y-109268728D01*
X109162855Y-109438488D01*
X109122048Y-109640000D01*
X105583000Y-109640000D01*
X105583000Y-104560000D01*
X109122048Y-104560000D01*
X109122048Y-106260000D01*
X109157470Y-106448253D01*
X109268728Y-106621153D01*
X109438488Y-106737145D01*
X109640000Y-106777952D01*
X111340000Y-106777952D01*
X111528253Y-106742530D01*
X111701153Y-106631272D01*
X111817145Y-106461512D01*
X111857952Y-106260000D01*
X111857952Y-104560000D01*
X111822530Y-104371747D01*
X111711272Y-104198847D01*
X111541512Y-104082855D01*
X111340000Y-104042048D01*
X109640000Y-104042048D01*
X109451747Y-104077470D01*
X109278847Y-104188728D01*
X109162855Y-104358488D01*
X109122048Y-104560000D01*
X105583000Y-104560000D01*
X105583000Y-95670000D01*
X109122048Y-95670000D01*
X109122048Y-97370000D01*
X109157470Y-97558253D01*
X109268728Y-97731153D01*
X109438488Y-97847145D01*
X109640000Y-97887952D01*
X109682000Y-97887952D01*
X109682000Y-99822000D01*
X109743505Y-100131209D01*
X109918658Y-100393342D01*
X114744445Y-105219130D01*
X114857707Y-105332590D01*
X115154574Y-105455860D01*
X115476016Y-105456140D01*
X115773097Y-105333389D01*
X115887341Y-105219344D01*
X115887343Y-105219343D01*
X115887344Y-105219341D01*
X116000590Y-105106293D01*
X116123860Y-104809426D01*
X116124140Y-104487984D01*
X116001389Y-104190903D01*
X115774293Y-103963410D01*
X115773954Y-103963269D01*
X113625060Y-101814375D01*
X116192000Y-101814375D01*
X116192000Y-101865625D01*
X116291566Y-102366175D01*
X116575104Y-102790521D01*
X116999450Y-103074059D01*
X117500000Y-103173625D01*
X118000550Y-103074059D01*
X118424896Y-102790521D01*
X118708434Y-102366175D01*
X118808000Y-101865625D01*
X118808000Y-101814375D01*
X118708434Y-101313825D01*
X118424896Y-100889479D01*
X118000550Y-100605941D01*
X117500000Y-100506375D01*
X116999450Y-100605941D01*
X116575104Y-100889479D01*
X116291566Y-101313825D01*
X116192000Y-101814375D01*
X113625060Y-101814375D01*
X111298000Y-99487316D01*
X111298000Y-97887952D01*
X111340000Y-97887952D01*
X111528253Y-97852530D01*
X111701153Y-97741272D01*
X111817145Y-97571512D01*
X111857952Y-97370000D01*
X111857952Y-95754001D01*
X116155592Y-95754001D01*
X116342987Y-96137408D01*
X116405622Y-96190764D01*
X116290277Y-96363389D01*
X116217354Y-96730000D01*
X116290277Y-97096611D01*
X116366753Y-97211064D01*
X116272855Y-97348488D01*
X116232048Y-97550000D01*
X116232048Y-98450000D01*
X116267470Y-98638253D01*
X116378728Y-98811153D01*
X116548488Y-98927145D01*
X116750000Y-98967952D01*
X118250000Y-98967952D01*
X118438253Y-98932530D01*
X118611153Y-98821272D01*
X118727145Y-98651512D01*
X118767952Y-98450000D01*
X118767952Y-97550000D01*
X118732530Y-97361747D01*
X118634430Y-97209295D01*
X118709723Y-97096611D01*
X118782646Y-96730000D01*
X118709723Y-96363389D01*
X118594378Y-96190764D01*
X118657013Y-96137408D01*
X118844408Y-95754001D01*
X118717502Y-95587000D01*
X117627000Y-95587000D01*
X117627000Y-95607000D01*
X117373000Y-95607000D01*
X117373000Y-95587000D01*
X116282498Y-95587000D01*
X116155592Y-95754001D01*
X111857952Y-95754001D01*
X111857952Y-95670000D01*
X111822530Y-95481747D01*
X111711272Y-95308847D01*
X111541512Y-95192855D01*
X111408893Y-95165999D01*
X116155592Y-95165999D01*
X116282498Y-95333000D01*
X117373000Y-95333000D01*
X117373000Y-94375000D01*
X117627000Y-94375000D01*
X117627000Y-95333000D01*
X118717502Y-95333000D01*
X118844408Y-95165999D01*
X118657013Y-94782592D01*
X118332544Y-94506192D01*
X117927000Y-94375000D01*
X117627000Y-94375000D01*
X117373000Y-94375000D01*
X117073000Y-94375000D01*
X116667456Y-94506192D01*
X116342987Y-94782592D01*
X116155592Y-95165999D01*
X111408893Y-95165999D01*
X111340000Y-95152048D01*
X109640000Y-95152048D01*
X109451747Y-95187470D01*
X109278847Y-95298728D01*
X109162855Y-95468488D01*
X109122048Y-95670000D01*
X105583000Y-95670000D01*
X105583000Y-91583000D01*
X107933510Y-91583000D01*
X107961378Y-91723104D01*
X107961378Y-91723104D01*
G37*
X107961378Y-91723104D02*
X108087757Y-91912243D01*
X108276896Y-92038622D01*
X108500000Y-92083000D01*
X114000000Y-92083000D01*
X114223104Y-92038622D01*
X114412243Y-91912243D01*
X114538622Y-91723104D01*
X114566490Y-91583000D01*
X142417000Y-91583000D01*
X142417000Y-114417000D01*
X105583000Y-114417000D01*
X105583000Y-112259036D01*
X116191774Y-112259036D01*
X116390485Y-112739954D01*
X116758110Y-113108222D01*
X117238681Y-113307772D01*
X117759036Y-113308226D01*
X118239954Y-113109515D01*
X118608222Y-112741890D01*
X118807772Y-112261319D01*
X118808226Y-111740964D01*
X118609515Y-111260046D01*
X118241890Y-110891778D01*
X117761319Y-110692228D01*
X117240964Y-110691774D01*
X116760046Y-110890485D01*
X116391778Y-111258110D01*
X116192228Y-111738681D01*
X116191774Y-112259036D01*
X105583000Y-112259036D01*
X105583000Y-109640000D01*
X109122048Y-109640000D01*
X109122048Y-111340000D01*
X109157470Y-111528253D01*
X109268728Y-111701153D01*
X109438488Y-111817145D01*
X109640000Y-111857952D01*
X111340000Y-111857952D01*
X111528253Y-111822530D01*
X111701153Y-111711272D01*
X111817145Y-111541512D01*
X111857952Y-111340000D01*
X111857952Y-109640000D01*
X111831610Y-109500000D01*
X122506375Y-109500000D01*
X122605941Y-110000550D01*
X122889479Y-110424896D01*
X123313825Y-110708434D01*
X123814375Y-110808000D01*
X123865625Y-110808000D01*
X124366175Y-110708434D01*
X124790521Y-110424896D01*
X125074059Y-110000550D01*
X125122099Y-109759036D01*
X132691774Y-109759036D01*
X132890485Y-110239954D01*
X133258110Y-110608222D01*
X133738681Y-110807772D01*
X134259036Y-110808226D01*
X134739954Y-110609515D01*
X135108222Y-110241890D01*
X135307772Y-109761319D01*
X135308226Y-109240964D01*
X135109515Y-108760046D01*
X134741890Y-108391778D01*
X134261319Y-108192228D01*
X133740964Y-108191774D01*
X133260046Y-108390485D01*
X132891778Y-108758110D01*
X132692228Y-109238681D01*
X132691774Y-109759036D01*
X125122099Y-109759036D01*
X125173625Y-109500000D01*
X125074059Y-108999450D01*
X124790521Y-108575104D01*
X124648000Y-108479875D01*
X124648000Y-106110684D01*
X126712668Y-104046016D01*
X136605860Y-104046016D01*
X136728611Y-104343097D01*
X136955707Y-104570590D01*
X136956047Y-104570731D01*
X139400000Y-107014684D01*
X139400000Y-109901316D01*
X139339316Y-109962000D01*
X139265522Y-109962000D01*
X139267952Y-109950000D01*
X139267952Y-109050000D01*
X139232530Y-108861747D01*
X139121272Y-108688847D01*
X138951512Y-108572855D01*
X138750000Y-108532048D01*
X137250000Y-108532048D01*
X137061747Y-108567470D01*
X136888847Y-108678728D01*
X136772855Y-108848488D01*
X136732048Y-109050000D01*
X136732048Y-109950000D01*
X136767470Y-110138253D01*
X136865570Y-110290705D01*
X136790277Y-110403389D01*
X136717354Y-110770000D01*
X136790277Y-111136611D01*
X136969610Y-111405000D01*
X136790277Y-111673389D01*
X136717354Y-112040000D01*
X136790277Y-112406611D01*
X136997946Y-112717408D01*
X137308743Y-112925077D01*
X137675354Y-112998000D01*
X138324646Y-112998000D01*
X138691257Y-112925077D01*
X139002054Y-112717408D01*
X139209723Y-112406611D01*
X139282646Y-112040000D01*
X139209723Y-111673389D01*
X139145986Y-111578000D01*
X139674000Y-111578000D01*
X139983209Y-111516495D01*
X140245342Y-111341342D01*
X140779342Y-110807342D01*
X140954495Y-110545209D01*
X141016000Y-110236000D01*
X141016000Y-106680000D01*
X140954495Y-106370792D01*
X140779342Y-106108658D01*
X137986127Y-103315443D01*
X137872293Y-103201410D01*
X137575426Y-103078140D01*
X137253984Y-103077860D01*
X136956903Y-103200611D01*
X136729410Y-103427707D01*
X136606140Y-103724574D01*
X136605860Y-104046016D01*
X126712668Y-104046016D01*
X128071343Y-102687342D01*
X128246495Y-102425208D01*
X128308000Y-102116000D01*
X128308000Y-100744016D01*
X130255860Y-100744016D01*
X130378611Y-101041097D01*
X130605707Y-101268590D01*
X130606047Y-101268731D01*
X131254658Y-101917342D01*
X131516792Y-102092495D01*
X131826000Y-102154000D01*
X137414000Y-102154000D01*
X137723209Y-102092495D01*
X137985342Y-101917342D01*
X139071342Y-100831342D01*
X139246495Y-100569209D01*
X139308000Y-100260000D01*
X139308000Y-99541588D01*
X139608222Y-99241890D01*
X139807772Y-98761319D01*
X139808226Y-98240964D01*
X139609515Y-97760046D01*
X139241890Y-97391778D01*
X138761319Y-97192228D01*
X138240964Y-97191774D01*
X137760046Y-97390485D01*
X137391778Y-97758110D01*
X137317952Y-97935903D01*
X137317952Y-97700000D01*
X137282530Y-97511747D01*
X137171272Y-97338847D01*
X137001512Y-97222855D01*
X136800000Y-97182048D01*
X135200000Y-97182048D01*
X135011747Y-97217470D01*
X134838847Y-97328728D01*
X134722855Y-97498488D01*
X134682048Y-97700000D01*
X134682048Y-99300000D01*
X134717470Y-99488253D01*
X134828728Y-99661153D01*
X134998488Y-99777145D01*
X135200000Y-99817952D01*
X136800000Y-99817952D01*
X136988253Y-99782530D01*
X137161153Y-99671272D01*
X137277145Y-99501512D01*
X137317952Y-99300000D01*
X137317952Y-99064410D01*
X137390485Y-99239954D01*
X137692000Y-99541996D01*
X137692000Y-99925316D01*
X137079316Y-100538000D01*
X132160684Y-100538000D01*
X131636127Y-100013443D01*
X131522293Y-99899410D01*
X131225426Y-99776140D01*
X130903984Y-99775860D01*
X130606903Y-99898611D01*
X130379410Y-100125707D01*
X130256140Y-100422574D01*
X130255860Y-100744016D01*
X128308000Y-100744016D01*
X128308000Y-99541588D01*
X128608222Y-99241890D01*
X128807772Y-98761319D01*
X128808226Y-98240964D01*
X128609515Y-97760046D01*
X128241890Y-97391778D01*
X127761319Y-97192228D01*
X127240964Y-97191774D01*
X126760046Y-97390485D01*
X126391778Y-97758110D01*
X126317952Y-97935903D01*
X126317952Y-97700000D01*
X126282530Y-97511747D01*
X126171272Y-97338847D01*
X126001512Y-97222855D01*
X125800000Y-97182048D01*
X124200000Y-97182048D01*
X124011747Y-97217470D01*
X123838847Y-97328728D01*
X123722855Y-97498488D01*
X123682048Y-97700000D01*
X123682048Y-99300000D01*
X123717470Y-99488253D01*
X123828728Y-99661153D01*
X123998488Y-99777145D01*
X124200000Y-99817952D01*
X125800000Y-99817952D01*
X125988253Y-99782530D01*
X126161153Y-99671272D01*
X126277145Y-99501512D01*
X126317952Y-99300000D01*
X126317952Y-99064410D01*
X126390485Y-99239954D01*
X126692000Y-99541996D01*
X126692000Y-101781315D01*
X123268658Y-105204658D01*
X123093505Y-105466791D01*
X123093505Y-105466792D01*
X123032000Y-105776000D01*
X123032000Y-108479875D01*
X122889479Y-108575104D01*
X122605941Y-108999450D01*
X122506375Y-109500000D01*
X111831610Y-109500000D01*
X111822530Y-109451747D01*
X111711272Y-109278847D01*
X111541512Y-109162855D01*
X111340000Y-109122048D01*
X109640000Y-109122048D01*
X109451747Y-109157470D01*
X109278847Y-109268728D01*
X109162855Y-109438488D01*
X109122048Y-109640000D01*
X105583000Y-109640000D01*
X105583000Y-104560000D01*
X109122048Y-104560000D01*
X109122048Y-106260000D01*
X109157470Y-106448253D01*
X109268728Y-106621153D01*
X109438488Y-106737145D01*
X109640000Y-106777952D01*
X111340000Y-106777952D01*
X111528253Y-106742530D01*
X111701153Y-106631272D01*
X111817145Y-106461512D01*
X111857952Y-106260000D01*
X111857952Y-104560000D01*
X111822530Y-104371747D01*
X111711272Y-104198847D01*
X111541512Y-104082855D01*
X111340000Y-104042048D01*
X109640000Y-104042048D01*
X109451747Y-104077470D01*
X109278847Y-104188728D01*
X109162855Y-104358488D01*
X109122048Y-104560000D01*
X105583000Y-104560000D01*
X105583000Y-95670000D01*
X109122048Y-95670000D01*
X109122048Y-97370000D01*
X109157470Y-97558253D01*
X109268728Y-97731153D01*
X109438488Y-97847145D01*
X109640000Y-97887952D01*
X109682000Y-97887952D01*
X109682000Y-99822000D01*
X109743505Y-100131209D01*
X109918658Y-100393342D01*
X114744445Y-105219130D01*
X114857707Y-105332590D01*
X115154574Y-105455860D01*
X115476016Y-105456140D01*
X115773097Y-105333389D01*
X115887341Y-105219344D01*
X115887343Y-105219343D01*
X115887344Y-105219341D01*
X116000590Y-105106293D01*
X116123860Y-104809426D01*
X116124140Y-104487984D01*
X116001389Y-104190903D01*
X115774293Y-103963410D01*
X115773954Y-103963269D01*
X113625060Y-101814375D01*
X116192000Y-101814375D01*
X116192000Y-101865625D01*
X116291566Y-102366175D01*
X116575104Y-102790521D01*
X116999450Y-103074059D01*
X117500000Y-103173625D01*
X118000550Y-103074059D01*
X118424896Y-102790521D01*
X118708434Y-102366175D01*
X118808000Y-101865625D01*
X118808000Y-101814375D01*
X118708434Y-101313825D01*
X118424896Y-100889479D01*
X118000550Y-100605941D01*
X117500000Y-100506375D01*
X116999450Y-100605941D01*
X116575104Y-100889479D01*
X116291566Y-101313825D01*
X116192000Y-101814375D01*
X113625060Y-101814375D01*
X111298000Y-99487316D01*
X111298000Y-97887952D01*
X111340000Y-97887952D01*
X111528253Y-97852530D01*
X111701153Y-97741272D01*
X111817145Y-97571512D01*
X111857952Y-97370000D01*
X111857952Y-95754001D01*
X116155592Y-95754001D01*
X116342987Y-96137408D01*
X116405622Y-96190764D01*
X116290277Y-96363389D01*
X116217354Y-96730000D01*
X116290277Y-97096611D01*
X116366753Y-97211064D01*
X116272855Y-97348488D01*
X116232048Y-97550000D01*
X116232048Y-98450000D01*
X116267470Y-98638253D01*
X116378728Y-98811153D01*
X116548488Y-98927145D01*
X116750000Y-98967952D01*
X118250000Y-98967952D01*
X118438253Y-98932530D01*
X118611153Y-98821272D01*
X118727145Y-98651512D01*
X118767952Y-98450000D01*
X118767952Y-97550000D01*
X118732530Y-97361747D01*
X118634430Y-97209295D01*
X118709723Y-97096611D01*
X118782646Y-96730000D01*
X118709723Y-96363389D01*
X118594378Y-96190764D01*
X118657013Y-96137408D01*
X118844408Y-95754001D01*
X118717502Y-95587000D01*
X117627000Y-95587000D01*
X117627000Y-95607000D01*
X117373000Y-95607000D01*
X117373000Y-95587000D01*
X116282498Y-95587000D01*
X116155592Y-95754001D01*
X111857952Y-95754001D01*
X111857952Y-95670000D01*
X111822530Y-95481747D01*
X111711272Y-95308847D01*
X111541512Y-95192855D01*
X111408893Y-95165999D01*
X116155592Y-95165999D01*
X116282498Y-95333000D01*
X117373000Y-95333000D01*
X117373000Y-94375000D01*
X117627000Y-94375000D01*
X117627000Y-95333000D01*
X118717502Y-95333000D01*
X118844408Y-95165999D01*
X118657013Y-94782592D01*
X118332544Y-94506192D01*
X117927000Y-94375000D01*
X117627000Y-94375000D01*
X117373000Y-94375000D01*
X117073000Y-94375000D01*
X116667456Y-94506192D01*
X116342987Y-94782592D01*
X116155592Y-95165999D01*
X111408893Y-95165999D01*
X111340000Y-95152048D01*
X109640000Y-95152048D01*
X109451747Y-95187470D01*
X109278847Y-95298728D01*
X109162855Y-95468488D01*
X109122048Y-95670000D01*
X105583000Y-95670000D01*
X105583000Y-91583000D01*
X107933510Y-91583000D01*
X107961378Y-91723104D01*
M02*
