M48
;DRILL file {KiCad 4.0.5} date 07/12/17 21:06:29
;FORMAT={-:-/ absolute / inch / decimal}
FMAT,2
INCH,TZ
T1C0.016
T2C0.024
T3C0.031
T4C0.039
%
G90
G05
M72
T1
X4.54Y-4.12
X5.16Y-3.96
X5.41Y-4.09
T2
X4.626Y-3.7583
X4.626Y-3.8083
X4.626Y-3.8583
X5.4331Y-4.311
X5.4331Y-4.361
X5.4331Y-4.411
T3
X4.626Y-4.0094
X4.626Y-4.4094
X4.8756Y-4.311
X4.9213Y-3.878
X5.0197Y-3.878
X5.2756Y-4.311
X5.3543Y-3.878
X5.4528Y-3.878
T4
X4.35Y-3.8
X4.35Y-4.15
X4.35Y-4.35
T0
M30
